Georama-iXp-XBk.ufo
<glyph name="numbersign" format="2">
  <advance width="1050"/>
  <unicode hex="0023"/>
  <outline>
    <contour>
      <point x="162" y="418" type="line"/>
      <point x="239" y="418" type="line"/>
      <point x="192" y="291" type="line"/>
      <point x="118" y="291" type="line"/>
      <point x="91" y="129" type="line"/>
      <point x="134" y="129" type="line"/>
      <point x="87" y="0" type="line"/>
      <point x="368" y="0" type="line"/>
      <point x="415" y="129" type="line"/>
      <point x="491" y="129" type="line"/>
      <point x="444" y="0" type="line"/>
      <point x="725" y="0" type="line"/>
      <point x="772" y="129" type="line"/>
      <point x="887" y="129" type="line"/>
      <point x="913" y="291" type="line"/>
      <point x="832" y="291" type="line"/>
      <point x="877" y="418" type="line"/>
      <point x="957" y="418" type="line"/>
      <point x="984" y="578" type="line"/>
      <point x="935" y="578" type="line"/>
      <point x="980" y="700" type="line"/>
      <point x="699" y="700" type="line"/>
      <point x="654" y="578" type="line"/>
      <point x="578" y="578" type="line"/>
      <point x="623" y="700" type="line"/>
      <point x="342" y="700" type="line"/>
      <point x="297" y="578" type="line"/>
      <point x="188" y="578" type="line"/>
    </contour>
    <contour>
      <point x="520" y="418" type="line"/>
      <point x="596" y="418" type="line"/>
      <point x="549" y="291" type="line"/>
      <point x="473" y="291" type="line"/>
    </contour>
  </outline>
</glyph>
<glyph name="ampersand" format="2">
  <advance width="1103"/>
  <unicode hex="0026"/>
  <outline>
    <contour>
      <point x="462" y="-10" type="curve" smooth="yes"/>
      <point x="751" y="-10"/>
      <point x="913" y="95"/>
      <point x="997" y="324" type="curve"/>
      <point x="796" y="325" type="line"/>
      <point x="771" y="224"/>
      <point x="660" y="165"/>
      <point x="495" y="165" type="curve" smooth="yes"/>
      <point x="384" y="165"/>
      <point x="316" y="191"/>
      <point x="316" y="234" type="curve" smooth="yes"/>
      <point x="316" y="272"/>
      <point x="347" y="291"/>
      <point x="407" y="291" type="curve" smooth="yes"/>
      <point x="503" y="291" type="line"/>
      <point x="535" y="408" type="line"/>
      <point x="510" y="411" type="line" smooth="yes"/>
      <point x="445" y="419"/>
      <point x="413" y="441"/>
      <point x="413" y="477" type="curve" smooth="yes"/>
      <point x="413" y="513"/>
      <point x="454" y="539"/>
      <point x="511" y="539" type="curve" smooth="yes"/>
      <point x="555" y="539"/>
      <point x="596" y="526"/>
      <point x="645" y="497" type="curve"/>
      <point x="792" y="615" type="line"/>
      <point x="704" y="680"/>
      <point x="605" y="710"/>
      <point x="479" y="710" type="curve" smooth="yes"/>
      <point x="267" y="710"/>
      <point x="123" y="634"/>
      <point x="123" y="522" type="curve" smooth="yes"/>
      <point x="123" y="467"/>
      <point x="175" y="415"/>
      <point x="248" y="396" type="curve"/>
      <point x="110" y="387"/>
      <point x="20" y="323"/>
      <point x="20" y="220" type="curve" smooth="yes"/>
      <point x="20" y="70"/>
      <point x="169" y="-10"/>
    </contour>
    <contour>
      <point x="697" y="230" type="line"/>
      <point x="710" y="264"/>
      <point x="736" y="282"/>
      <point x="766" y="282" type="curve" smooth="yes"/>
      <point x="834" y="282"/>
      <point x="922" y="266"/>
      <point x="972" y="266" type="curve" smooth="yes"/>
      <point x="1068" y="266"/>
      <point x="1134" y="347"/>
      <point x="1134" y="474" type="curve"/>
      <point x="977" y="474" type="line"/>
      <point x="976" y="430"/>
      <point x="951" y="413"/>
      <point x="902" y="413" type="curve" smooth="yes"/>
      <point x="849" y="413"/>
      <point x="799" y="431"/>
      <point x="746" y="431" type="curve" smooth="yes"/>
      <point x="641" y="431"/>
      <point x="571" y="372"/>
      <point x="558" y="273" type="curve"/>
    </contour>
  </outline>
</glyph>
<glyph name="parenleft" format="2">
  <advance width="500"/>
  <unicode hex="0028"/>
  <outline>
    <contour>
      <point x="68" y="163" type="curve" smooth="yes"/>
      <point x="68" y="-30"/>
      <point x="156" y="-197"/>
      <point x="384" y="-220" type="curve"/>
      <point x="410" y="-60" type="line"/>
      <point x="318" y="-29"/>
      <point x="285" y="40"/>
      <point x="285" y="139" type="curve" smooth="yes"/>
      <point x="285" y="319"/>
      <point x="338" y="548"/>
      <point x="509" y="582" type="curve"/>
      <point x="535" y="750" type="line"/>
      <point x="220" y="752"/>
      <point x="68" y="469"/>
    </contour>
  </outline>
</glyph>
<glyph name="parenright" format="2">
  <advance width="500"/>
  <unicode hex="0029"/>
  <outline>
    <contour>
      <point x="428" y="367" type="curve" smooth="yes"/>
      <point x="428" y="565"/>
      <point x="340" y="727"/>
      <point x="112" y="750" type="curve"/>
      <point x="86" y="585" type="line"/>
      <point x="178" y="554"/>
      <point x="211" y="485"/>
      <point x="211" y="386" type="curve" smooth="yes"/>
      <point x="211" y="206"/>
      <point x="158" y="-18"/>
      <point x="-13" y="-52" type="curve"/>
      <point x="-39" y="-220" type="line"/>
      <point x="276" y="-214"/>
      <point x="428" y="71"/>
    </contour>
  </outline>
</glyph>
<glyph name="asterisk" format="2">
  <advance width="490"/>
  <unicode hex="002A"/>
  <outline>
    <contour>
      <point x="165" y="282" type="line"/>
      <point x="259" y="374" type="line"/>
      <point x="323" y="282" type="line"/>
      <point x="424" y="348" type="line"/>
      <point x="386" y="461" type="line"/>
      <point x="498" y="517" type="line"/>
      <point x="483" y="625" type="line"/>
      <point x="367" y="605" type="line"/>
      <point x="373" y="730" type="line"/>
      <point x="262" y="730" type="line"/>
      <point x="228" y="605" type="line"/>
      <point x="118" y="625" type="line"/>
      <point x="69" y="517" type="line"/>
      <point x="163" y="461" type="line"/>
      <point x="89" y="348" type="line"/>
    </contour>
  </outline>
</glyph>
<glyph name="plus" format="2">
  <advance width="742"/>
  <unicode hex="002B"/>
  <outline>
    <contour>
      <point x="224" y="87" type="line"/>
      <point x="455" y="87" type="line"/>
      <point x="475" y="216" type="line"/>
      <point x="671" y="216" type="line"/>
      <point x="705" y="421" type="line"/>
      <point x="509" y="421" type="line"/>
      <point x="530" y="549" type="line"/>
      <point x="301" y="549" type="line"/>
      <point x="278" y="421" type="line"/>
      <point x="85" y="421" type="line"/>
      <point x="51" y="216" type="line"/>
      <point x="246" y="216" type="line"/>
    </contour>
  </outline>
</glyph>
<glyph name="comma" format="2">
  <advance width="371"/>
  <unicode hex="002C"/>
  <outline>
    <contour>
      <point x="41" y="111" type="line"/>
      <point x="40" y="89"/>
      <point x="36" y="66"/>
      <point x="32" y="44" type="curve" smooth="yes"/>
      <point x="18" y="-31"/>
      <point x="-9" y="-106"/>
      <point x="-70" y="-177" type="curve"/>
      <point x="140" y="-200" type="line"/>
      <point x="224" y="-123"/>
      <point x="294" y="-30"/>
      <point x="294" y="80" type="curve" smooth="yes"/>
      <point x="294" y="91"/>
      <point x="293" y="102"/>
      <point x="290" y="112" type="curve"/>
    </contour>
  </outline>
</glyph>
<glyph name="slash" format="2">
  <advance width="607"/>
  <unicode hex="002F"/>
  <outline>
    <contour>
      <point x="-67" y="-210" type="line"/>
      <point x="150" y="-210" type="line"/>
      <point x="671" y="740" type="line"/>
      <point x="453" y="740" type="line"/>
    </contour>
  </outline>
</glyph>
<glyph name="three" format="2">
  <advance width="1050"/>
  <unicode hex="0033"/>
  <outline>
    <contour>
      <point x="53" y="43" type="line"/>
      <point x="164" y="2"/>
      <point x="300" y="-9"/>
      <point x="434" y="-9" type="curve" smooth="yes"/>
      <point x="608" y="-9"/>
      <point x="929" y="18"/>
      <point x="929" y="244" type="curve" smooth="yes"/>
      <point x="929" y="308"/>
      <point x="894" y="357"/>
      <point x="806" y="380" type="curve"/>
      <point x="894" y="399"/>
      <point x="960" y="460"/>
      <point x="960" y="548" type="curve" smooth="yes"/>
      <point x="960" y="646"/>
      <point x="844" y="710"/>
      <point x="568" y="710" type="curve" smooth="yes"/>
      <point x="399" y="710"/>
      <point x="240" y="691"/>
      <point x="173" y="669" type="curve"/>
      <point x="173" y="473" type="line"/>
      <point x="278" y="495"/>
      <point x="392" y="508"/>
      <point x="489" y="508" type="curve" smooth="yes"/>
      <point x="594" y="508"/>
      <point x="668" y="499"/>
      <point x="668" y="475" type="curve" smooth="yes"/>
      <point x="668" y="447"/>
      <point x="623" y="441"/>
      <point x="476" y="441" type="curve" smooth="yes"/>
      <point x="300" y="441" type="line"/>
      <point x="270" y="262" type="line"/>
      <point x="520" y="262" type="line" smooth="yes"/>
      <point x="617" y="262"/>
      <point x="640" y="252"/>
      <point x="640" y="233" type="curve" smooth="yes"/>
      <point x="640" y="203"/>
      <point x="587" y="192"/>
      <point x="455" y="192" type="curve" smooth="yes"/>
      <point x="337" y="192"/>
      <point x="202" y="213"/>
      <point x="129" y="233" type="curve"/>
    </contour>
  </outline>
</glyph>
<glyph name="four" format="2">
  <advance width="1050"/>
  <unicode hex="0034"/>
  <outline>
    <contour>
      <point x="29" y="88" type="line"/>
      <point x="513" y="88" type="line"/>
      <point x="499" y="0" type="line"/>
      <point x="794" y="0" type="line"/>
      <point x="808" y="88" type="line"/>
      <point x="941" y="88" type="line"/>
      <point x="970" y="267" type="line"/>
      <point x="837" y="267" type="line"/>
      <point x="909" y="700" type="line"/>
      <point x="737" y="700" type="line"/>
      <point x="51" y="229" type="line"/>
    </contour>
    <contour>
      <point x="380" y="267" type="line"/>
      <point x="563" y="389" type="line"/>
      <point x="543" y="267" type="line"/>
    </contour>
  </outline>
</glyph>
<glyph name="five" format="2">
  <advance width="1050"/>
  <unicode hex="0035"/>
  <outline>
    <contour>
      <point x="52" y="42" type="line"/>
      <point x="170" y="1"/>
      <point x="303" y="-10"/>
      <point x="446" y="-10" type="curve" smooth="yes"/>
      <point x="800" y="-10"/>
      <point x="936" y="87"/>
      <point x="936" y="256" type="curve" smooth="yes"/>
      <point x="936" y="390"/>
      <point x="837" y="443"/>
      <point x="593" y="443" type="curve" smooth="yes"/>
      <point x="415" y="443" type="line"/>
      <point x="428" y="490" type="line"/>
      <point x="915" y="490" type="line"/>
      <point x="951" y="700" type="line"/>
      <point x="281" y="700" type="line"/>
      <point x="145" y="274" type="line"/>
      <point x="154" y="267" type="line"/>
      <point x="504" y="267" type="line" smooth="yes"/>
      <point x="640" y="267"/>
      <point x="653" y="247"/>
      <point x="653" y="231" type="curve" smooth="yes"/>
      <point x="653" y="204"/>
      <point x="598" y="193"/>
      <point x="468" y="193" type="curve" smooth="yes"/>
      <point x="343" y="193"/>
      <point x="207" y="208"/>
      <point x="130" y="228" type="curve"/>
    </contour>
  </outline>
</glyph>
<glyph name="seven" format="2">
  <advance width="1050"/>
  <unicode hex="0037"/>
  <note>
9
</note>
  <outline>
    <contour>
      <point x="217" y="0" type="curve"/>
      <point x="518" y="0" type="line"/>
      <point x="542" y="99"/>
      <point x="610" y="195"/>
      <point x="764" y="339" type="curve" smooth="yes"/>
      <point x="966" y="526" type="line"/>
      <point x="994" y="700" type="line"/>
      <point x="186" y="700" type="line"/>
      <point x="152" y="490" type="line"/>
      <point x="614" y="490" type="line"/>
      <point x="439" y="334" type="line" smooth="yes"/>
      <point x="300" y="209"/>
      <point x="237" y="117"/>
    </contour>
  </outline>
</glyph>
<glyph name="eight" format="2">
  <advance width="1050"/>
  <unicode hex="0038"/>
  <outline>
    <contour>
      <point x="495" y="-10" type="curve" smooth="yes"/>
      <point x="759" y="-10"/>
      <point x="982" y="27"/>
      <point x="982" y="235" type="curve" smooth="yes"/>
      <point x="982" y="479"/>
      <point x="417" y="420"/>
      <point x="417" y="490" type="curve" smooth="yes"/>
      <point x="417" y="505"/>
      <point x="431" y="529"/>
      <point x="552" y="529" type="curve" smooth="yes"/>
      <point x="645" y="529"/>
      <point x="695" y="515"/>
      <point x="695" y="487" type="curve" smooth="yes"/>
      <point x="695" y="464"/>
      <point x="680" y="444"/>
      <point x="617" y="420" type="curve"/>
      <point x="823" y="366" type="line"/>
      <point x="897" y="391"/>
      <point x="954" y="451"/>
      <point x="954" y="528" type="curve" smooth="yes"/>
      <point x="954" y="641"/>
      <point x="832" y="710"/>
      <point x="569" y="710" type="curve" smooth="yes"/>
      <point x="336" y="710"/>
      <point x="147" y="655"/>
      <point x="147" y="461" type="curve" smooth="yes"/>
      <point x="147" y="183"/>
      <point x="670" y="267"/>
      <point x="670" y="193" type="curve" smooth="yes"/>
      <point x="670" y="166"/>
      <point x="614" y="157"/>
      <point x="517" y="157" type="curve" smooth="yes"/>
      <point x="386" y="157"/>
      <point x="339" y="178"/>
      <point x="339" y="212" type="curve" smooth="yes"/>
      <point x="339" y="238"/>
      <point x="357" y="261"/>
      <point x="432" y="275" type="curve"/>
      <point x="232" y="353" type="line"/>
      <point x="120" y="342"/>
      <point x="47" y="272"/>
      <point x="47" y="192" type="curve" smooth="yes"/>
      <point x="47" y="62"/>
      <point x="181" y="-10"/>
    </contour>
  </outline>
</glyph>
<glyph name="nine" format="2">
  <advance width="1050"/>
  <unicode hex="0039"/>
  <outline>
    <contour>
      <point x="558" y="710" type="curve" smooth="yes"/>
      <point x="244" y="710"/>
      <point x="99" y="628"/>
      <point x="99" y="450" type="curve" smooth="yes"/>
      <point x="99" y="332"/>
      <point x="211" y="256"/>
      <point x="433" y="256" type="curve" smooth="yes"/>
      <point x="535" y="256"/>
      <point x="648" y="268"/>
      <point x="732" y="302" type="curve"/>
      <point x="745" y="457" type="line"/>
      <point x="694" y="442"/>
      <point x="614" y="431"/>
      <point x="536" y="431" type="curve" smooth="yes"/>
      <point x="418" y="431"/>
      <point x="393" y="443"/>
      <point x="393" y="467" type="curve" smooth="yes"/>
      <point x="393" y="497"/>
      <point x="432" y="513"/>
      <point x="524" y="513" type="curve" smooth="yes"/>
      <point x="636" y="513"/>
      <point x="723" y="484"/>
      <point x="723" y="391" type="curve" smooth="yes"/>
      <point x="723" y="313"/>
      <point x="682" y="259"/>
      <point x="615" y="227" type="curve" smooth="yes"/>
      <point x="562" y="202"/>
      <point x="483" y="190"/>
      <point x="405" y="190" type="curve" smooth="yes"/>
      <point x="298" y="190"/>
      <point x="226" y="200"/>
      <point x="140" y="219" type="curve"/>
      <point x="70" y="31" type="line"/>
      <point x="136" y="9"/>
      <point x="256" y="-10"/>
      <point x="401" y="-10" type="curve" smooth="yes"/>
      <point x="734" y="-10"/>
      <point x="996" y="129"/>
      <point x="996" y="398" type="curve" smooth="yes"/>
      <point x="996" y="600"/>
      <point x="841" y="710"/>
    </contour>
  </outline>
</glyph>
<glyph name="equal" format="2">
  <advance width="743"/>
  <unicode hex="003D"/>
  <outline>
    <contour>
      <point x="685" y="295" type="line"/>
      <point x="65" y="295" type="line"/>
      <point x="31" y="90" type="line"/>
      <point x="651" y="90" type="line"/>
    </contour>
    <contour>
      <point x="726" y="547" type="line"/>
      <point x="105" y="547" type="line"/>
      <point x="72" y="342" type="line"/>
      <point x="692" y="342" type="line"/>
    </contour>
  </outline>
</glyph>
<glyph name="greater" format="2">
  <advance width="742"/>
  <unicode hex="003E"/>
  <outline>
    <contour>
      <point x="672" y="214" type="line"/>
      <point x="705" y="419" type="line"/>
      <point x="118" y="606" type="line"/>
      <point x="82" y="401" type="line"/>
      <point x="458" y="318" type="line"/>
      <point x="55" y="234" type="line"/>
      <point x="20" y="21" type="line"/>
    </contour>
  </outline>
</glyph>
<glyph name="question" format="2">
  <advance width="686"/>
  <unicode hex="003F"/>
  <outline>
    <contour>
      <point x="200" y="259" type="line"/>
      <point x="430" y="259" type="line"/>
      <point x="440" y="303" type="line"/>
      <point x="588" y="340"/>
      <point x="712" y="398"/>
      <point x="712" y="555" type="curve" smooth="yes"/>
      <point x="712" y="697"/>
      <point x="573" y="750"/>
      <point x="422" y="750" type="curve" smooth="yes"/>
      <point x="306" y="750"/>
      <point x="164" y="720"/>
      <point x="75" y="670" type="curve"/>
      <point x="104" y="477" type="line"/>
      <point x="192" y="515"/>
      <point x="268" y="535"/>
      <point x="348" y="535" type="curve" smooth="yes"/>
      <point x="396" y="535"/>
      <point x="420" y="526"/>
      <point x="420" y="506" type="curve" smooth="yes"/>
      <point x="420" y="480"/>
      <point x="403" y="468"/>
      <point x="222" y="435" type="curve"/>
    </contour>
    <contour>
      <point x="138" y="79" type="curve" smooth="yes"/>
      <point x="138" y="20"/>
      <point x="176" y="-10"/>
      <point x="272" y="-10" type="curve" smooth="yes"/>
      <point x="373" y="-10"/>
      <point x="442" y="26"/>
      <point x="442" y="130" type="curve" smooth="yes"/>
      <point x="442" y="189"/>
      <point x="404" y="219"/>
      <point x="309" y="219" type="curve" smooth="yes"/>
      <point x="203" y="219"/>
      <point x="138" y="178"/>
    </contour>
  </outline>
</glyph>
<glyph name="C" format="2">
  <advance width="989"/>
  <unicode hex="0043"/>
  <anchor x="518" y="0" name="bottom"/>
  <anchor x="610" y="700" name="top"/>
  <outline>
    <contour>
      <point x="570" y="-10" type="curve" smooth="yes"/>
      <point x="683" y="-10"/>
      <point x="787" y="3"/>
      <point x="917" y="28" type="curve"/>
      <point x="893" y="238" type="line"/>
      <point x="792" y="223"/>
      <point x="711" y="207"/>
      <point x="609" y="207" type="curve" smooth="yes"/>
      <point x="446" y="207"/>
      <point x="361" y="230"/>
      <point x="361" y="335" type="curve" smooth="yes"/>
      <point x="361" y="447"/>
      <point x="442" y="493"/>
      <point x="592" y="493" type="curve" smooth="yes"/>
      <point x="699" y="493"/>
      <point x="832" y="466"/>
      <point x="910" y="446" type="curve"/>
      <point x="971" y="652" type="line"/>
      <point x="836" y="698"/>
      <point x="700" y="710"/>
      <point x="567" y="710" type="curve" smooth="yes"/>
      <point x="244" y="710"/>
      <point x="49" y="567"/>
      <point x="49" y="307" type="curve" smooth="yes"/>
      <point x="49" y="78"/>
      <point x="218" y="-10"/>
    </contour>
  </outline>
</glyph>
<glyph name="D" format="2">
  <advance width="1082"/>
  <unicode hex="0044"/>
  <anchor x="490" y="0" name="bottom"/>
  <anchor x="555.879" y="350" name="center"/>
  <anchor x="529" y="700" name="top"/>
  <outline>
    <contour>
      <point x="495" y="-10" type="curve" smooth="yes"/>
      <point x="859" y="-10"/>
      <point x="1055" y="121"/>
      <point x="1055" y="383" type="curve" smooth="yes"/>
      <point x="1055" y="594"/>
      <point x="912" y="710"/>
      <point x="547" y="710" type="curve" smooth="yes"/>
      <point x="434" y="710"/>
      <point x="302" y="707"/>
      <point x="143" y="700" type="curve"/>
      <point x="28" y="0" type="line"/>
      <point x="165" y="-6"/>
      <point x="290" y="-10"/>
    </contour>
    <contour>
      <point x="523" y="184" type="curve" smooth="yes"/>
      <point x="448" y="184"/>
      <point x="419" y="187"/>
      <point x="359" y="189" type="curve"/>
      <point x="412" y="513" type="line"/>
      <point x="449" y="516"/>
      <point x="491" y="517"/>
      <point x="562" y="517" type="curve" smooth="yes"/>
      <point x="689" y="517"/>
      <point x="747" y="456"/>
      <point x="747" y="368" type="curve" smooth="yes"/>
      <point x="747" y="251"/>
      <point x="670" y="184"/>
    </contour>
  </outline>
</glyph>
<glyph name="H" format="2">
  <advance width="1080"/>
  <unicode hex="0048"/>
  <anchor x="496.444" y="0" name="bottom"/>
  <anchor x="551.879" y="350" name="center"/>
  <anchor x="607.313" y="700" name="top"/>
  <anchor x="87.313" y="700" name="topleft"/>
  <outline>
    <contour>
      <point x="28" y="0" type="line"/>
      <point x="328" y="0" type="line"/>
      <point x="362" y="215" type="line"/>
      <point x="705" y="215" type="line"/>
      <point x="669" y="0" type="line"/>
      <point x="960" y="0" type="line"/>
      <point x="1075" y="700" type="line"/>
      <point x="785" y="700" type="line"/>
      <point x="742" y="446" type="line"/>
      <point x="399" y="446" type="line"/>
      <point x="443" y="700" type="line"/>
      <point x="143" y="700" type="line"/>
    </contour>
  </outline>
</glyph>
<glyph name="L" format="2">
  <advance width="908"/>
  <unicode hex="004C"/>
  <anchor x="428" y="0" name="bottom"/>
  <anchor x="465.879" y="350" name="center"/>
  <anchor x="293" y="700" name="top"/>
  <anchor x="585" y="700" name="topright"/>
  <outline>
    <contour>
      <point x="28" y="0" type="line"/>
      <point x="828" y="0" type="line"/>
      <point x="868" y="225" type="line"/>
      <point x="366" y="225" type="line"/>
      <point x="443" y="700" type="line"/>
      <point x="143" y="700" type="line"/>
    </contour>
  </outline>
</glyph>
<glyph name="M" format="2">
  <advance width="1162"/>
  <unicode hex="004D"/>
  <outline>
    <contour>
      <point x="28" y="0" type="line"/>
      <point x="309" y="0" type="line"/>
      <point x="364" y="358" type="line"/>
      <point x="484" y="90" type="line"/>
      <point x="614" y="90" type="line"/>
      <point x="827" y="372" type="line"/>
      <point x="765" y="0" type="line"/>
      <point x="1042" y="0" type="line"/>
      <point x="1157" y="700" type="line"/>
      <point x="850" y="700" type="line"/>
      <point x="584" y="340" type="line"/>
      <point x="432" y="700" type="line"/>
      <point x="143" y="700" type="line"/>
    </contour>
  </outline>
</glyph>
<glyph name="N" format="2">
  <advance width="1005"/>
  <unicode hex="004E"/>
  <anchor x="459.444" y="0" name="bottom"/>
  <anchor x="570.313" y="700" name="top"/>
  <outline>
    <contour>
      <point x="28" y="0" type="line"/>
      <point x="299" y="0" type="line"/>
      <point x="354" y="336" type="line"/>
      <point x="627" y="0" type="line"/>
      <point x="884" y="0" type="line"/>
      <point x="1000" y="700" type="line"/>
      <point x="729" y="700" type="line"/>
      <point x="670" y="344" type="line"/>
      <point x="401" y="700" type="line"/>
      <point x="144" y="700" type="line"/>
    </contour>
  </outline>
</glyph>
<glyph name="P" format="2">
  <advance width="1065"/>
  <unicode hex="0050"/>
  <outline>
    <contour>
      <point x="28" y="0" type="line"/>
      <point x="327" y="0" type="line"/>
      <point x="356" y="167" type="line"/>
      <point x="450" y="163"/>
      <point x="480" y="162"/>
      <point x="518" y="162" type="curve" smooth="yes"/>
      <point x="937" y="162"/>
      <point x="1071" y="235"/>
      <point x="1071" y="464" type="curve" smooth="yes"/>
      <point x="1071" y="653"/>
      <point x="934" y="710"/>
      <point x="579" y="710" type="curve" smooth="yes"/>
      <point x="520" y="710"/>
      <point x="381" y="707"/>
      <point x="144" y="700" type="curve"/>
    </contour>
    <contour>
      <point x="411" y="501" type="line"/>
      <point x="516" y="505"/>
      <point x="527" y="505"/>
      <point x="600" y="505" type="curve" smooth="yes"/>
      <point x="723" y="505"/>
      <point x="759" y="485"/>
      <point x="759" y="448" type="curve" smooth="yes"/>
      <point x="759" y="389"/>
      <point x="728" y="371"/>
      <point x="504" y="371" type="curve" smooth="yes"/>
      <point x="474" y="371"/>
      <point x="455" y="372"/>
      <point x="391" y="376" type="curve"/>
    </contour>
  </outline>
</glyph>
<glyph name="Q" format="2">
  <advance width="1080"/>
  <unicode hex="0051"/>
  <note>
14
</note>
  <outline>
    <contour>
      <point x="789" y="-212" type="curve" smooth="yes"/>
      <point x="834" y="-212"/>
      <point x="882" y="-205"/>
      <point x="936" y="-190" type="curve"/>
      <point x="936" y="17" type="line"/>
      <point x="922" y="12"/>
      <point x="905" y="10"/>
      <point x="885" y="10" type="curve" smooth="yes"/>
      <point x="852" y="10"/>
      <point x="805" y="22"/>
      <point x="781" y="50" type="curve"/>
      <point x="505" y="8" type="line"/>
      <point x="557" y="-140"/>
      <point x="652" y="-212"/>
    </contour>
    <contour>
      <point x="528" y="-10" type="curve" smooth="yes"/>
      <point x="864" y="-10"/>
      <point x="1055" y="133"/>
      <point x="1055" y="400" type="curve" smooth="yes"/>
      <point x="1055" y="606"/>
      <point x="906" y="710"/>
      <point x="575" y="710" type="curve" smooth="yes"/>
      <point x="239" y="710"/>
      <point x="48" y="567"/>
      <point x="48" y="300" type="curve" smooth="yes"/>
      <point x="48" y="94"/>
      <point x="197" y="-10"/>
    </contour>
    <contour>
      <point x="542" y="186" type="curve" smooth="yes"/>
      <point x="408" y="186"/>
      <point x="352" y="229"/>
      <point x="352" y="325" type="curve" smooth="yes"/>
      <point x="352" y="440"/>
      <point x="432" y="514"/>
      <point x="561" y="514" type="curve" smooth="yes"/>
      <point x="695" y="514"/>
      <point x="751" y="471"/>
      <point x="751" y="375" type="curve" smooth="yes"/>
      <point x="751" y="260"/>
      <point x="671" y="186"/>
    </contour>
  </outline>
</glyph>
<glyph name="S" format="2">
  <advance width="980"/>
  <unicode hex="0053"/>
  <anchor x="495" y="0" name="bottom"/>
  <anchor x="551" y="700" name="top"/>
  <outline>
    <contour>
      <point x="959" y="657" type="line"/>
      <point x="838" y="692"/>
      <point x="710" y="710"/>
      <point x="577" y="710" type="curve" smooth="yes"/>
      <point x="197" y="710"/>
      <point x="60" y="615"/>
      <point x="60" y="448" type="curve" smooth="yes"/>
      <point x="60" y="160"/>
      <point x="611" y="269"/>
      <point x="611" y="209" type="curve" smooth="yes"/>
      <point x="611" y="194"/>
      <point x="589" y="182"/>
      <point x="515" y="182" type="curve" smooth="yes"/>
      <point x="344" y="182"/>
      <point x="194" y="208"/>
      <point x="50" y="252" type="curve"/>
      <point x="-27" y="56" type="line"/>
      <point x="102" y="20"/>
      <point x="260" y="-10"/>
      <point x="445" y="-10" type="curve" smooth="yes"/>
      <point x="827" y="-10"/>
      <point x="958" y="89"/>
      <point x="958" y="255" type="curve" smooth="yes"/>
      <point x="958" y="530"/>
      <point x="401" y="429"/>
      <point x="401" y="486" type="curve" smooth="yes"/>
      <point x="401" y="501"/>
      <point x="414" y="513"/>
      <point x="515" y="513" type="curve" smooth="yes"/>
      <point x="656" y="513"/>
      <point x="784" y="499"/>
      <point x="890" y="467" type="curve"/>
    </contour>
  </outline>
</glyph>
<glyph name="T" format="2">
  <advance width="1004"/>
  <unicode hex="0054"/>
  <anchor x="458" y="0" name="bottom"/>
  <anchor x="514" y="350" name="center"/>
  <anchor x="569" y="700" name="top"/>
  <outline>
    <contour>
      <point x="1008" y="490" type="line"/>
      <point x="1047" y="700" type="line"/>
      <point x="98" y="700" type="line"/>
      <point x="58" y="490" type="line"/>
      <point x="384" y="490" type="line"/>
      <point x="307" y="0" type="line"/>
      <point x="607" y="0" type="line"/>
      <point x="683" y="490" type="line"/>
    </contour>
  </outline>
</glyph>
<glyph name="U" format="2">
  <advance width="1063"/>
  <unicode hex="0055"/>
  <anchor x="488.444" y="0" name="bottom"/>
  <anchor x="633" y="0" name="ogonek"/>
  <anchor x="599.313" y="700" name="top"/>
  <anchor x="1064" y="700" name="topright"/>
  <outline>
    <contour>
      <point x="483" y="-10" type="curve" smooth="yes"/>
      <point x="799" y="-10"/>
      <point x="965" y="87"/>
      <point x="999" y="292" type="curve" smooth="yes"/>
      <point x="1066" y="700" type="line"/>
      <point x="773" y="700" type="line"/>
      <point x="711" y="324" type="line" smooth="yes"/>
      <point x="699" y="247"/>
      <point x="634" y="207"/>
      <point x="521" y="207" type="curve" smooth="yes"/>
      <point x="406" y="207"/>
      <point x="350" y="248"/>
      <point x="363" y="324" type="curve" smooth="yes"/>
      <point x="427" y="700" type="line"/>
      <point x="134" y="700" type="line"/>
      <point x="67" y="292" type="line" smooth="yes"/>
      <point x="63" y="263"/>
      <point x="62" y="247"/>
      <point x="62" y="232" type="curve" smooth="yes"/>
      <point x="62" y="68"/>
      <point x="198" y="-10"/>
    </contour>
  </outline>
</glyph>
<glyph name="V" format="2">
  <advance width="943"/>
  <unicode hex="0056"/>
  <outline>
    <contour>
      <point x="579" y="0" type="line"/>
      <point x="894" y="438"/>
      <point x="980" y="582"/>
      <point x="1004" y="677" type="curve" smooth="yes"/>
      <point x="1006" y="685"/>
      <point x="1007" y="692"/>
      <point x="1008" y="700" type="curve"/>
      <point x="670" y="700" type="line"/>
      <point x="670" y="697"/>
      <point x="671" y="693"/>
      <point x="671" y="680" type="curve" smooth="yes"/>
      <point x="671" y="548"/>
      <point x="544" y="343"/>
      <point x="476" y="233" type="curve"/>
      <point x="383" y="700" type="line"/>
      <point x="62" y="700" type="line"/>
      <point x="281" y="0" type="line"/>
    </contour>
  </outline>
</glyph>
<glyph name="W" format="2">
  <advance width="1167"/>
  <unicode hex="0057"/>
  <anchor x="528" y="0" name="bottom"/>
  <anchor x="658" y="700" name="top"/>
  <outline>
    <contour>
      <point x="942" y="0" type="line"/>
      <point x="1114" y="258"/>
      <point x="1216" y="575"/>
      <point x="1216" y="680" type="curve" smooth="yes"/>
      <point x="1216" y="688"/>
      <point x="1215" y="698"/>
      <point x="1215" y="700" type="curve"/>
      <point x="938" y="700" type="line"/>
      <point x="937" y="691"/>
      <point x="936" y="681"/>
      <point x="935" y="672" type="curve" smooth="yes"/>
      <point x="918" y="517"/>
      <point x="864" y="350"/>
      <point x="803" y="224" type="curve"/>
      <point x="824" y="662" type="line"/>
      <point x="477" y="662" type="line"/>
      <point x="448" y="518"/>
      <point x="410" y="392"/>
      <point x="349" y="225" type="curve"/>
      <point x="365" y="700" type="line"/>
      <point x="67" y="700" type="line"/>
      <point x="132" y="0" type="line"/>
      <point x="438" y="0" type="line"/>
      <point x="502" y="119"/>
      <point x="569" y="241"/>
      <point x="612" y="371" type="curve"/>
      <point x="604" y="0" type="line"/>
    </contour>
  </outline>
</glyph>
<glyph name="X" format="2">
  <advance width="934"/>
  <unicode hex="0058"/>
  <outline>
    <contour>
      <point x="517" y="0" type="line"/>
      <point x="882" y="0" type="line"/>
      <point x="690" y="353" type="line"/>
      <point x="823" y="480"/>
      <point x="943" y="589"/>
      <point x="975" y="700" type="curve"/>
      <point x="616" y="700" type="line"/>
      <point x="611" y="618"/>
      <point x="569" y="559"/>
      <point x="489" y="461" type="curve"/>
      <point x="439" y="700" type="line"/>
      <point x="83" y="700" type="line"/>
      <point x="257" y="355" type="line"/>
      <point x="137" y="236"/>
      <point x="3" y="85"/>
      <point x="-21" y="0" type="curve"/>
      <point x="328" y="0" type="line"/>
      <point x="336" y="61"/>
      <point x="395" y="153"/>
      <point x="457" y="246" type="curve"/>
    </contour>
  </outline>
</glyph>
<glyph name="bracketleft" format="2">
  <advance width="500"/>
  <unicode hex="005B"/>
  <outline>
    <contour>
      <point x="236" y="-52" type="line"/>
      <point x="337" y="582" type="line"/>
      <point x="512" y="582" type="line"/>
      <point x="537" y="740" type="line"/>
      <point x="155" y="740" type="line"/>
      <point x="5" y="-210" type="line"/>
      <point x="386" y="-210" type="line"/>
      <point x="411" y="-52" type="line"/>
    </contour>
  </outline>
</glyph>
<glyph name="asciicircum" format="2">
  <advance width="738"/>
  <unicode hex="005E"/>
  <outline>
    <contour>
      <point x="30" y="202" type="line"/>
      <point x="249" y="202" type="line"/>
      <point x="393" y="459" type="line"/>
      <point x="465" y="202" type="line"/>
      <point x="684" y="202" type="line"/>
      <point x="550" y="700" type="line"/>
      <point x="326" y="700" type="line"/>
    </contour>
  </outline>
</glyph>
<glyph name="h" format="2">
  <advance width="854"/>
  <unicode hex="0068"/>
  <note>
16
</note>
  <anchor x="399" y="0" name="bottom"/>
  <anchor x="451.006" y="395" name="center"/>
  <anchor x="487" y="740" name="top"/>
  <outline>
    <contour>
      <point x="782" y="209" type="curve" smooth="yes"/>
      <point x="782" y="246"/>
      <point x="808" y="354"/>
      <point x="808" y="396" type="curve" smooth="yes"/>
      <point x="808" y="482"/>
      <point x="748" y="560"/>
      <point x="599" y="560" type="curve" smooth="yes"/>
      <point x="523" y="560"/>
      <point x="470" y="544"/>
      <point x="379" y="500" type="curve"/>
      <point x="417" y="740" type="line"/>
      <point x="133" y="740" type="line"/>
      <point x="14" y="0" type="line"/>
      <point x="299" y="0" type="line"/>
      <point x="352" y="333" type="line"/>
      <point x="389" y="348"/>
      <point x="430" y="359"/>
      <point x="458" y="359" type="curve" smooth="yes"/>
      <point x="496" y="359"/>
      <point x="513" y="341"/>
      <point x="513" y="311" type="curve" smooth="yes"/>
      <point x="513" y="284"/>
      <point x="488" y="156"/>
      <point x="488" y="130" type="curve" smooth="yes"/>
      <point x="488" y="35"/>
      <point x="573" y="-10"/>
      <point x="681" y="-10" type="curve" smooth="yes"/>
      <point x="729" y="-10"/>
      <point x="787" y="-6"/>
      <point x="822" y="0" type="curve"/>
      <point x="822" y="191" type="line"/>
      <point x="816" y="190"/>
      <point x="806" y="189"/>
      <point x="800" y="189" type="curve" smooth="yes"/>
      <point x="787" y="189"/>
      <point x="782" y="198"/>
    </contour>
  </outline>
</glyph>
<glyph name="i" format="2">
  <advance width="402"/>
  <unicode hex="0069"/>
  <note>
Ajuster pts sur points
8
</note>
  <anchor x="157.444" y="0" name="bottom"/>
  <anchor x="300" y="0" name="ogonek"/>
  <anchor x="244.556" y="550" name="top"/>
  <outline>
    <contour>
      <point x="15" y="0" type="line"/>
      <point x="300" y="0" type="line"/>
      <point x="386" y="550" type="line"/>
      <point x="103" y="550" type="line"/>
    </contour>
    <contour>
      <point x="280" y="790" type="curve" smooth="yes"/>
      <point x="153" y="790"/>
      <point x="91" y="749"/>
      <point x="91" y="663" type="curve" smooth="yes"/>
      <point x="91" y="605"/>
      <point x="136" y="570"/>
      <point x="243" y="570" type="curve" smooth="yes"/>
      <point x="342" y="570"/>
      <point x="431" y="597"/>
      <point x="431" y="698" type="curve" smooth="yes"/>
      <point x="431" y="755"/>
      <point x="386" y="790"/>
    </contour>
  </outline>
</glyph>
<glyph name="l" format="2">
  <advance width="504"/>
  <unicode hex="006C"/>
  <anchor x="231" y="0" name="bottom"/>
  <anchor x="274.006" y="395" name="center"/>
  <anchor x="274" y="740" name="top"/>
  <anchor x="446" y="740" name="topright"/>
  <outline>
    <contour>
      <point x="132" y="740" type="line"/>
      <point x="53" y="244" type="line" smooth="yes"/>
      <point x="48" y="210"/>
      <point x="44" y="180"/>
      <point x="44" y="153" type="curve" smooth="yes"/>
      <point x="44" y="34"/>
      <point x="104" y="-10"/>
      <point x="228" y="-10" type="curve" smooth="yes"/>
      <point x="312" y="-10"/>
      <point x="393" y="4"/>
      <point x="468" y="25" type="curve"/>
      <point x="468" y="227" type="line"/>
      <point x="425" y="218"/>
      <point x="401" y="213"/>
      <point x="376" y="213" type="curve" smooth="yes"/>
      <point x="352" y="213"/>
      <point x="338" y="220"/>
      <point x="338" y="241" type="curve" smooth="yes"/>
      <point x="338" y="246"/>
      <point x="338" y="252"/>
      <point x="340" y="262" type="curve" smooth="yes"/>
      <point x="416" y="740" type="line"/>
    </contour>
  </outline>
</glyph>
<glyph name="m" format="2">
  <advance width="1237"/>
  <unicode hex="006D"/>
  <note>
24&gt;23 points
un point de trop dans la jointure avec 2e jambage
</note>
  <outline>
    <contour>
      <point x="1064" y="-10" type="curve" smooth="yes"/>
      <point x="1112" y="-10"/>
      <point x="1170" y="-6"/>
      <point x="1205" y="0" type="curve"/>
      <point x="1205" y="191" type="line"/>
      <point x="1199" y="190"/>
      <point x="1189" y="189"/>
      <point x="1183" y="189" type="curve" smooth="yes"/>
      <point x="1170" y="189"/>
      <point x="1165" y="198"/>
      <point x="1165" y="209" type="curve" smooth="yes"/>
      <point x="1165" y="246"/>
      <point x="1191" y="354"/>
      <point x="1191" y="396" type="curve" smooth="yes"/>
      <point x="1191" y="482"/>
      <point x="1126" y="560"/>
      <point x="977" y="560" type="curve" smooth="yes"/>
      <point x="881" y="560"/>
      <point x="834" y="531"/>
      <point x="745" y="475" type="curve"/>
      <point x="724" y="523"/>
      <point x="681" y="560"/>
      <point x="581" y="560" type="curve" smooth="yes"/>
      <point x="513" y="560"/>
      <point x="443" y="536"/>
      <point x="347" y="486" type="curve"/>
      <point x="357" y="550" type="line"/>
      <point x="102" y="550" type="line"/>
      <point x="15" y="0" type="line"/>
      <point x="299" y="0" type="line"/>
      <point x="352" y="342" type="line"/>
      <point x="379" y="353"/>
      <point x="401" y="359"/>
      <point x="420" y="359" type="curve" smooth="yes"/>
      <point x="456" y="359"/>
      <point x="478" y="340"/>
      <point x="478" y="302" type="curve" smooth="yes"/>
      <point x="478" y="282"/>
      <point x="452" y="118"/>
      <point x="433" y="0" type="curve"/>
      <point x="713" y="0" type="line"/>
      <point x="729" y="99"/>
      <point x="745" y="199"/>
      <point x="761" y="298" type="curve"/>
      <point x="762" y="303"/>
      <point x="766" y="331"/>
      <point x="767" y="334" type="curve"/>
      <point x="797" y="351"/>
      <point x="818" y="356"/>
      <point x="839" y="356" type="curve" smooth="yes"/>
      <point x="879" y="356"/>
      <point x="895" y="337"/>
      <point x="895" y="306" type="curve" smooth="yes"/>
      <point x="895" y="280"/>
      <point x="871" y="158"/>
      <point x="871" y="130" type="curve" smooth="yes"/>
      <point x="871" y="35"/>
      <point x="956" y="-10"/>
    </contour>
  </outline>
</glyph>
<glyph name="p" format="2">
  <advance width="882"/>
  <unicode hex="0070"/>
  <note>
14 point
</note>
  <outline>
    <contour>
      <point x="-18" y="-210" type="line"/>
      <point x="264" y="-210" type="line"/>
      <point x="299" y="1" type="line"/>
      <point x="330" y="-5"/>
      <point x="378" y="-10"/>
      <point x="424" y="-10" type="curve" smooth="yes"/>
      <point x="723" y="-10"/>
      <point x="856" y="104"/>
      <point x="856" y="338" type="curve" smooth="yes"/>
      <point x="856" y="466"/>
      <point x="785" y="560"/>
      <point x="631" y="560" type="curve" smooth="yes"/>
      <point x="526" y="560"/>
      <point x="447" y="537"/>
      <point x="348" y="485" type="curve"/>
      <point x="360" y="550" type="line"/>
      <point x="102" y="550" type="line"/>
    </contour>
    <contour>
      <point x="433" y="164" type="curve" smooth="yes"/>
      <point x="395" y="164"/>
      <point x="358" y="170"/>
      <point x="327" y="179" type="curve"/>
      <point x="350" y="327" type="line"/>
      <point x="391" y="340"/>
      <point x="443" y="355"/>
      <point x="488" y="355" type="curve" smooth="yes"/>
      <point x="535" y="355"/>
      <point x="570" y="335"/>
      <point x="570" y="280" type="curve" smooth="yes"/>
      <point x="570" y="204"/>
      <point x="503" y="164"/>
    </contour>
  </outline>
</glyph>
<glyph name="q" format="2">
  <advance width="883"/>
  <unicode hex="0071"/>
  <note>
12
</note>
  <outline>
    <contour>
      <point x="863" y="518" type="line"/>
      <point x="765" y="542"/>
      <point x="604" y="560"/>
      <point x="458" y="560" type="curve" smooth="yes"/>
      <point x="162" y="560"/>
      <point x="27" y="447"/>
      <point x="27" y="228" type="curve" smooth="yes"/>
      <point x="27" y="86"/>
      <point x="114" y="-10"/>
      <point x="291" y="-10" type="curve" smooth="yes"/>
      <point x="364" y="-10"/>
      <point x="423" y="12"/>
      <point x="506" y="61" type="curve"/>
      <point x="463" y="-210" type="line"/>
      <point x="746" y="-210" type="line"/>
    </contour>
    <contour>
      <point x="554" y="365" type="curve"/>
      <point x="530" y="214" type="line"/>
      <point x="493" y="200"/>
      <point x="444" y="186"/>
      <point x="402" y="186" type="curve" smooth="yes"/>
      <point x="353" y="186"/>
      <point x="311" y="213"/>
      <point x="311" y="268" type="curve" smooth="yes"/>
      <point x="311" y="340"/>
      <point x="369" y="377"/>
      <point x="458" y="377" type="curve" smooth="yes"/>
      <point x="491" y="377"/>
      <point x="525" y="374"/>
    </contour>
  </outline>
</glyph>
<glyph name="r" format="2">
  <advance width="621"/>
  <unicode hex="0072"/>
  <anchor x="150" y="0" name="bottom"/>
  <anchor x="372" y="550" name="top"/>
  <outline>
    <contour>
      <point x="355" y="550" type="line"/>
      <point x="104" y="550" type="line"/>
      <point x="14" y="0" type="line"/>
      <point x="299" y="0" type="line"/>
      <point x="349" y="307" type="line"/>
      <point x="405" y="329"/>
      <point x="445" y="335"/>
      <point x="482" y="335" type="curve" smooth="yes"/>
      <point x="517" y="335"/>
      <point x="547" y="329"/>
      <point x="587" y="320" type="curve"/>
      <point x="661" y="547" type="line"/>
      <point x="629" y="555"/>
      <point x="596" y="560"/>
      <point x="566" y="560" type="curve" smooth="yes"/>
      <point x="490" y="560"/>
      <point x="441" y="535"/>
      <point x="342" y="465" type="curve"/>
    </contour>
  </outline>
</glyph>
<glyph name="y" format="2">
  <advance width="765"/>
  <unicode hex="0079"/>
  <anchor x="669" y="0" name="bottom"/>
  <anchor x="413" y="550" name="top"/>
  <outline>
    <contour>
      <point x="505" y="550" type="line"/>
      <point x="471" y="414"/>
      <point x="430" y="291"/>
      <point x="362" y="179" type="curve"/>
      <point x="314" y="550" type="line"/>
      <point x="26" y="550" type="line"/>
      <point x="127" y="0" type="line"/>
      <point x="247" y="0" type="line"/>
      <point x="193" y="-70"/>
      <point x="124" y="-140"/>
      <point x="50" y="-210" type="curve"/>
      <point x="359" y="-210" type="line"/>
      <point x="566" y="8"/>
      <point x="756" y="337"/>
      <point x="791" y="550" type="curve"/>
    </contour>
  </outline>
</glyph>
<glyph name="bar" format="2">
  <advance width="344"/>
  <unicode hex="007C"/>
  <outline>
    <contour>
      <point x="361" y="790" type="line"/>
      <point x="150" y="790" type="line"/>
      <point x="-12" y="-210" type="line"/>
      <point x="198" y="-210" type="line"/>
    </contour>
  </outline>
</glyph>
<glyph name="braceright" format="2">
  <advance width="500"/>
  <unicode hex="007D"/>
  <outline>
    <contour>
      <point x="445" y="597" type="curve" smooth="yes"/>
      <point x="445" y="701"/>
      <point x="359" y="740"/>
      <point x="253" y="740" type="curve" smooth="yes"/>
      <point x="111" y="740" type="line"/>
      <point x="86" y="582" type="line"/>
      <point x="153" y="582" type="line" smooth="yes"/>
      <point x="185" y="582"/>
      <point x="200" y="569"/>
      <point x="200" y="544" type="curve" smooth="yes"/>
      <point x="200" y="481"/>
      <point x="136" y="436"/>
      <point x="136" y="362" type="curve" smooth="yes"/>
      <point x="136" y="326"/>
      <point x="152" y="294"/>
      <point x="213" y="265" type="curve"/>
      <point x="140" y="232"/>
      <point x="97" y="192"/>
      <point x="97" y="122" type="curve" smooth="yes"/>
      <point x="97" y="83"/>
      <point x="116" y="65"/>
      <point x="116" y="11" type="curve" smooth="yes"/>
      <point x="116" y="-28"/>
      <point x="90" y="-52"/>
      <point x="52" y="-52" type="curve" smooth="yes"/>
      <point x="-15" y="-52" type="line"/>
      <point x="-40" y="-210" type="line"/>
      <point x="102" y="-210" type="line" smooth="yes"/>
      <point x="246" y="-210"/>
      <point x="350" y="-133"/>
      <point x="350" y="8" type="curve" smooth="yes"/>
      <point x="350" y="62"/>
      <point x="332" y="97"/>
      <point x="332" y="128" type="curve" smooth="yes"/>
      <point x="332" y="168"/>
      <point x="355" y="187"/>
      <point x="389" y="187" type="curve" smooth="yes"/>
      <point x="405" y="187" type="line"/>
      <point x="430" y="343" type="line"/>
      <point x="414" y="343" type="line" smooth="yes"/>
      <point x="382" y="343"/>
      <point x="371" y="354"/>
      <point x="371" y="376" type="curve" smooth="yes"/>
      <point x="371" y="429"/>
      <point x="445" y="500"/>
    </contour>
  </outline>
</glyph>
<glyph name="yen" format="2">
  <advance width="1050"/>
  <unicode hex="00A5"/>
  <outline>
    <contour>
      <point x="155" y="308" type="line"/>
      <point x="370" y="308" type="line"/>
      <point x="362" y="258" type="line"/>
      <point x="147" y="258" type="line"/>
      <point x="133" y="167" type="line"/>
      <point x="348" y="167" type="line"/>
      <point x="321" y="0" type="line"/>
      <point x="632" y="0" type="line"/>
      <point x="659" y="167" type="line"/>
      <point x="886" y="167" type="line"/>
      <point x="900" y="258" type="line"/>
      <point x="673" y="258" type="line"/>
      <point x="681" y="308" type="line"/>
      <point x="908" y="308" type="line"/>
      <point x="922" y="399" type="line"/>
      <point x="695" y="399" type="line"/>
      <point x="1029" y="700" type="line"/>
      <point x="713" y="700" type="line"/>
      <point x="562" y="540" type="line"/>
      <point x="453" y="700" type="line"/>
      <point x="145" y="700" type="line"/>
      <point x="384" y="399" type="line"/>
      <point x="170" y="399" type="line"/>
    </contour>
  </outline>
</glyph>
<glyph name="brokenbar" format="2">
  <advance width="344"/>
  <unicode hex="00A6"/>
  <outline>
    <contour>
      <point x="296" y="391" type="line"/>
      <point x="361" y="790" type="line"/>
      <point x="150" y="790" type="line"/>
      <point x="85" y="391" type="line"/>
    </contour>
    <contour>
      <point x="53" y="190" type="line"/>
      <point x="-12" y="-210" type="line"/>
      <point x="198" y="-210" type="line"/>
      <point x="263" y="190" type="line"/>
    </contour>
  </outline>
</glyph>
<glyph name="section" format="2">
  <advance width="715"/>
  <unicode hex="00A7"/>
  <outline>
    <contour>
      <point x="41" y="15" type="curve"/>
      <point x="-42" y="-194" type="line"/>
      <point x="37" y="-208"/>
      <point x="115" y="-220"/>
      <point x="189" y="-220" type="curve" smooth="yes"/>
      <point x="449" y="-220"/>
      <point x="669" y="-82"/>
      <point x="669" y="175" type="curve" smooth="yes"/>
      <point x="669" y="350"/>
      <point x="538" y="413"/>
      <point x="538" y="471" type="curve" smooth="yes"/>
      <point x="538" y="517"/>
      <point x="571" y="523"/>
      <point x="600" y="523" type="curve" smooth="yes"/>
      <point x="612" y="523"/>
      <point x="626" y="520"/>
      <point x="641" y="515" type="curve"/>
      <point x="704" y="738" type="line"/>
      <point x="645" y="745"/>
      <point x="583" y="750"/>
      <point x="522" y="750" type="curve" smooth="yes"/>
      <point x="251" y="750"/>
      <point x="49" y="609"/>
      <point x="49" y="396" type="curve" smooth="yes"/>
      <point x="49" y="199"/>
      <point x="188" y="132"/>
      <point x="188" y="45" type="curve" smooth="yes"/>
      <point x="188" y="19"/>
      <point x="177" y="0"/>
      <point x="141" y="0" type="curve" smooth="yes"/>
      <point x="116" y="0"/>
      <point x="83" y="5"/>
    </contour>
    <contour>
      <point x="422" y="601" type="curve"/>
      <point x="347" y="566"/>
      <point x="326" y="508"/>
      <point x="326" y="444" type="curve" smooth="yes"/>
      <point x="326" y="342"/>
      <point x="443" y="208"/>
      <point x="443" y="107" type="curve" smooth="yes"/>
      <point x="443" y="0"/>
      <point x="366" y="-87"/>
      <point x="247" y="-93" type="curve"/>
      <point x="339" y="-69"/>
      <point x="401" y="2"/>
      <point x="401" y="86" type="curve" smooth="yes"/>
      <point x="401" y="186"/>
      <point x="284" y="320"/>
      <point x="284" y="428" type="curve" smooth="yes"/>
      <point x="284" y="517"/>
      <point x="323" y="583"/>
    </contour>
  </outline>
</glyph>
<glyph name="copyright" format="2">
  <advance width="911"/>
  <unicode hex="00A9"/>
  <outline>
    <contour>
      <point x="440" y="-10" type="curve" smooth="yes"/>
      <point x="699" y="-13"/>
      <point x="872" y="138"/>
      <point x="872" y="384" type="curve" smooth="yes"/>
      <point x="872" y="576"/>
      <point x="735" y="707"/>
      <point x="495" y="710" type="curve" smooth="yes"/>
      <point x="236" y="713"/>
      <point x="63" y="562"/>
      <point x="63" y="316" type="curve" smooth="yes"/>
      <point x="63" y="124"/>
      <point x="200" y="-7"/>
    </contour>
    <contour>
      <point x="449" y="176" type="curve" smooth="yes"/>
      <point x="527" y="176"/>
      <point x="596" y="192"/>
      <point x="648" y="211" type="curve"/>
      <point x="636" y="307" type="line"/>
      <point x="581" y="293"/>
      <point x="525" y="284"/>
      <point x="482" y="284" type="curve" smooth="yes"/>
      <point x="414" y="284"/>
      <point x="385" y="305"/>
      <point x="385" y="350" type="curve" smooth="yes"/>
      <point x="385" y="400"/>
      <point x="418" y="419"/>
      <point x="497" y="419" type="curve" smooth="yes"/>
      <point x="546" y="419"/>
      <point x="589" y="415"/>
      <point x="640" y="406" type="curve"/>
      <point x="665" y="509" type="line"/>
      <point x="618" y="521"/>
      <point x="562" y="528"/>
      <point x="501" y="528" type="curve" smooth="yes"/>
      <point x="344" y="528"/>
      <point x="242" y="472"/>
      <point x="242" y="339" type="curve" smooth="yes"/>
      <point x="242" y="235"/>
      <point x="322" y="176"/>
    </contour>
    <contour>
      <point x="453" y="79" type="curve" smooth="yes"/>
      <point x="258" y="79"/>
      <point x="167" y="169"/>
      <point x="167" y="327" type="curve" smooth="yes"/>
      <point x="167" y="513"/>
      <point x="284" y="621"/>
      <point x="482" y="621" type="curve" smooth="yes"/>
      <point x="667" y="621"/>
      <point x="768" y="531"/>
      <point x="768" y="373" type="curve" smooth="yes"/>
      <point x="768" y="187"/>
      <point x="651" y="79"/>
    </contour>
  </outline>
</glyph>
<glyph name="ordfeminine" format="2">
  <advance width="599"/>
  <unicode hex="00AA"/>
  <outline>
    <contour>
      <point x="25" y="170" type="line"/>
      <point x="535" y="170" type="line"/>
      <point x="556" y="305" type="line"/>
      <point x="46" y="305" type="line"/>
    </contour>
    <contour>
      <point x="596" y="668" type="curve"/>
      <point x="554" y="682"/>
      <point x="459" y="692"/>
      <point x="374" y="692" type="curve" smooth="yes"/>
      <point x="159" y="692"/>
      <point x="75" y="623"/>
      <point x="75" y="501" type="curve" smooth="yes"/>
      <point x="75" y="416"/>
      <point x="139" y="364"/>
      <point x="225" y="364" type="curve" smooth="yes"/>
      <point x="275" y="364"/>
      <point x="316" y="372"/>
      <point x="367" y="402" type="curve"/>
      <point x="398" y="367"/>
      <point x="441" y="364"/>
      <point x="489" y="364" type="curve" smooth="yes"/>
      <point x="521" y="364"/>
      <point x="570" y="368"/>
      <point x="592" y="371" type="curve"/>
      <point x="592" y="488" type="line"/>
      <point x="584" y="487"/>
      <point x="582" y="487"/>
      <point x="579" y="487" type="curve" smooth="yes"/>
      <point x="570" y="487"/>
      <point x="568" y="491"/>
      <point x="568" y="496" type="curve" smooth="yes"/>
      <point x="568" y="502"/>
      <point x="572" y="514"/>
    </contour>
    <contour>
      <point x="257" y="533" type="curve" smooth="yes"/>
      <point x="257" y="569"/>
      <point x="287" y="583"/>
      <point x="331" y="583" type="curve" smooth="yes"/>
      <point x="354" y="583"/>
      <point x="364" y="582"/>
      <point x="378" y="579" type="curve"/>
      <point x="368" y="507" type="line"/>
      <point x="345" y="495"/>
      <point x="323" y="493"/>
      <point x="308" y="493" type="curve" smooth="yes"/>
      <point x="278" y="493"/>
      <point x="257" y="505"/>
    </contour>
  </outline>
</glyph>
<glyph name="logicalnot" format="2">
  <advance width="741"/>
  <unicode hex="00AC"/>
  <outline>
    <contour>
      <point x="61" y="281" type="line"/>
      <point x="488" y="281" type="line"/>
      <point x="468" y="152" type="line"/>
      <point x="661" y="152" type="line"/>
      <point x="715" y="486" type="line"/>
      <point x="95" y="486" type="line"/>
    </contour>
  </outline>
</glyph>
<glyph name="registered" format="2">
  <advance width="835"/>
  <unicode hex="00AE"/>
  <outline>
    <contour>
      <point x="427" y="209" type="curve" smooth="yes"/>
      <point x="678" y="209"/>
      <point x="828" y="359"/>
      <point x="828" y="582" type="curve" smooth="yes"/>
      <point x="828" y="767"/>
      <point x="706" y="893"/>
      <point x="496" y="893" type="curve" smooth="yes"/>
      <point x="245" y="893"/>
      <point x="95" y="743"/>
      <point x="95" y="520" type="curve" smooth="yes"/>
      <point x="95" y="335"/>
      <point x="217" y="209"/>
    </contour>
    <contour>
      <point x="438" y="297" type="curve" smooth="yes"/>
      <point x="275" y="297"/>
      <point x="188" y="392"/>
      <point x="188" y="521" type="curve" smooth="yes"/>
      <point x="188" y="710"/>
      <point x="303" y="805"/>
      <point x="485" y="805" type="curve" smooth="yes"/>
      <point x="648" y="805"/>
      <point x="735" y="710"/>
      <point x="735" y="581" type="curve" smooth="yes"/>
      <point x="735" y="392"/>
      <point x="620" y="297"/>
    </contour>
    <contour>
      <point x="259" y="409" type="line"/>
      <point x="378" y="409" type="line"/>
      <point x="392" y="494" type="line"/>
      <point x="406" y="494"/>
      <point x="420" y="494"/>
      <point x="434" y="494" type="curve"/>
      <point x="555" y="529" type="line"/>
      <point x="610" y="527"/>
      <point x="667" y="544"/>
      <point x="667" y="626" type="curve" smooth="yes"/>
      <point x="667" y="679"/>
      <point x="622" y="703"/>
      <point x="488" y="703" type="curve" smooth="yes"/>
      <point x="463" y="703"/>
      <point x="399" y="702"/>
      <point x="305" y="697" type="curve"/>
    </contour>
    <contour>
      <point x="445" y="566" type="curve" smooth="yes"/>
      <point x="436" y="566"/>
      <point x="430" y="567"/>
      <point x="404" y="567" type="curve"/>
      <point x="412" y="619" type="line"/>
      <point x="450" y="619"/>
      <point x="455" y="619"/>
      <point x="482" y="619" type="curve" smooth="yes"/>
      <point x="529" y="619"/>
      <point x="542" y="615"/>
      <point x="542" y="601" type="curve" smooth="yes"/>
      <point x="542" y="572"/>
      <point x="533" y="566"/>
    </contour>
    <contour>
      <point x="625" y="404" type="curve" smooth="yes"/>
      <point x="628" y="404"/>
      <point x="631" y="404"/>
      <point x="633" y="404" type="curve"/>
      <point x="649" y="509" type="line"/>
      <point x="647" y="509"/>
      <point x="644" y="509"/>
      <point x="641" y="509" type="curve" smooth="yes"/>
      <point x="630" y="509"/>
      <point x="584" y="521"/>
      <point x="553" y="537" type="curve"/>
      <point x="406" y="502" type="line"/>
      <point x="476" y="462"/>
      <point x="543" y="404"/>
    </contour>
  </outline>
</glyph>
<glyph name="uni00B2" format="2">
  <advance width="622"/>
  <unicode hex="00B2"/>
  <outline>
    <contour>
      <point x="65" y="370" type="line"/>
      <point x="594" y="370" type="line"/>
      <point x="615" y="485" type="line"/>
      <point x="421" y="485" type="line"/>
      <point x="505" y="512"/>
      <point x="579" y="566"/>
      <point x="579" y="645" type="curve" smooth="yes"/>
      <point x="579" y="741"/>
      <point x="463" y="773"/>
      <point x="362" y="773" type="curve" smooth="yes"/>
      <point x="288" y="773"/>
      <point x="173" y="751"/>
      <point x="111" y="721" type="curve"/>
      <point x="147" y="606" type="line"/>
      <point x="202" y="632"/>
      <point x="251" y="644"/>
      <point x="290" y="644" type="curve" smooth="yes"/>
      <point x="324" y="644"/>
      <point x="353" y="632"/>
      <point x="353" y="608" type="curve" smooth="yes"/>
      <point x="353" y="546"/>
      <point x="276" y="509"/>
      <point x="78" y="460" type="curve"/>
    </contour>
  </outline>
</glyph>
<glyph name="uni00B5" format="2">
  <advance width="861"/>
  <unicode hex="00B5"/>
  <outline>
    <contour>
      <point x="-18" y="-210" type="line"/>
      <point x="265" y="-210" type="line"/>
      <point x="298" y="-8" type="line"/>
      <point x="308" y="-9"/>
      <point x="319" y="-10"/>
      <point x="330" y="-10" type="curve" smooth="yes"/>
      <point x="382" y="-10"/>
      <point x="450" y="18"/>
      <point x="505" y="68" type="curve"/>
      <point x="530" y="26"/>
      <point x="587" y="-10"/>
      <point x="661" y="-10" type="curve" smooth="yes"/>
      <point x="717" y="-10"/>
      <point x="777" y="6"/>
      <point x="822" y="37" type="curve"/>
      <point x="820" y="191" type="line"/>
      <point x="807" y="187"/>
      <point x="801" y="187"/>
      <point x="798" y="187" type="curve" smooth="yes"/>
      <point x="788" y="187"/>
      <point x="778" y="193"/>
      <point x="778" y="210" type="curve" smooth="yes"/>
      <point x="778" y="214"/>
      <point x="779" y="222"/>
      <point x="833" y="550" type="curve"/>
      <point x="548" y="550" type="line"/>
      <point x="496" y="214" type="line"/>
      <point x="470" y="202"/>
      <point x="423" y="189"/>
      <point x="392" y="189" type="curve" smooth="yes"/>
      <point x="356" y="189"/>
      <point x="335" y="201"/>
      <point x="335" y="239" type="curve" smooth="yes"/>
      <point x="335" y="267"/>
      <point x="341" y="288"/>
      <point x="387" y="550" type="curve"/>
      <point x="102" y="550" type="line"/>
    </contour>
  </outline>
</glyph>
<glyph name="paragraph" format="2">
  <advance width="850"/>
  <unicode hex="00B6"/>
  <outline>
    <contour>
      <point x="495" y="-210" type="line"/>
      <point x="702" y="-210" type="line"/>
      <point x="853" y="740" type="line"/>
      <point x="646" y="740" type="line"/>
    </contour>
    <contour>
      <point x="321" y="337" type="line"/>
      <point x="304" y="344"/>
      <point x="296" y="362"/>
      <point x="296" y="392" type="curve" smooth="yes"/>
      <point x="296" y="447"/>
      <point x="307" y="535"/>
      <point x="374" y="535" type="curve"/>
      <point x="256" y="-210" type="line"/>
      <point x="463" y="-210" type="line"/>
      <point x="614" y="740" type="line"/>
      <point x="461" y="740" type="line" smooth="yes"/>
      <point x="210" y="740"/>
      <point x="75" y="637"/>
      <point x="75" y="398" type="curve" smooth="yes"/>
      <point x="75" y="274"/>
      <point x="140" y="207"/>
      <point x="278" y="196" type="curve"/>
    </contour>
  </outline>
</glyph>
<glyph name="periodcentered" format="2">
  <advance width="384"/>
  <unicode hex="00B7"/>
  <outline>
    <contour>
      <point x="46" y="298" type="curve" smooth="yes"/>
      <point x="46" y="237"/>
      <point x="89" y="202"/>
      <point x="180" y="202" type="curve" smooth="yes"/>
      <point x="281" y="202"/>
      <point x="350" y="243"/>
      <point x="350" y="333" type="curve" smooth="yes"/>
      <point x="350" y="396"/>
      <point x="307" y="431"/>
      <point x="217" y="431" type="curve" smooth="yes"/>
      <point x="117" y="431"/>
      <point x="46" y="384"/>
    </contour>
  </outline>
</glyph>
<glyph name="uni00B9" format="2">
  <advance width="556"/>
  <unicode hex="00B9"/>
  <outline>
    <contour>
      <point x="77" y="370" type="line"/>
      <point x="539" y="370" type="line"/>
      <point x="559" y="485" type="line"/>
      <point x="441" y="485" type="line"/>
      <point x="485" y="764" type="line"/>
      <point x="367" y="764" type="line"/>
      <point x="101" y="673" type="line"/>
      <point x="123" y="544" type="line"/>
      <point x="244" y="585" type="line"/>
      <point x="227" y="485" type="line"/>
      <point x="97" y="485" type="line"/>
    </contour>
  </outline>
</glyph>
<glyph name="ordmasculine" format="2">
  <advance width="578"/>
  <unicode hex="00BA"/>
  <outline>
    <contour>
      <point x="27" y="170" type="line"/>
      <point x="518" y="170" type="line"/>
      <point x="539" y="305" type="line"/>
      <point x="48" y="305" type="line"/>
    </contour>
    <contour>
      <point x="327" y="690" type="curve" smooth="yes"/>
      <point x="142" y="690"/>
      <point x="73" y="625"/>
      <point x="73" y="515" type="curve" smooth="yes"/>
      <point x="73" y="406"/>
      <point x="177" y="363"/>
      <point x="331" y="363" type="curve" smooth="yes"/>
      <point x="516" y="363"/>
      <point x="585" y="428"/>
      <point x="585" y="538" type="curve" smooth="yes"/>
      <point x="585" y="647"/>
      <point x="481" y="690"/>
    </contour>
    <contour>
      <point x="333" y="593" type="curve" smooth="yes"/>
      <point x="375" y="593"/>
      <point x="388" y="570"/>
      <point x="388" y="536" type="curve" smooth="yes"/>
      <point x="388" y="483"/>
      <point x="365" y="460"/>
      <point x="325" y="460" type="curve" smooth="yes"/>
      <point x="283" y="460"/>
      <point x="270" y="483"/>
      <point x="270" y="517" type="curve" smooth="yes"/>
      <point x="270" y="570"/>
      <point x="293" y="593"/>
    </contour>
  </outline>
</glyph>
<glyph name="AE" format="2">
  <advance width="1530"/>
  <unicode hex="00C6"/>
  <anchor x="760" y="0" name="bottom"/>
  <anchor x="981" y="700" name="top"/>
  <outline>
    <contour>
      <point x="613" y="0" type="line"/>
      <point x="1445" y="0" type="line"/>
      <point x="1479" y="205" type="line"/>
      <point x="914" y="205" type="line"/>
      <point x="923" y="261" type="line"/>
      <point x="1431" y="261" type="line"/>
      <point x="1461" y="441" type="line"/>
      <point x="953" y="441" type="line"/>
      <point x="962" y="495" type="line"/>
      <point x="1499" y="495" type="line"/>
      <point x="1533" y="700" type="line"/>
      <point x="563" y="700" type="line"/>
      <point x="-44" y="0" type="line"/>
      <point x="293" y="0" type="line"/>
      <point x="408" y="151" type="line"/>
      <point x="637" y="151" type="line"/>
    </contour>
    <contour>
      <point x="545" y="332" type="line"/>
      <point x="698" y="533" type="line"/>
      <point x="664" y="332" type="line"/>
    </contour>
  </outline>
</glyph>
<glyph name="Oslash" format="2">
  <advance width="1080"/>
  <unicode hex="00D8"/>
  <anchor x="599" y="700" name="top"/>
  <outline>
    <contour>
      <point x="1156" y="720" type="line"/>
      <point x="905" y="720" type="line"/>
      <point x="745" y="599" type="line"/>
      <point x="746" y="598" type="line"/>
      <point x="231" y="202" type="line"/>
      <point x="232" y="200" type="line"/>
      <point x="-53" y="-20" type="line"/>
      <point x="196" y="-20" type="line"/>
      <point x="350" y="96" type="line"/>
      <point x="349" y="97" type="line"/>
      <point x="903" y="522" type="line"/>
      <point x="902" y="524" type="line"/>
    </contour>
    <contour>
      <point x="528" y="-10" type="curve" smooth="yes"/>
      <point x="864" y="-10"/>
      <point x="1055" y="133"/>
      <point x="1055" y="400" type="curve" smooth="yes"/>
      <point x="1055" y="606"/>
      <point x="906" y="710"/>
      <point x="575" y="710" type="curve" smooth="yes"/>
      <point x="239" y="710"/>
      <point x="48" y="567"/>
      <point x="48" y="300" type="curve" smooth="yes"/>
      <point x="48" y="94"/>
      <point x="197" y="-10"/>
    </contour>
    <contour>
      <point x="542" y="176" type="curve" smooth="yes"/>
      <point x="404" y="176"/>
      <point x="342" y="222"/>
      <point x="342" y="325" type="curve" smooth="yes"/>
      <point x="342" y="446"/>
      <point x="428" y="524"/>
      <point x="561" y="524" type="curve" smooth="yes"/>
      <point x="699" y="524"/>
      <point x="761" y="478"/>
      <point x="761" y="375" type="curve" smooth="yes"/>
      <point x="761" y="254"/>
      <point x="675" y="176"/>
    </contour>
  </outline>
</glyph>
<glyph name="Thorn" format="2">
  <advance width="1066"/>
  <unicode hex="00DE"/>
  <outline>
    <contour>
      <point x="28" y="0" type="line"/>
      <point x="328" y="0" type="line"/>
      <point x="344" y="94" type="line"/>
      <point x="438" y="90"/>
      <point x="468" y="89"/>
      <point x="506" y="89" type="curve" smooth="yes"/>
      <point x="918" y="89"/>
      <point x="1060" y="166"/>
      <point x="1060" y="382" type="curve" smooth="yes"/>
      <point x="1060" y="561"/>
      <point x="952" y="637"/>
      <point x="597" y="637" type="curve" smooth="yes"/>
      <point x="567" y="637"/>
      <point x="511" y="636"/>
      <point x="433" y="635" type="curve"/>
      <point x="445" y="700" type="line"/>
      <point x="145" y="700" type="line"/>
    </contour>
    <contour>
      <point x="492" y="298" type="curve" smooth="yes"/>
      <point x="462" y="298"/>
      <point x="443" y="299"/>
      <point x="379" y="303" type="curve"/>
      <point x="399" y="428" type="line"/>
      <point x="504" y="432"/>
      <point x="515" y="432"/>
      <point x="588" y="432" type="curve" smooth="yes"/>
      <point x="711" y="432"/>
      <point x="747" y="412"/>
      <point x="747" y="375" type="curve" smooth="yes"/>
      <point x="747" y="316"/>
      <point x="716" y="298"/>
    </contour>
  </outline>
</glyph>
<glyph name="divide" format="2">
  <advance width="743"/>
  <unicode hex="00F7"/>
  <outline>
    <contour>
      <point x="219" y="59" type="curve" smooth="yes"/>
      <point x="219" y="14"/>
      <point x="251" y="-10"/>
      <point x="324" y="-10" type="curve" smooth="yes"/>
      <point x="399" y="-10"/>
      <point x="457" y="18"/>
      <point x="457" y="98" type="curve" smooth="yes"/>
      <point x="457" y="143"/>
      <point x="426" y="166"/>
      <point x="353" y="166" type="curve" smooth="yes"/>
      <point x="281" y="166"/>
      <point x="219" y="137"/>
    </contour>
    <contour>
      <point x="300" y="541" type="curve" smooth="yes"/>
      <point x="300" y="497"/>
      <point x="330" y="473"/>
      <point x="404" y="473" type="curve" smooth="yes"/>
      <point x="480" y="473"/>
      <point x="536" y="503"/>
      <point x="536" y="582" type="curve" smooth="yes"/>
      <point x="536" y="627"/>
      <point x="506" y="649"/>
      <point x="432" y="649" type="curve" smooth="yes"/>
      <point x="358" y="649"/>
      <point x="300" y="620"/>
    </contour>
    <contour>
      <point x="51" y="216" type="line"/>
      <point x="671" y="216" type="line"/>
      <point x="706" y="421" type="line"/>
      <point x="86" y="421" type="line"/>
    </contour>
  </outline>
</glyph>
<glyph name="oslash" format="2">
  <advance width="840"/>
  <unicode hex="00F8"/>
  <anchor x="452" y="550" name="top"/>
  <outline>
    <contour>
      <point x="660" y="562" type="line"/>
      <point x="553" y="467" type="line"/>
      <point x="553" y="467" type="line"/>
      <point x="201" y="154" type="line"/>
      <point x="201" y="154" type="line"/>
      <point x="18" y="-9" type="line"/>
      <point x="177" y="-9" type="line"/>
      <point x="285" y="87" type="line"/>
      <point x="285" y="87" type="line"/>
      <point x="664" y="423" type="line"/>
      <point x="664" y="423" type="line"/>
      <point x="822" y="562" type="line"/>
    </contour>
    <contour>
      <point x="413" y="-9" type="curve" smooth="yes"/>
      <point x="645" y="-9"/>
      <point x="811" y="72"/>
      <point x="811" y="301" type="curve" smooth="yes"/>
      <point x="811" y="492"/>
      <point x="658" y="561"/>
      <point x="427" y="561" type="curve" smooth="yes"/>
      <point x="195" y="561"/>
      <point x="29" y="480"/>
      <point x="29" y="251" type="curve" smooth="yes"/>
      <point x="29" y="60"/>
      <point x="182" y="-9"/>
    </contour>
    <contour>
      <point x="414" y="154" type="curve" smooth="yes"/>
      <point x="342" y="154"/>
      <point x="304" y="188"/>
      <point x="304" y="259" type="curve" smooth="yes"/>
      <point x="304" y="350"/>
      <point x="348" y="398"/>
      <point x="426" y="398" type="curve" smooth="yes"/>
      <point x="497" y="398"/>
      <point x="536" y="363"/>
      <point x="536" y="292" type="curve" smooth="yes"/>
      <point x="536" y="201"/>
      <point x="492" y="154"/>
    </contour>
  </outline>
</glyph>
<glyph name="thorn" format="2">
  <advance width="879"/>
  <unicode hex="00FE"/>
  <outline>
    <contour>
      <point x="-19" y="-210" type="line"/>
      <point x="263" y="-210" type="line"/>
      <point x="298" y="1" type="line"/>
      <point x="329" y="-5"/>
      <point x="377" y="-10"/>
      <point x="423" y="-10" type="curve" smooth="yes"/>
      <point x="722" y="-10"/>
      <point x="855" y="114"/>
      <point x="855" y="348" type="curve" smooth="yes"/>
      <point x="855" y="476"/>
      <point x="783" y="560"/>
      <point x="629" y="560" type="curve" smooth="yes"/>
      <point x="531" y="560"/>
      <point x="460" y="535"/>
      <point x="372" y="485" type="curve"/>
      <point x="412" y="740" type="line"/>
      <point x="132" y="740" type="line"/>
    </contour>
    <contour>
      <point x="435" y="171" type="curve" smooth="yes"/>
      <point x="398" y="171"/>
      <point x="360" y="177"/>
      <point x="327" y="186" type="curve"/>
      <point x="349" y="321" type="line"/>
      <point x="389" y="334"/>
      <point x="443" y="348"/>
      <point x="488" y="348" type="curve" smooth="yes"/>
      <point x="534" y="348"/>
      <point x="570" y="333"/>
      <point x="570" y="284" type="curve" smooth="yes"/>
      <point x="570" y="213"/>
      <point x="509" y="171"/>
    </contour>
  </outline>
</glyph>
<glyph name="Dcroat" format="2">
  <advance width="1092"/>
  <unicode hex="0110"/>
  <outline>
    <contour>
      <point x="20" y="263" type="line"/>
      <point x="564" y="263" type="line"/>
      <point x="597" y="448" type="line"/>
      <point x="50" y="448" type="line"/>
    </contour>
    <component base="D" xOffset="10"/>
  </outline>
</glyph>
<glyph name="dcroat" format="2">
  <advance width="915"/>
  <unicode hex="0111"/>
  <outline>
    <contour>
      <point x="406" y="592" type="line"/>
      <point x="934" y="592" type="line"/>
      <point x="950" y="698" type="line"/>
      <point x="422" y="698" type="line"/>
    </contour>
    <component base="d"/>
  </outline>
</glyph>
<glyph name="Hbar" format="2">
  <advance width="1080"/>
  <unicode hex="0126"/>
  <outline>
    <contour>
      <point x="64" y="487" type="line"/>
      <point x="1087" y="487" type="line"/>
      <point x="1114" y="658" type="line"/>
      <point x="91" y="658" type="line"/>
    </contour>
    <component base="H" xOffset="1"/>
  </outline>
</glyph>
<glyph name="hbar" format="2">
  <advance width="848"/>
  <unicode hex="0127"/>
  <outline>
    <contour>
      <point x="25" y="592" type="line"/>
      <point x="544" y="592" type="line"/>
      <point x="560" y="698" type="line"/>
      <point x="41" y="698" type="line"/>
    </contour>
    <contour>
      <point x="776" y="209" type="curve" smooth="yes"/>
      <point x="776" y="246"/>
      <point x="802" y="354"/>
      <point x="802" y="396" type="curve" smooth="yes"/>
      <point x="802" y="482"/>
      <point x="742" y="560"/>
      <point x="593" y="560" type="curve" smooth="yes"/>
      <point x="517" y="560"/>
      <point x="464" y="544"/>
      <point x="373" y="500" type="curve"/>
      <point x="411" y="740" type="line"/>
      <point x="127" y="740" type="line"/>
      <point x="8" y="0" type="line"/>
      <point x="293" y="0" type="line"/>
      <point x="346" y="333" type="line"/>
      <point x="383" y="348"/>
      <point x="424" y="359"/>
      <point x="452" y="359" type="curve" smooth="yes"/>
      <point x="490" y="359"/>
      <point x="507" y="341"/>
      <point x="507" y="311" type="curve" smooth="yes"/>
      <point x="507" y="284"/>
      <point x="482" y="156"/>
      <point x="482" y="130" type="curve" smooth="yes"/>
      <point x="482" y="35"/>
      <point x="567" y="-10"/>
      <point x="675" y="-10" type="curve" smooth="yes"/>
      <point x="723" y="-10"/>
      <point x="781" y="-6"/>
      <point x="816" y="0" type="curve"/>
      <point x="816" y="191" type="line"/>
      <point x="810" y="190"/>
      <point x="800" y="189"/>
      <point x="794" y="189" type="curve" smooth="yes"/>
      <point x="781" y="189"/>
      <point x="776" y="198"/>
    </contour>
  </outline>
</glyph>
<glyph name="Idotaccent" format="2">
  <advance width="448"/>
  <unicode hex="0130"/>
  <outline>
    <contour>
      <point x="329" y="940" type="curve" smooth="yes"/>
      <point x="202" y="940"/>
      <point x="140" y="899"/>
      <point x="140" y="813" type="curve" smooth="yes"/>
      <point x="140" y="755"/>
      <point x="185" y="720"/>
      <point x="292" y="720" type="curve" smooth="yes"/>
      <point x="391" y="720"/>
      <point x="480" y="747"/>
      <point x="480" y="848" type="curve" smooth="yes"/>
      <point x="480" y="905"/>
      <point x="435" y="940"/>
    </contour>
    <contour>
      <point x="28" y="0" type="line"/>
      <point x="328" y="0" type="line"/>
      <point x="443" y="700" type="line"/>
      <point x="143" y="700" type="line"/>
    </contour>
  </outline>
</glyph>
<glyph name="dotlessi" format="2">
  <advance width="402"/>
  <unicode hex="0131"/>
  <anchor x="157.444" y="0" name="bottom"/>
  <anchor x="300" y="0" name="ogonek"/>
  <anchor x="244.556" y="550" name="top"/>
  <outline>
    <contour>
      <point x="300" y="0" type="line"/>
      <point x="386" y="550" type="line"/>
      <point x="103" y="550" type="line"/>
      <point x="15" y="1" type="line"/>
    </contour>
  </outline>
</glyph>
<glyph name="Ldot" format="2">
  <advance width="908"/>
  <unicode hex="013F"/>
  <outline>
    <contour>
      <point x="551" y="441" type="curve" smooth="yes"/>
      <point x="551" y="380"/>
      <point x="594" y="345"/>
      <point x="685" y="345" type="curve" smooth="yes"/>
      <point x="786" y="345"/>
      <point x="855" y="386"/>
      <point x="855" y="476" type="curve" smooth="yes"/>
      <point x="855" y="539"/>
      <point x="812" y="574"/>
      <point x="722" y="574" type="curve" smooth="yes"/>
      <point x="622" y="574"/>
      <point x="551" y="527"/>
    </contour>
    <contour>
      <point x="28" y="0" type="line"/>
      <point x="828" y="0" type="line"/>
      <point x="868" y="225" type="line"/>
      <point x="366" y="225" type="line"/>
      <point x="443" y="700" type="line"/>
      <point x="143" y="700" type="line"/>
    </contour>
  </outline>
</glyph>
<glyph name="ldot" format="2">
  <advance width="559"/>
  <unicode hex="0140"/>
  <outline>
    <contour>
      <point x="419.901" y="414.704" type="curve" smooth="yes"/>
      <point x="419.901" y="373.416"/>
      <point x="444.513" y="349.726"/>
      <point x="496.599" y="349.726" type="curve" smooth="yes"/>
      <point x="554.408" y="349.726"/>
      <point x="593.902" y="377.477"/>
      <point x="593.902" y="438.394" type="curve" smooth="yes"/>
      <point x="593.902" y="481.037"/>
      <point x="569.29" y="504.727"/>
      <point x="517.777" y="504.727" type="curve" smooth="yes"/>
      <point x="460.54" y="504.727"/>
      <point x="419.901" y="472.914"/>
    </contour>
    <contour>
      <point x="132" y="740" type="line"/>
      <point x="53" y="244" type="line" smooth="yes"/>
      <point x="48" y="210"/>
      <point x="44" y="180"/>
      <point x="44" y="153" type="curve" smooth="yes"/>
      <point x="44" y="34"/>
      <point x="104" y="-10"/>
      <point x="228" y="-10" type="curve" smooth="yes"/>
      <point x="312" y="-10"/>
      <point x="393" y="4"/>
      <point x="468" y="25" type="curve"/>
      <point x="468" y="227" type="line"/>
      <point x="425" y="218"/>
      <point x="401" y="213"/>
      <point x="376" y="213" type="curve" smooth="yes"/>
      <point x="352" y="213"/>
      <point x="338" y="220"/>
      <point x="338" y="241" type="curve" smooth="yes"/>
      <point x="338" y="246"/>
      <point x="338" y="252"/>
      <point x="340" y="262" type="curve" smooth="yes"/>
      <point x="416" y="740" type="line"/>
    </contour>
  </outline>
</glyph>
<glyph name="lslash" format="2">
  <advance width="509"/>
  <unicode hex="0142"/>
  <outline>
    <contour>
      <point x="-14" y="179" type="line"/>
      <point x="464" y="373" type="line"/>
      <point x="494" y="559" type="line"/>
      <point x="15" y="365" type="line"/>
    </contour>
    <contour>
      <point x="132" y="740" type="line"/>
      <point x="53" y="244" type="line" smooth="yes"/>
      <point x="48" y="210"/>
      <point x="44" y="180"/>
      <point x="44" y="153" type="curve" smooth="yes"/>
      <point x="44" y="34"/>
      <point x="104" y="-10"/>
      <point x="228" y="-10" type="curve" smooth="yes"/>
      <point x="312" y="-10"/>
      <point x="393" y="4"/>
      <point x="468" y="25" type="curve"/>
      <point x="468" y="227" type="line"/>
      <point x="425" y="218"/>
      <point x="401" y="213"/>
      <point x="376" y="213" type="curve" smooth="yes"/>
      <point x="352" y="213"/>
      <point x="338" y="220"/>
      <point x="338" y="241" type="curve" smooth="yes"/>
      <point x="338" y="246"/>
      <point x="338" y="252"/>
      <point x="340" y="262" type="curve" smooth="yes"/>
      <point x="416" y="740" type="line"/>
    </contour>
  </outline>
</glyph>
<glyph name="uni0162" format="2">
  <advance width="984"/>
  <unicode hex="0162"/>
  <anchor x="448" y="0" name="_bottom"/>
  <anchor x="342" y="-220" name="bottom"/>
  <outline>
    <contour>
      <point x="237" y="-208" type="line"/>
      <point x="277" y="-216"/>
      <point x="310" y="-220"/>
      <point x="342" y="-220" type="curve" smooth="yes"/>
      <point x="453" y="-220"/>
      <point x="561" y="-168"/>
      <point x="561" y="-47" type="curve" smooth="yes"/>
      <point x="561" y="-27"/>
      <point x="557" y="-7"/>
      <point x="551" y="10" type="curve"/>
      <point x="328" y="10" type="line"/>
      <point x="336" y="1"/>
      <point x="340" y="-8"/>
      <point x="340" y="-17" type="curve" smooth="yes"/>
      <point x="340" y="-52"/>
      <point x="314" y="-58"/>
      <point x="287" y="-58" type="curve" smooth="yes"/>
      <point x="284" y="-58"/>
      <point x="270" y="-57"/>
      <point x="267" y="-56" type="curve"/>
    </contour>
    <contour>
      <point x="1008" y="490" type="line"/>
      <point x="1047" y="700" type="line"/>
      <point x="98" y="700" type="line"/>
      <point x="58" y="490" type="line"/>
      <point x="384" y="490" type="line"/>
      <point x="307" y="0" type="line"/>
      <point x="607" y="0" type="line"/>
      <point x="683" y="490" type="line"/>
    </contour>
  </outline>
</glyph>
<glyph name="Tbar" format="2">
  <advance width="1004"/>
  <unicode hex="0166"/>
  <outline>
    <contour>
      <point x="1008" y="490" type="line"/>
      <point x="1047" y="700" type="line"/>
      <point x="98" y="700" type="line"/>
      <point x="58" y="490" type="line"/>
      <point x="384" y="490" type="line"/>
      <point x="364" y="367" type="line"/>
      <point x="164" y="367" type="line"/>
      <point x="134" y="181" type="line"/>
      <point x="335" y="181" type="line"/>
      <point x="307" y="0" type="line"/>
      <point x="607" y="0" type="line"/>
      <point x="635" y="181" type="line"/>
      <point x="835" y="181" type="line"/>
      <point x="865" y="367" type="line"/>
      <point x="664" y="367" type="line"/>
      <point x="683" y="490" type="line"/>
    </contour>
  </outline>
</glyph>
<glyph name="uogonek" format="2">
  <advance width="858"/>
  <unicode hex="0173"/>
  <outline>
    <contour>
      <point x="699" y="-194" type="curve" smooth="yes"/>
      <point x="730" y="-194"/>
      <point x="765" y="-190"/>
      <point x="797" y="-182" type="curve"/>
      <point x="816" y="-45" type="line"/>
      <point x="808" y="-46"/>
      <point x="801" y="-47"/>
      <point x="790" y="-47" type="curve" smooth="yes"/>
      <point x="763" y="-47"/>
      <point x="745" y="-38"/>
      <point x="745" y="-22" type="curve" smooth="yes"/>
      <point x="745" y="-4"/>
      <point x="757" y="14"/>
      <point x="819" y="37" type="curve"/>
      <point x="817" y="191" type="line"/>
      <point x="804" y="187"/>
      <point x="798" y="187"/>
      <point x="795" y="187" type="curve" smooth="yes"/>
      <point x="785" y="187"/>
      <point x="775" y="193"/>
      <point x="775" y="210" type="curve" smooth="yes"/>
      <point x="775" y="214"/>
      <point x="776" y="222"/>
      <point x="830" y="550" type="curve"/>
      <point x="545" y="550" type="line"/>
      <point x="493" y="214" type="line"/>
      <point x="467" y="202"/>
      <point x="420" y="189"/>
      <point x="389" y="189" type="curve" smooth="yes"/>
      <point x="353" y="189"/>
      <point x="332" y="201"/>
      <point x="332" y="239" type="curve" smooth="yes"/>
      <point x="332" y="267"/>
      <point x="338" y="288"/>
      <point x="384" y="550" type="curve"/>
      <point x="99" y="550" type="line"/>
      <point x="39" y="186"/>
      <point x="38" y="175"/>
      <point x="38" y="153" type="curve" smooth="yes"/>
      <point x="38" y="50"/>
      <point x="115" y="-10"/>
      <point x="256" y="-10" type="curve" smooth="yes"/>
      <point x="330" y="-10"/>
      <point x="425" y="18"/>
      <point x="502" y="68" type="curve"/>
      <point x="526" y="26"/>
      <point x="581" y="-8"/>
      <point x="657" y="-8" type="curve" smooth="yes"/>
      <point x="692" y="-8"/>
      <point x="735" y="43"/>
      <point x="628" y="43" type="curve"/>
      <point x="572" y="26"/>
      <point x="534" y="-13"/>
      <point x="534" y="-68" type="curve" smooth="yes"/>
      <point x="534" y="-123"/>
      <point x="579" y="-194"/>
    </contour>
  </outline>
</glyph>
<glyph name="longs" format="2">
  <advance width="617"/>
  <unicode hex="017F"/>
  <outline>
    <contour>
      <point x="111" y="-220" type="curve" smooth="yes"/>
      <point x="239" y="-220"/>
      <point x="332" y="-135"/>
      <point x="354" y="0" type="curve"/>
      <point x="426" y="454" type="line" smooth="yes"/>
      <point x="437" y="523"/>
      <point x="475" y="543"/>
      <point x="535" y="543" type="curve" smooth="yes"/>
      <point x="577" y="543"/>
      <point x="638" y="534"/>
      <point x="666" y="525" type="curve"/>
      <point x="728" y="716" type="line"/>
      <point x="669" y="737"/>
      <point x="584" y="750"/>
      <point x="509" y="750" type="curve" smooth="yes"/>
      <point x="302" y="750"/>
      <point x="168" y="652"/>
      <point x="147" y="484" type="curve"/>
      <point x="49" y="464" type="line"/>
      <point x="23" y="305" type="line"/>
      <point x="118" y="305" type="line"/>
      <point x="76" y="40" type="line" smooth="yes"/>
      <point x="71" y="6"/>
      <point x="54" y="-15"/>
      <point x="28" y="-15" type="curve" smooth="yes"/>
      <point x="16" y="-15"/>
      <point x="2" y="-13"/>
      <point x="-8" y="-10" type="curve"/>
      <point x="-52" y="-193" type="line"/>
      <point x="-5" y="-212"/>
      <point x="43" y="-220"/>
    </contour>
  </outline>
</glyph>
<glyph name="uni0237" format="2">
  <advance width="432"/>
  <unicode hex="0237"/>
  <anchor x="48" y="-220" name="bottom"/>
  <anchor x="276" y="550" name="top"/>
  <outline>
    <contour>
      <point x="418" y="550" type="line"/>
      <point x="134" y="550" type="line"/>
      <point x="55" y="46" type="line" smooth="yes"/>
      <point x="49" y="5"/>
      <point x="38" y="-15"/>
      <point x="2" y="-15" type="curve" smooth="yes"/>
      <point x="-6" y="-15"/>
      <point x="-20" y="-14"/>
      <point x="-28" y="-12" type="curve"/>
      <point x="-79" y="-209" type="line"/>
      <point x="-31" y="-216"/>
      <point x="20" y="-220"/>
      <point x="48" y="-220" type="curve" smooth="yes"/>
      <point x="236" y="-220"/>
      <point x="313" y="-113"/>
      <point x="343" y="78" type="curve" smooth="yes"/>
    </contour>
  </outline>
</glyph>
<glyph name="uni0259" format="2">
  <advance width="811"/>
  <unicode hex="0259"/>
  <outline>
    <contour>
      <point x="539" y="228" type="curve"/>
      <point x="521" y="338" type="line"/>
      <point x="479" y="346"/>
      <point x="427" y="352"/>
      <point x="348" y="351" type="curve" smooth="yes"/>
      <point x="127" y="347"/>
      <point x="10" y="273"/>
      <point x="10" y="164" type="curve" smooth="yes"/>
      <point x="10" y="49"/>
      <point x="119" y="-10"/>
      <point x="318" y="-10" type="curve" smooth="yes"/>
      <point x="621" y="-10"/>
      <point x="783" y="103"/>
      <point x="783" y="300" type="curve" smooth="yes"/>
      <point x="783" y="469"/>
      <point x="651" y="560"/>
      <point x="399" y="560" type="curve" smooth="yes"/>
      <point x="284" y="560"/>
      <point x="175" y="549"/>
      <point x="72" y="529" type="curve"/>
      <point x="92" y="350" type="line"/>
      <point x="171" y="367"/>
      <point x="279" y="385"/>
      <point x="336" y="385" type="curve" smooth="yes"/>
      <point x="471" y="385"/>
      <point x="499" y="360"/>
      <point x="499" y="290" type="curve" smooth="yes"/>
      <point x="499" y="215"/>
      <point x="438" y="162"/>
      <point x="361" y="162" type="curve" smooth="yes"/>
      <point x="324" y="162"/>
      <point x="308" y="172"/>
      <point x="308" y="190" type="curve" smooth="yes"/>
      <point x="308" y="215"/>
      <point x="360" y="226"/>
      <point x="453" y="228" type="curve" smooth="yes"/>
      <point x="490" y="229"/>
      <point x="516" y="230"/>
    </contour>
  </outline>
</glyph>
<glyph name="acutecomb" format="2">
  <unicode hex="0301"/>
  <anchor x="-388" y="550" name="_top"/>
  <anchor x="-290" y="790" name="top"/>
  <outline>
    <contour>
      <point x="-503" y="596" type="line"/>
      <point x="-296" y="596" type="line"/>
      <point x="-108" y="790" type="line"/>
      <point x="-375" y="790" type="line"/>
    </contour>
  </outline>
</glyph>
<glyph name="tildecomb" format="2">
  <unicode hex="0303"/>
  <anchor x="-388" y="550" name="_top"/>
  <anchor x="-358" y="780" name="top"/>
  <outline>
    <contour>
      <point x="-629" y="596" type="curve"/>
      <point x="-494" y="596" type="line"/>
      <point x="-494" y="596"/>
      <point x="-493" y="601"/>
      <point x="-493" y="601" type="curve" smooth="yes"/>
      <point x="-490" y="614"/>
      <point x="-478" y="621"/>
      <point x="-460" y="621" type="curve" smooth="yes"/>
      <point x="-420" y="621"/>
      <point x="-358" y="596"/>
      <point x="-293" y="596" type="curve" smooth="yes"/>
      <point x="-173" y="596"/>
      <point x="-120" y="646"/>
      <point x="-105" y="740" type="curve" smooth="yes"/>
      <point x="-103" y="755"/>
      <point x="-101" y="772"/>
      <point x="-101" y="790" type="curve"/>
      <point x="-237" y="790" type="line"/>
      <point x="-237" y="790"/>
      <point x="-238" y="785"/>
      <point x="-238" y="785" type="curve" smooth="yes"/>
      <point x="-241" y="772"/>
      <point x="-252" y="765"/>
      <point x="-270" y="765" type="curve" smooth="yes"/>
      <point x="-308" y="765"/>
      <point x="-378" y="790"/>
      <point x="-438" y="790" type="curve" smooth="yes"/>
      <point x="-558" y="790"/>
      <point x="-610" y="740"/>
      <point x="-625" y="646" type="curve" smooth="yes"/>
      <point x="-627" y="631"/>
      <point x="-629" y="614"/>
    </contour>
  </outline>
</glyph>
<glyph name="uni0306" format="2">
  <unicode hex="0306"/>
  <anchor x="-388" y="550" name="_top"/>
  <anchor x="-352" y="772" name="top"/>
  <outline>
    <contour>
      <point x="-381" y="596" type="curve" smooth="yes"/>
      <point x="-213" y="596"/>
      <point x="-128" y="628"/>
      <point x="-113" y="790" type="curve"/>
      <point x="-244" y="790" type="line"/>
      <point x="-248" y="766"/>
      <point x="-253" y="746"/>
      <point x="-357" y="746" type="curve" smooth="yes"/>
      <point x="-384" y="746"/>
      <point x="-458" y="747"/>
      <point x="-458" y="776" type="curve" smooth="yes"/>
      <point x="-458" y="777"/>
      <point x="-457" y="783"/>
      <point x="-456" y="790" type="curve"/>
      <point x="-586" y="790" type="line"/>
      <point x="-593" y="765"/>
      <point x="-597" y="741"/>
      <point x="-597" y="716" type="curve" smooth="yes"/>
      <point x="-597" y="624"/>
      <point x="-535" y="596"/>
    </contour>
  </outline>
</glyph>
<glyph name="uni030A" format="2">
  <unicode hex="030A"/>
  <anchor x="-388" y="550" name="_top"/>
  <anchor x="-351" y="781" name="top"/>
  <outline>
    <contour>
      <point x="-376" y="586" type="curve" smooth="yes"/>
      <point x="-263" y="586"/>
      <point x="-206" y="627"/>
      <point x="-206" y="709" type="curve" smooth="yes"/>
      <point x="-206" y="770"/>
      <point x="-254" y="800"/>
      <point x="-354" y="800" type="curve" smooth="yes"/>
      <point x="-467" y="800"/>
      <point x="-524" y="759"/>
      <point x="-524" y="677" type="curve" smooth="yes"/>
      <point x="-524" y="616"/>
      <point x="-476" y="586"/>
    </contour>
    <contour>
      <point x="-367" y="670" type="curve" smooth="yes"/>
      <point x="-386" y="670"/>
      <point x="-396" y="678"/>
      <point x="-396" y="692" type="curve" smooth="yes"/>
      <point x="-396" y="708"/>
      <point x="-384" y="716"/>
      <point x="-363" y="716" type="curve" smooth="yes"/>
      <point x="-344" y="716"/>
      <point x="-334" y="708"/>
      <point x="-334" y="694" type="curve" smooth="yes"/>
      <point x="-334" y="678"/>
      <point x="-345" y="670"/>
    </contour>
  </outline>
</glyph>
<glyph name="uni030B" format="2">
  <unicode hex="030B"/>
  <anchor x="-388" y="550" name="_top"/>
  <anchor x="-310" y="790" name="top"/>
  <outline>
    <contour>
      <point x="-365" y="596" type="line"/>
      <point x="-145" y="596" type="line"/>
      <point x="15" y="790" type="line"/>
      <point x="-256" y="790" type="line"/>
    </contour>
    <contour>
      <point x="-666" y="596" type="line"/>
      <point x="-446" y="596" type="line"/>
      <point x="-286" y="790" type="line"/>
      <point x="-557" y="790" type="line"/>
    </contour>
  </outline>
</glyph>
<glyph name="uni0312" format="2">
  <unicode hex="0312"/>
  <anchor x="-388" y="550" name="_top"/>
  <outline>
    <contour>
      <point x="-236" y="595" type="line"/>
      <point x="-241" y="606"/>
      <point x="-247" y="620"/>
      <point x="-247" y="650" type="curve" smooth="yes"/>
      <point x="-247" y="697"/>
      <point x="-221" y="751"/>
      <point x="-187" y="790" type="curve"/>
      <point x="-425" y="790" type="line"/>
      <point x="-497" y="737"/>
      <point x="-528" y="690"/>
      <point x="-528" y="638" type="curve" smooth="yes"/>
      <point x="-528" y="624"/>
      <point x="-526" y="609"/>
      <point x="-520" y="595" type="curve"/>
    </contour>
  </outline>
</glyph>
<glyph name="uni0326" format="2">
  <unicode hex="0326"/>
  <anchor x="-464" y="0" name="_bottom"/>
  <anchor x="-515" y="-193" name="bottom"/>
  <outline>
    <contour>
      <point x="-603" y="-46" type="line"/>
      <point x="-603" y="-52"/>
      <point x="-602" y="-57"/>
      <point x="-602" y="-63" type="curve" smooth="yes"/>
      <point x="-602" y="-113"/>
      <point x="-632" y="-158"/>
      <point x="-662" y="-193" type="curve"/>
      <point x="-424" y="-193" type="line"/>
      <point x="-376" y="-163"/>
      <point x="-320" y="-119"/>
      <point x="-320" y="-61" type="curve" smooth="yes"/>
      <point x="-320" y="-56"/>
      <point x="-321" y="-51"/>
      <point x="-323" y="-46" type="curve"/>
    </contour>
  </outline>
</glyph>
<glyph name="uni0327" format="2">
  <unicode hex="0327"/>
  <anchor x="-464" y="0" name="_bottom"/>
  <anchor x="-570" y="-220" name="bottom"/>
  <outline>
    <contour>
      <point x="-675" y="-208" type="line"/>
      <point x="-635" y="-216"/>
      <point x="-602" y="-220"/>
      <point x="-570" y="-220" type="curve" smooth="yes"/>
      <point x="-459" y="-220"/>
      <point x="-351" y="-168"/>
      <point x="-351" y="-47" type="curve" smooth="yes"/>
      <point x="-351" y="-27"/>
      <point x="-355" y="-7"/>
      <point x="-361" y="10" type="curve"/>
      <point x="-584" y="10" type="line"/>
      <point x="-576" y="1"/>
      <point x="-572" y="-8"/>
      <point x="-572" y="-17" type="curve" smooth="yes"/>
      <point x="-572" y="-52"/>
      <point x="-598" y="-58"/>
      <point x="-625" y="-58" type="curve" smooth="yes"/>
      <point x="-628" y="-58"/>
      <point x="-642" y="-57"/>
      <point x="-645" y="-56" type="curve"/>
    </contour>
  </outline>
</glyph>
<glyph name="uni0328" format="2">
  <unicode hex="0328"/>
  <anchor x="-331" y="0" name="_ogonek"/>
  <outline>
    <contour>
      <point x="-492" y="38" type="line"/>
      <point x="-566" y="24"/>
      <point x="-616" y="-29"/>
      <point x="-616" y="-94" type="curve" smooth="yes"/>
      <point x="-616" y="-149"/>
      <point x="-571" y="-220"/>
      <point x="-451" y="-220" type="curve" smooth="yes"/>
      <point x="-420" y="-220"/>
      <point x="-385" y="-216"/>
      <point x="-353" y="-208" type="curve"/>
      <point x="-334" y="-71" type="line"/>
      <point x="-342" y="-72"/>
      <point x="-349" y="-73"/>
      <point x="-360" y="-73" type="curve" smooth="yes"/>
      <point x="-387" y="-73"/>
      <point x="-405" y="-64"/>
      <point x="-405" y="-48" type="curve" smooth="yes"/>
      <point x="-405" y="-30"/>
      <point x="-393" y="-12"/>
      <point x="-331" y="0" type="curve"/>
    </contour>
  </outline>
</glyph>
<glyph name="uni0335" format="2">
  <unicode hex="0335"/>
  <anchor x="-213" y="350" name="_center"/>
  <outline>
    <contour>
      <point x="-494" y="263" type="line"/>
      <point x="40" y="263" type="line"/>
      <point x="68" y="437" type="line"/>
      <point x="-466" y="437" type="line"/>
    </contour>
  </outline>
</glyph>
<glyph name="pi" format="2">
  <advance width="777"/>
  <unicode hex="03C0"/>
  <outline>
    <contour>
      <point x="531" y="-10" type="curve" smooth="yes"/>
      <point x="586" y="-10"/>
      <point x="643" y="6"/>
      <point x="687" y="37" type="curve"/>
      <point x="693" y="202" type="line"/>
      <point x="684" y="198"/>
      <point x="678" y="196"/>
      <point x="671" y="196" type="curve" smooth="yes"/>
      <point x="654" y="196"/>
      <point x="648" y="210"/>
      <point x="648" y="225" type="curve" smooth="yes"/>
      <point x="648" y="236"/>
      <point x="650" y="248"/>
      <point x="660" y="317" type="curve"/>
      <point x="723" y="317" type="line"/>
      <point x="761" y="550" type="line"/>
      <point x="228" y="550" type="line" smooth="yes"/>
      <point x="185" y="550"/>
      <point x="131" y="542"/>
      <point x="98" y="523" type="curve"/>
      <point x="52" y="289" type="line"/>
      <point x="74" y="304"/>
      <point x="120" y="312"/>
      <point x="155" y="315" type="curve"/>
      <point x="114" y="210"/>
      <point x="74" y="105"/>
      <point x="33" y="0" type="curve"/>
      <point x="282" y="0" type="line"/>
      <point x="313" y="105"/>
      <point x="348" y="205"/>
      <point x="384" y="317" type="curve"/>
      <point x="416" y="317" type="line"/>
      <point x="391" y="156"/>
      <point x="389" y="137"/>
      <point x="389" y="120" type="curve" smooth="yes"/>
      <point x="389" y="35"/>
      <point x="430" y="-10"/>
    </contour>
  </outline>
</glyph>
<glyph name="endash" format="2">
  <advance width="463"/>
  <unicode hex="2013"/>
  <outline>
    <contour>
      <point x="14" y="234" type="line"/>
      <point x="436" y="234" type="line"/>
      <point x="463" y="402" type="line"/>
      <point x="41" y="402" type="line"/>
    </contour>
  </outline>
</glyph>
<glyph name="dagger" format="2">
  <advance width="636"/>
  <unicode hex="2020"/>
  <outline>
    <contour>
      <point x="138" y="-210" type="line"/>
      <point x="344" y="-210" type="line"/>
      <point x="432" y="342" type="line"/>
      <point x="585" y="342" type="line"/>
      <point x="618" y="550" type="line"/>
      <point x="466" y="550" type="line"/>
      <point x="496" y="740" type="line"/>
      <point x="288" y="740" type="line"/>
      <point x="258" y="550" type="line"/>
      <point x="106" y="550" type="line"/>
      <point x="73" y="342" type="line"/>
      <point x="225" y="342" type="line"/>
    </contour>
  </outline>
</glyph>
<glyph name="daggerdbl" format="2">
  <advance width="636"/>
  <unicode hex="2021"/>
  <outline>
    <contour>
      <point x="529" y="-20" type="line"/>
      <point x="560" y="189" type="line"/>
      <point x="408" y="189" type="line"/>
      <point x="432" y="342" type="line"/>
      <point x="586" y="342" type="line"/>
      <point x="619" y="550" type="line"/>
      <point x="466" y="550" type="line"/>
      <point x="496" y="740" type="line"/>
      <point x="289" y="740" type="line"/>
      <point x="259" y="550" type="line"/>
      <point x="107" y="550" type="line"/>
      <point x="73" y="342" type="line"/>
      <point x="226" y="342" type="line"/>
      <point x="201" y="189" type="line"/>
      <point x="49" y="189" type="line"/>
      <point x="16" y="-20" type="line"/>
      <point x="169" y="-20" type="line"/>
      <point x="137" y="-210" type="line"/>
      <point x="344" y="-210" type="line"/>
      <point x="375" y="-20" type="line"/>
    </contour>
  </outline>
</glyph>
<glyph name="fraction" format="2">
  <advance width="288"/>
  <unicode hex="2044"/>
  <outline>
    <contour>
      <point x="-97" y="-10" type="line"/>
      <point x="628" y="740" type="line"/>
      <point x="414" y="740" type="line"/>
      <point x="-311" y="-10" type="line"/>
    </contour>
  </outline>
</glyph>
<glyph name="uni2052" format="2">
  <advance width="1050"/>
  <unicode hex="2052"/>
  <outline>
    <contour>
      <point x="12" y="0" type="line"/>
      <point x="270" y="0" type="line"/>
      <point x="1061" y="700" type="line"/>
      <point x="803" y="700" type="line"/>
    </contour>
    <contour>
      <point x="111" y="571" type="curve" smooth="yes"/>
      <point x="111" y="512"/>
      <point x="149" y="482"/>
      <point x="245" y="482" type="curve" smooth="yes"/>
      <point x="346" y="482"/>
      <point x="415" y="518"/>
      <point x="415" y="622" type="curve" smooth="yes"/>
      <point x="415" y="681"/>
      <point x="377" y="711"/>
      <point x="282" y="711" type="curve" smooth="yes"/>
      <point x="176" y="711"/>
      <point x="111" y="670"/>
    </contour>
    <contour>
      <point x="657" y="79" type="curve" smooth="yes"/>
      <point x="657" y="20"/>
      <point x="695" y="-10"/>
      <point x="791" y="-10" type="curve" smooth="yes"/>
      <point x="892" y="-10"/>
      <point x="961" y="26"/>
      <point x="961" y="130" type="curve" smooth="yes"/>
      <point x="961" y="189"/>
      <point x="923" y="219"/>
      <point x="828" y="219" type="curve" smooth="yes"/>
      <point x="722" y="219"/>
      <point x="657" y="178"/>
    </contour>
  </outline>
</glyph>
<glyph name="uni2070" format="2">
  <advance width="647"/>
  <unicode hex="2070"/>
  <outline>
    <contour>
      <point x="71" y="569" type="curve" smooth="yes"/>
      <point x="71" y="439"/>
      <point x="184" y="364"/>
      <point x="355" y="364" type="curve" smooth="yes"/>
      <point x="527" y="364"/>
      <point x="668" y="415"/>
      <point x="668" y="570" type="curve" smooth="yes"/>
      <point x="668" y="700"/>
      <point x="555" y="775"/>
      <point x="384" y="775" type="curve" smooth="yes"/>
      <point x="212" y="775"/>
      <point x="71" y="724"/>
    </contour>
    <contour>
      <point x="374" y="666" type="curve" smooth="yes"/>
      <point x="434" y="666"/>
      <point x="457" y="630"/>
      <point x="457" y="583" type="curve" smooth="yes"/>
      <point x="457" y="515"/>
      <point x="426" y="473"/>
      <point x="365" y="473" type="curve" smooth="yes"/>
      <point x="305" y="473"/>
      <point x="282" y="509"/>
      <point x="282" y="556" type="curve" smooth="yes"/>
      <point x="282" y="624"/>
      <point x="313" y="666"/>
    </contour>
  </outline>
</glyph>
<glyph name="uni2074" format="2">
  <advance width="654"/>
  <unicode hex="2074"/>
  <outline>
    <contour>
      <point x="35" y="416" type="line"/>
      <point x="337" y="416" type="line"/>
      <point x="330" y="370" type="line"/>
      <point x="536" y="370" type="line"/>
      <point x="544" y="416" type="line"/>
      <point x="624" y="416" type="line"/>
      <point x="642" y="518" type="line"/>
      <point x="562" y="518" type="line"/>
      <point x="605" y="764" type="line"/>
      <point x="469" y="764" type="line"/>
      <point x="49" y="497" type="line"/>
    </contour>
    <contour>
      <point x="221" y="518" type="line"/>
      <point x="369" y="609" type="line"/>
      <point x="354" y="518" type="line"/>
    </contour>
  </outline>
</glyph>
<glyph name="uni2078" format="2">
  <advance width="671"/>
  <unicode hex="2078"/>
  <outline>
    <contour>
      <point x="354" y="362" type="curve" smooth="yes"/>
      <point x="508" y="362"/>
      <point x="674" y="382"/>
      <point x="674" y="499" type="curve" smooth="yes"/>
      <point x="674" y="652"/>
      <point x="311" y="621"/>
      <point x="311" y="655" type="curve" smooth="yes"/>
      <point x="311" y="668"/>
      <point x="339" y="678"/>
      <point x="385" y="678" type="curve" smooth="yes"/>
      <point x="436" y="678"/>
      <point x="469" y="670"/>
      <point x="469" y="651" type="curve" smooth="yes"/>
      <point x="469" y="635"/>
      <point x="451" y="623"/>
      <point x="428" y="615" type="curve"/>
      <point x="590" y="575" type="line"/>
      <point x="645" y="601"/>
      <point x="664" y="623"/>
      <point x="664" y="655" type="curve" smooth="yes"/>
      <point x="664" y="725"/>
      <point x="567" y="773"/>
      <point x="401" y="773" type="curve" smooth="yes"/>
      <point x="207" y="773"/>
      <point x="122" y="713"/>
      <point x="122" y="634" type="curve" smooth="yes"/>
      <point x="122" y="489"/>
      <point x="460" y="535"/>
      <point x="460" y="484" type="curve" smooth="yes"/>
      <point x="460" y="472"/>
      <point x="452" y="462"/>
      <point x="388" y="462" type="curve" smooth="yes"/>
      <point x="303" y="462"/>
      <point x="270" y="478"/>
      <point x="270" y="498" type="curve" smooth="yes"/>
      <point x="270" y="511"/>
      <point x="285" y="525"/>
      <point x="299" y="529" type="curve"/>
      <point x="172" y="574" type="line"/>
      <point x="102" y="562"/>
      <point x="65" y="532"/>
      <point x="65" y="482" type="curve" smooth="yes"/>
      <point x="65" y="396"/>
      <point x="207" y="362"/>
    </contour>
  </outline>
</glyph>
<glyph name="uni2079" format="2">
  <advance width="626"/>
  <unicode hex="2079"/>
  <outline>
    <contour>
      <point x="375" y="773" type="curve" smooth="yes"/>
      <point x="239" y="773"/>
      <point x="72" y="758"/>
      <point x="72" y="623" type="curve" smooth="yes"/>
      <point x="72" y="556"/>
      <point x="145" y="511"/>
      <point x="288" y="511" type="curve" smooth="yes"/>
      <point x="353" y="511"/>
      <point x="426" y="520"/>
      <point x="500" y="540" type="curve"/>
      <point x="509" y="628" type="line"/>
      <point x="456" y="620"/>
      <point x="404" y="611"/>
      <point x="354" y="611" type="curve" smooth="yes"/>
      <point x="278" y="611"/>
      <point x="262" y="620"/>
      <point x="262" y="634" type="curve" smooth="yes"/>
      <point x="262" y="651"/>
      <point x="287" y="660"/>
      <point x="346" y="660" type="curve" smooth="yes"/>
      <point x="418" y="660"/>
      <point x="484" y="644"/>
      <point x="484" y="591" type="curve" smooth="yes"/>
      <point x="484" y="536"/>
      <point x="464" y="516"/>
      <point x="410" y="497" type="curve" smooth="yes"/>
      <point x="375" y="485"/>
      <point x="321" y="476"/>
      <point x="272" y="476" type="curve" smooth="yes"/>
      <point x="203" y="476"/>
      <point x="175" y="487"/>
      <point x="120" y="497" type="curve"/>
      <point x="75" y="390" type="line"/>
      <point x="117" y="378"/>
      <point x="174" y="362"/>
      <point x="267" y="362" type="curve" smooth="yes"/>
      <point x="482" y="362"/>
      <point x="650" y="431"/>
      <point x="650" y="585" type="curve" smooth="yes"/>
      <point x="650" y="710"/>
      <point x="541" y="773"/>
    </contour>
  </outline>
</glyph>
<glyph name="n.superior" format="2">
  <advance width="588"/>
  <unicode hex="207F"/>
  <outline>
    <contour>
      <point x="499" y="364" type="curve" smooth="yes"/>
      <point x="531" y="364"/>
      <point x="579" y="369"/>
      <point x="602" y="372" type="curve"/>
      <point x="602" y="481" type="line"/>
      <point x="598" y="480"/>
      <point x="591" y="480"/>
      <point x="588" y="480" type="curve" smooth="yes"/>
      <point x="579" y="480"/>
      <point x="575" y="486"/>
      <point x="575" y="492" type="curve" smooth="yes"/>
      <point x="575" y="514"/>
      <point x="592" y="552"/>
      <point x="592" y="592" type="curve" smooth="yes"/>
      <point x="592" y="645"/>
      <point x="543" y="690"/>
      <point x="451" y="690" type="curve" smooth="yes"/>
      <point x="403" y="690"/>
      <point x="363" y="678"/>
      <point x="313" y="652" type="curve"/>
      <point x="317" y="683" type="line"/>
      <point x="122" y="683" type="line"/>
      <point x="74" y="370" type="line"/>
      <point x="278" y="370" type="line"/>
      <point x="306" y="556" type="line"/>
      <point x="324" y="566"/>
      <point x="336" y="569"/>
      <point x="349" y="569" type="curve" smooth="yes"/>
      <point x="374" y="569"/>
      <point x="387" y="560"/>
      <point x="387" y="534" type="curve" smooth="yes"/>
      <point x="387" y="510"/>
      <point x="374" y="476"/>
      <point x="374" y="447" type="curve" smooth="yes"/>
      <point x="374" y="384"/>
      <point x="423" y="364"/>
    </contour>
  </outline>
</glyph>
<glyph name="colonmonetary" format="2">
  <advance width="1050"/>
  <unicode hex="20A1"/>
  <outline>
    <contour>
      <point x="617" y="-10" type="curve" smooth="yes"/>
      <point x="730" y="-10"/>
      <point x="834" y="3"/>
      <point x="964" y="28" type="curve"/>
      <point x="940" y="238" type="line"/>
      <point x="839" y="223"/>
      <point x="758" y="207"/>
      <point x="656" y="207" type="curve" smooth="yes"/>
      <point x="487" y="207"/>
      <point x="399" y="230"/>
      <point x="399" y="335" type="curve" smooth="yes"/>
      <point x="399" y="447"/>
      <point x="483" y="493"/>
      <point x="639" y="493" type="curve" smooth="yes"/>
      <point x="746" y="493"/>
      <point x="879" y="466"/>
      <point x="957" y="446" type="curve"/>
      <point x="1018" y="652" type="line"/>
      <point x="883" y="698"/>
      <point x="747" y="710"/>
      <point x="614" y="710" type="curve" smooth="yes"/>
      <point x="291" y="710"/>
      <point x="96" y="567"/>
      <point x="96" y="307" type="curve" smooth="yes"/>
      <point x="96" y="78"/>
      <point x="265" y="-10"/>
    </contour>
    <contour>
      <point x="419" y="625" type="line"/>
      <point x="610" y="626" type="line"/>
      <point x="657" y="805" type="line"/>
      <point x="466" y="805" type="line"/>
    </contour>
    <contour>
      <point x="681" y="635" type="line"/>
      <point x="872" y="636" type="line"/>
      <point x="917" y="805" type="line"/>
      <point x="726" y="805" type="line"/>
    </contour>
    <contour>
      <point x="256" y="-105" type="line"/>
      <point x="447" y="-105" type="line"/>
      <point x="497" y="82" type="line"/>
      <point x="304" y="77" type="line"/>
    </contour>
    <contour>
      <point x="516" y="-105" type="line"/>
      <point x="707" y="-105" type="line"/>
      <point x="757" y="82" type="line"/>
      <point x="564" y="77" type="line"/>
    </contour>
  </outline>
</glyph>
<glyph name="franc" format="2">
  <advance width="1050"/>
  <unicode hex="20A3"/>
  <outline>
    <contour>
      <point x="120" y="0" type="line"/>
      <point x="430" y="0" type="line"/>
      <point x="511" y="510" type="line"/>
      <point x="1069" y="510" type="line"/>
      <point x="1099" y="700" type="line"/>
      <point x="231" y="700" type="line"/>
    </contour>
    <contour>
      <point x="31" y="187" type="line"/>
      <point x="868" y="187" type="line"/>
      <point x="882" y="278" type="line"/>
      <point x="45" y="278" type="line"/>
    </contour>
    <contour>
      <point x="51" y="316" type="line"/>
      <point x="888" y="316" type="line"/>
      <point x="903" y="407" type="line"/>
      <point x="66" y="407" type="line"/>
    </contour>
  </outline>
</glyph>
<glyph name="lira" format="2">
  <advance width="1050"/>
  <unicode hex="20A4"/>
  <outline>
    <contour>
      <point x="115" y="0" type="line"/>
      <point x="849" y="0" type="line"/>
      <point x="879" y="190" type="line"/>
      <point x="470" y="190" type="line"/>
      <point x="502" y="208"/>
      <point x="531" y="240"/>
      <point x="531" y="288" type="curve" smooth="yes"/>
      <point x="531" y="352"/>
      <point x="494" y="385"/>
      <point x="494" y="442" type="curve" smooth="yes"/>
      <point x="494" y="486"/>
      <point x="547" y="511"/>
      <point x="643" y="511" type="curve" smooth="yes"/>
      <point x="739" y="511"/>
      <point x="804" y="501"/>
      <point x="884" y="474" type="curve"/>
      <point x="949" y="663" type="line"/>
      <point x="850" y="694"/>
      <point x="789" y="710"/>
      <point x="649" y="710" type="curve" smooth="yes"/>
      <point x="491" y="710"/>
      <point x="225" y="675"/>
      <point x="225" y="488" type="curve" smooth="yes"/>
      <point x="225" y="411"/>
      <point x="268" y="349"/>
      <point x="268" y="289" type="curve" smooth="yes"/>
      <point x="268" y="235"/>
      <point x="230" y="202"/>
      <point x="140" y="158" type="curve"/>
    </contour>
    <contour>
      <point x="142" y="244" type="line"/>
      <point x="733" y="244" type="line"/>
      <point x="746" y="325" type="line"/>
      <point x="154" y="325" type="line"/>
    </contour>
    <contour>
      <point x="161" y="364" type="line"/>
      <point x="752" y="364" type="line"/>
      <point x="765" y="445" type="line"/>
      <point x="173" y="445" type="line"/>
    </contour>
  </outline>
</glyph>
<glyph name="Euro" format="2">
  <advance width="1050"/>
  <unicode hex="20AC"/>
  <outline>
    <contour>
      <point x="156" y="307" type="curve" smooth="yes"/>
      <point x="156" y="83"/>
      <point x="320" y="-10"/>
      <point x="621" y="-10" type="curve" smooth="yes"/>
      <point x="733" y="-10"/>
      <point x="833" y="4"/>
      <point x="926" y="26" type="curve"/>
      <point x="915" y="210" type="line"/>
      <point x="839" y="200"/>
      <point x="774" y="190"/>
      <point x="656" y="190" type="curve" smooth="yes"/>
      <point x="481" y="190"/>
      <point x="422" y="248"/>
      <point x="422" y="331" type="curve" smooth="yes"/>
      <point x="422" y="463"/>
      <point x="512" y="505"/>
      <point x="704" y="505" type="curve" smooth="yes"/>
      <point x="776" y="505"/>
      <point x="853" y="499"/>
      <point x="944" y="484" type="curve"/>
      <point x="1012" y="677" type="line"/>
      <point x="947" y="693"/>
      <point x="864" y="710"/>
      <point x="705" y="710" type="curve" smooth="yes"/>
      <point x="335" y="710"/>
      <point x="156" y="584"/>
    </contour>
    <contour>
      <point x="792" y="366" type="line"/>
      <point x="807" y="457" type="line"/>
      <point x="115" y="457" type="line"/>
      <point x="100" y="366" type="line"/>
    </contour>
    <contour>
      <point x="772" y="237" type="line"/>
      <point x="786" y="328" type="line"/>
      <point x="94" y="328" type="line"/>
      <point x="80" y="237" type="line"/>
    </contour>
  </outline>
</glyph>
<glyph name="uni20AD" format="2">
  <advance width="1050"/>
  <unicode hex="20AD"/>
  <outline>
    <contour>
      <point x="939" y="-10" type="curve" smooth="yes"/>
      <point x="950" y="-10"/>
      <point x="962" y="-9"/>
      <point x="975" y="-8" type="curve"/>
      <point x="1004" y="176" type="line"/>
      <point x="991" y="175"/>
      <point x="980" y="175"/>
      <point x="969" y="175" type="curve" smooth="yes"/>
      <point x="888" y="175"/>
      <point x="832" y="198"/>
      <point x="762" y="239" type="curve" smooth="yes"/>
      <point x="645" y="308" type="line"/>
      <point x="985" y="308" type="line"/>
      <point x="1003" y="419" type="line"/>
      <point x="686" y="419" type="line"/>
      <point x="837" y="474"/>
      <point x="982" y="535"/>
      <point x="1053" y="602" type="curve"/>
      <point x="887" y="720" type="line"/>
      <point x="739" y="593"/>
      <point x="547" y="503"/>
      <point x="396" y="438" type="curve"/>
      <point x="438" y="700" type="line"/>
      <point x="169" y="700" type="line"/>
      <point x="125" y="419" type="line"/>
      <point x="46" y="419" type="line"/>
      <point x="28" y="308" type="line"/>
      <point x="107" y="308" type="line"/>
      <point x="58" y="0" type="line"/>
      <point x="327" y="0" type="line"/>
      <point x="368" y="263" type="line"/>
      <point x="654" y="67" type="line" smooth="yes"/>
      <point x="731" y="14"/>
      <point x="822" y="-10"/>
    </contour>
  </outline>
</glyph>
<glyph name="uni20B1" format="2">
  <advance width="1050"/>
  <unicode hex="20B1"/>
  <outline>
    <contour>
      <point x="44" y="0" type="line"/>
      <point x="343" y="0" type="line"/>
      <point x="372" y="167" type="line"/>
      <point x="466" y="163"/>
      <point x="494" y="162"/>
      <point x="542" y="162" type="curve" smooth="yes"/>
      <point x="836" y="162"/>
      <point x="983" y="235"/>
      <point x="983" y="464" type="curve" smooth="yes"/>
      <point x="983" y="653"/>
      <point x="846" y="710"/>
      <point x="565" y="710" type="curve" smooth="yes"/>
      <point x="536" y="710"/>
      <point x="397" y="707"/>
      <point x="160" y="700" type="curve"/>
    </contour>
    <contour>
      <point x="427" y="501" type="line"/>
      <point x="506" y="505"/>
      <point x="514" y="505"/>
      <point x="546" y="505" type="curve" smooth="yes"/>
      <point x="623" y="505"/>
      <point x="671" y="495"/>
      <point x="671" y="447" type="curve" smooth="yes"/>
      <point x="671" y="392"/>
      <point x="640" y="371"/>
      <point x="520" y="371" type="curve" smooth="yes"/>
      <point x="490" y="371"/>
      <point x="471" y="372"/>
      <point x="407" y="376" type="curve"/>
    </contour>
    <contour>
      <point x="27" y="443" type="line"/>
      <point x="256" y="443" type="line"/>
      <point x="274" y="557" type="line"/>
      <point x="45" y="557" type="line"/>
    </contour>
    <contour>
      <point x="838" y="443" type="line"/>
      <point x="1076" y="443" type="line"/>
      <point x="1094" y="557" type="line"/>
      <point x="856" y="557" type="line"/>
    </contour>
    <contour>
      <point x="2" y="288" type="line"/>
      <point x="231" y="288" type="line"/>
      <point x="250" y="403" type="line"/>
      <point x="21" y="403" type="line"/>
    </contour>
    <contour>
      <point x="813" y="288" type="line"/>
      <point x="1051" y="288" type="line"/>
      <point x="1070" y="403" type="line"/>
      <point x="832" y="403" type="line"/>
    </contour>
  </outline>
</glyph>
<glyph name="uni20B2" format="2">
  <advance width="1050"/>
  <unicode hex="20B2"/>
  <outline>
    <contour>
      <point x="540" y="-10" type="curve" smooth="yes"/>
      <point x="746" y="-10"/>
      <point x="876" y="25"/>
      <point x="967" y="58" type="curve"/>
      <point x="1029" y="428" type="line"/>
      <point x="616" y="428" type="line"/>
      <point x="586" y="244" type="line"/>
      <point x="747" y="244" type="line"/>
      <point x="741" y="200" type="line"/>
      <point x="714" y="190"/>
      <point x="663" y="181"/>
      <point x="604" y="181" type="curve" smooth="yes"/>
      <point x="452" y="181"/>
      <point x="368" y="226"/>
      <point x="368" y="324" type="curve" smooth="yes"/>
      <point x="368" y="451"/>
      <point x="479" y="500"/>
      <point x="661" y="500" type="curve" smooth="yes"/>
      <point x="773" y="500"/>
      <point x="862" y="487"/>
      <point x="952" y="469" type="curve"/>
      <point x="1035" y="669" type="line"/>
      <point x="907" y="700"/>
      <point x="790" y="710"/>
      <point x="642" y="710" type="curve" smooth="yes"/>
      <point x="276" y="710"/>
      <point x="81" y="575"/>
      <point x="81" y="300" type="curve" smooth="yes"/>
      <point x="81" y="99"/>
      <point x="243" y="-10"/>
    </contour>
    <contour>
      <point x="563" y="654" type="line"/>
      <point x="749" y="659" type="line"/>
      <point x="773" y="805" type="line"/>
      <point x="588" y="805" type="line"/>
    </contour>
    <contour>
      <point x="649" y="47" type="line"/>
      <point x="465" y="43" type="line"/>
      <point x="442" y="-105" type="line"/>
      <point x="626" y="-105" type="line"/>
    </contour>
  </outline>
</glyph>
<glyph name="uni20B5" format="2">
  <advance width="1050"/>
  <unicode hex="20B5"/>
  <outline>
    <contour>
      <point x="617" y="-10" type="curve" smooth="yes"/>
      <point x="730" y="-10"/>
      <point x="834" y="3"/>
      <point x="964" y="28" type="curve"/>
      <point x="940" y="238" type="line"/>
      <point x="839" y="223"/>
      <point x="758" y="207"/>
      <point x="656" y="207" type="curve" smooth="yes"/>
      <point x="487" y="207"/>
      <point x="399" y="230"/>
      <point x="399" y="335" type="curve" smooth="yes"/>
      <point x="399" y="447"/>
      <point x="483" y="493"/>
      <point x="639" y="493" type="curve" smooth="yes"/>
      <point x="746" y="493"/>
      <point x="879" y="466"/>
      <point x="957" y="446" type="curve"/>
      <point x="1018" y="652" type="line"/>
      <point x="883" y="698"/>
      <point x="747" y="710"/>
      <point x="614" y="710" type="curve" smooth="yes"/>
      <point x="291" y="710"/>
      <point x="96" y="567"/>
      <point x="96" y="307" type="curve" smooth="yes"/>
      <point x="96" y="78"/>
      <point x="265" y="-10"/>
    </contour>
    <contour>
      <point x="550" y="654" type="line"/>
      <point x="736" y="659" type="line"/>
      <point x="760" y="805" type="line"/>
      <point x="575" y="805" type="line"/>
    </contour>
    <contour>
      <point x="636" y="47" type="line"/>
      <point x="452" y="43" type="line"/>
      <point x="429" y="-105" type="line"/>
      <point x="613" y="-105" type="line"/>
    </contour>
  </outline>
</glyph>
<glyph name="uni20B9" format="2">
  <advance width="1050"/>
  <unicode hex="20B9"/>
  <outline>
    <contour>
      <point x="490" y="0" type="line"/>
      <point x="954" y="0" type="line"/>
      <point x="441" y="189" type="line"/>
      <point x="441" y="189" type="line"/>
      <point x="556" y="189" type="line"/>
      <point x="736" y="189"/>
      <point x="872" y="285"/>
      <point x="872" y="465" type="curve" smooth="yes"/>
      <point x="872" y="511"/>
      <point x="861" y="541"/>
      <point x="841" y="565" type="curve"/>
      <point x="1025" y="565" type="line"/>
      <point x="1046" y="700" type="line"/>
      <point x="120" y="700" type="line"/>
      <point x="99" y="565" type="line"/>
      <point x="519" y="565" type="line" smooth="yes"/>
      <point x="583" y="565"/>
      <point x="641" y="537"/>
      <point x="641" y="465" type="curve" smooth="yes"/>
      <point x="641" y="383"/>
      <point x="610" y="329"/>
      <point x="472" y="329" type="curve" smooth="yes"/>
      <point x="62" y="329" type="line"/>
      <point x="39" y="189" type="line"/>
    </contour>
    <contour>
      <point x="69" y="377" type="line"/>
      <point x="995" y="377" type="line"/>
      <point x="1017" y="517" type="line"/>
      <point x="91" y="517" type="line"/>
    </contour>
  </outline>
</glyph>
<glyph name="uni2120" format="2">
  <advance width="1006"/>
  <unicode hex="2120"/>
  <outline>
    <contour>
      <point x="529" y="371" type="line"/>
      <point x="659" y="371" type="line"/>
      <point x="683" y="517" type="line"/>
      <point x="732" y="414" type="line"/>
      <point x="786" y="414" type="line"/>
      <point x="882" y="517" type="line"/>
      <point x="858" y="371" type="line"/>
      <point x="987" y="371" type="line"/>
      <point x="1040" y="700" type="line"/>
      <point x="911" y="700" type="line"/>
      <point x="785" y="571" type="line"/>
      <point x="710" y="700" type="line"/>
      <point x="582" y="700" type="line"/>
    </contour>
    <contour>
      <point x="513" y="691" type="line"/>
      <point x="466" y="701"/>
      <point x="409" y="710"/>
      <point x="327" y="710" type="curve" smooth="yes"/>
      <point x="221" y="710"/>
      <point x="79" y="694"/>
      <point x="79" y="570" type="curve" smooth="yes"/>
      <point x="79" y="447"/>
      <point x="343" y="492"/>
      <point x="343" y="467" type="curve" smooth="yes"/>
      <point x="343" y="459"/>
      <point x="315" y="458"/>
      <point x="298" y="458" type="curve" smooth="yes"/>
      <point x="214" y="458"/>
      <point x="142" y="469"/>
      <point x="74" y="492" type="curve"/>
      <point x="33" y="392" type="line"/>
      <point x="91" y="375"/>
      <point x="171" y="364"/>
      <point x="249" y="364" type="curve" smooth="yes"/>
      <point x="354" y="364"/>
      <point x="511" y="377"/>
      <point x="511" y="502" type="curve" smooth="yes"/>
      <point x="511" y="625"/>
      <point x="243" y="579"/>
      <point x="243" y="602" type="curve" smooth="yes"/>
      <point x="243" y="612"/>
      <point x="271" y="613"/>
      <point x="288" y="613" type="curve" smooth="yes"/>
      <point x="357" y="613"/>
      <point x="418" y="608"/>
      <point x="474" y="591" type="curve"/>
    </contour>
  </outline>
</glyph>
<glyph name="trademark" format="2">
  <advance width="986"/>
  <unicode hex="2122"/>
  <outline>
    <contour>
      <point x="499" y="587" type="line"/>
      <point x="517" y="700" type="line"/>
      <point x="88" y="700" type="line"/>
      <point x="70" y="587" type="line"/>
      <point x="216" y="587" type="line"/>
      <point x="181" y="371" type="line"/>
      <point x="316" y="371" type="line"/>
      <point x="351" y="587" type="line"/>
    </contour>
    <contour>
      <point x="509" y="371" type="line"/>
      <point x="639" y="371" type="line"/>
      <point x="663" y="517" type="line"/>
      <point x="712" y="414" type="line"/>
      <point x="766" y="414" type="line"/>
      <point x="862" y="517" type="line"/>
      <point x="838" y="371" type="line"/>
      <point x="967" y="371" type="line"/>
      <point x="1020" y="700" type="line"/>
      <point x="891" y="700" type="line"/>
      <point x="765" y="571" type="line"/>
      <point x="690" y="700" type="line"/>
      <point x="562" y="700" type="line"/>
    </contour>
  </outline>
</glyph>
<glyph name="uni2126" format="2">
  <advance width="1097"/>
  <unicode hex="2126"/>
  <outline>
    <contour>
      <point x="559" y="149" type="curve"/>
      <point x="534" y="0" type="line"/>
      <point x="1003" y="0" type="line"/>
      <point x="1042" y="230" type="line"/>
      <point x="920" y="230" type="line"/>
      <point x="1011" y="290"/>
      <point x="1061" y="371"/>
      <point x="1061" y="460" type="curve" smooth="yes"/>
      <point x="1061" y="611"/>
      <point x="877" y="710"/>
      <point x="611" y="710" type="curve" smooth="yes"/>
      <point x="283" y="710"/>
      <point x="87" y="571"/>
      <point x="87" y="381" type="curve" smooth="yes"/>
      <point x="87" y="323"/>
      <point x="111" y="278"/>
      <point x="169" y="230" type="curve"/>
      <point x="43" y="230" type="line"/>
      <point x="4" y="0" type="line"/>
      <point x="478" y="0" type="line"/>
      <point x="503" y="149" type="line"/>
      <point x="430" y="178"/>
      <point x="382" y="248"/>
      <point x="382" y="324" type="curve" smooth="yes"/>
      <point x="382" y="441"/>
      <point x="457" y="511"/>
      <point x="586" y="511" type="curve" smooth="yes"/>
      <point x="688" y="511"/>
      <point x="746" y="459"/>
      <point x="746" y="382" type="curve" smooth="yes"/>
      <point x="746" y="281"/>
      <point x="669" y="192"/>
    </contour>
  </outline>
</glyph>
<glyph name="uni2206" format="2">
  <advance width="1061"/>
  <unicode hex="2206"/>
  <outline>
    <contour>
      <point x="2" y="0" type="line"/>
      <point x="971" y="0" type="line"/>
      <point x="1006" y="216" type="line"/>
      <point x="744" y="700" type="line"/>
      <point x="466" y="700" type="line"/>
      <point x="37" y="216" type="line"/>
    </contour>
    <contour>
      <point x="370" y="218" type="line"/>
      <point x="579" y="462" type="line"/>
      <point x="691" y="218" type="line"/>
    </contour>
  </outline>
</glyph>
<glyph name="product" format="2">
  <advance width="1077"/>
  <unicode hex="220F"/>
  <outline>
    <contour>
      <point x="3" y="-210" type="line"/>
      <point x="296" y="-210" type="line"/>
      <point x="405" y="460" type="line"/>
      <point x="741" y="460" type="line"/>
      <point x="632" y="-210" type="line"/>
      <point x="917" y="-210" type="line"/>
      <point x="1064" y="700" type="line"/>
      <point x="150" y="700" type="line"/>
    </contour>
  </outline>
</glyph>
<glyph name="radical" format="2">
  <advance width="818"/>
  <unicode hex="221A"/>
  <outline>
    <contour>
      <point x="48" y="342" type="line"/>
      <point x="136" y="342" type="line"/>
      <point x="225" y="0" type="line"/>
      <point x="531" y="0" type="line"/>
      <point x="856" y="740" type="line"/>
      <point x="571" y="740" type="line"/>
      <point x="404" y="244" type="line"/>
      <point x="375" y="550" type="line"/>
      <point x="82" y="550" type="line"/>
    </contour>
  </outline>
</glyph>
<glyph name="infinity" format="2">
  <advance width="945"/>
  <unicode hex="221E"/>
  <outline>
    <contour>
      <point x="224" y="90" type="curve" smooth="yes"/>
      <point x="306" y="90"/>
      <point x="384" y="130"/>
      <point x="441" y="183" type="curve"/>
      <point x="490" y="135"/>
      <point x="551" y="96"/>
      <point x="633" y="96" type="curve" smooth="yes"/>
      <point x="796" y="96"/>
      <point x="905" y="230"/>
      <point x="905" y="377" type="curve" smooth="yes"/>
      <point x="905" y="481"/>
      <point x="845" y="559"/>
      <point x="733" y="559" type="curve" smooth="yes"/>
      <point x="652" y="559"/>
      <point x="580" y="520"/>
      <point x="516" y="454" type="curve"/>
      <point x="472" y="504"/>
      <point x="417" y="556"/>
      <point x="314" y="556" type="curve" smooth="yes"/>
      <point x="154" y="556"/>
      <point x="55" y="422"/>
      <point x="55" y="268" type="curve" smooth="yes"/>
      <point x="55" y="163"/>
      <point x="115" y="90"/>
    </contour>
    <contour>
      <point x="292" y="243" type="curve" smooth="yes"/>
      <point x="266" y="243"/>
      <point x="256" y="256"/>
      <point x="256" y="273" type="curve" smooth="yes"/>
      <point x="256" y="303"/>
      <point x="274" y="316"/>
      <point x="296" y="316" type="curve" smooth="yes"/>
      <point x="319" y="316"/>
      <point x="340" y="295"/>
      <point x="360" y="272" type="curve"/>
      <point x="336" y="253"/>
      <point x="313" y="243"/>
    </contour>
    <contour>
      <point x="673" y="407" type="curve" smooth="yes"/>
      <point x="691" y="407"/>
      <point x="703" y="399"/>
      <point x="703" y="380" type="curve" smooth="yes"/>
      <point x="703" y="355"/>
      <point x="684" y="339"/>
      <point x="661" y="339" type="curve" smooth="yes"/>
      <point x="639" y="339"/>
      <point x="618" y="343"/>
      <point x="591" y="368" type="curve"/>
      <point x="619" y="392"/>
      <point x="646" y="407"/>
    </contour>
  </outline>
</glyph>
<glyph name="triagup" format="2">
  <advance width="694"/>
  <unicode hex="25B2"/>
  <outline>
    <contour>
      <point x="121" y="112" type="line"/>
      <point x="590" y="112" type="line"/>
      <point x="356" y="626" type="line"/>
    </contour>
  </outline>
</glyph>
<glyph name="uni25B3" format="2">
  <advance width="694"/>
  <unicode hex="25B3"/>
  <outline>
    <contour>
      <point x="121" y="112" type="line"/>
      <point x="590" y="112" type="line"/>
      <point x="356" y="626" type="line"/>
    </contour>
    <contour>
      <point x="246" y="192" type="line"/>
      <point x="356" y="433" type="line"/>
      <point x="465" y="192" type="line"/>
    </contour>
  </outline>
</glyph>
<glyph name="uni25BD" format="2">
  <advance width="694"/>
  <unicode hex="25BD"/>
  <outline>
    <contour>
      <point x="356" y="32" type="line"/>
      <point x="590" y="546" type="line"/>
      <point x="121" y="546" type="line"/>
    </contour>
    <contour>
      <point x="356" y="225" type="line"/>
      <point x="245" y="466" type="line"/>
      <point x="465" y="466" type="line"/>
    </contour>
  </outline>
</glyph>
<glyph name="uni25C1" format="2">
  <advance width="694"/>
  <unicode hex="25C1"/>
  <outline>
    <contour>
      <point x="68" y="328" type="line"/>
      <point x="582" y="94" type="line"/>
      <point x="582" y="563" type="line"/>
    </contour>
    <contour>
      <point x="261" y="328" type="line"/>
      <point x="502" y="439" type="line"/>
      <point x="502" y="219" type="line"/>
    </contour>
  </outline>
</glyph>
<glyph name="circle" format="2">
  <advance width="694"/>
  <unicode hex="25CB"/>
  <outline>
    <contour>
      <point x="115" y="320" type="curve" smooth="yes"/>
      <point x="115" y="188"/>
      <point x="222" y="81"/>
      <point x="354" y="81" type="curve" smooth="yes"/>
      <point x="486" y="81"/>
      <point x="594" y="188"/>
      <point x="594" y="320" type="curve" smooth="yes"/>
      <point x="594" y="452"/>
      <point x="486" y="560"/>
      <point x="354" y="560" type="curve" smooth="yes"/>
      <point x="222" y="560"/>
      <point x="115" y="452"/>
    </contour>
    <contour>
      <point x="195" y="320" type="curve" smooth="yes"/>
      <point x="195" y="408"/>
      <point x="266" y="480"/>
      <point x="354" y="480" type="curve" smooth="yes"/>
      <point x="442" y="480"/>
      <point x="514" y="408"/>
      <point x="514" y="320" type="curve" smooth="yes"/>
      <point x="514" y="232"/>
      <point x="442" y="161"/>
      <point x="354" y="161" type="curve" smooth="yes"/>
      <point x="266" y="161"/>
      <point x="195" y="232"/>
    </contour>
  </outline>
</glyph>
<glyph name="uni2787" format="2">
  <advance width="917"/>
  <unicode hex="2787"/>
  <outline>
    <contour>
      <point x="461" y="171" type="curve" smooth="yes"/>
      <point x="653" y="171"/>
      <point x="735" y="205"/>
      <point x="735" y="286" type="curve" smooth="yes"/>
      <point x="735" y="425"/>
      <point x="404" y="387"/>
      <point x="404" y="415" type="curve" smooth="yes"/>
      <point x="404" y="426"/>
      <point x="418" y="430"/>
      <point x="457" y="430" type="curve" smooth="yes"/>
      <point x="508" y="430"/>
      <point x="531" y="426"/>
      <point x="531" y="410" type="curve" smooth="yes"/>
      <point x="531" y="396"/>
      <point x="520" y="389"/>
      <point x="508" y="384" type="curve"/>
      <point x="650" y="361" type="line"/>
      <point x="679" y="375"/>
      <point x="702" y="397"/>
      <point x="702" y="426" type="curve" smooth="yes"/>
      <point x="702" y="488"/>
      <point x="615" y="525"/>
      <point x="467" y="525" type="curve" smooth="yes"/>
      <point x="315" y="525"/>
      <point x="235" y="484"/>
      <point x="235" y="406" type="curve" smooth="yes"/>
      <point x="235" y="254"/>
      <point x="549" y="302"/>
      <point x="549" y="270" type="curve" smooth="yes"/>
      <point x="549" y="262"/>
      <point x="533" y="257"/>
      <point x="476" y="257" type="curve" smooth="yes"/>
      <point x="419" y="257"/>
      <point x="390" y="267"/>
      <point x="390" y="285" type="curve" smooth="yes"/>
      <point x="390" y="299"/>
      <point x="399" y="309"/>
      <point x="416" y="317" type="curve"/>
      <point x="275" y="361" type="line"/>
      <point x="223" y="334"/>
      <point x="204" y="313"/>
      <point x="204" y="282" type="curve" smooth="yes"/>
      <point x="204" y="207"/>
      <point x="288" y="171"/>
    </contour>
    <contour>
      <point x="470" y="-10" type="curve" smooth="yes"/>
      <point x="726" y="-10"/>
      <point x="873" y="139"/>
      <point x="873" y="348" type="curve" smooth="yes"/>
      <point x="873" y="559"/>
      <point x="723" y="710"/>
      <point x="470" y="710" type="curve" smooth="yes"/>
      <point x="217" y="710"/>
      <point x="67" y="559"/>
      <point x="67" y="348" type="curve" smooth="yes"/>
      <point x="67" y="139"/>
      <point x="214" y="-10"/>
    </contour>
    <contour>
      <point x="470" y="614" type="curve" smooth="yes"/>
      <point x="668" y="614"/>
      <point x="767" y="509"/>
      <point x="767" y="348" type="curve" smooth="yes"/>
      <point x="767" y="189"/>
      <point x="669" y="79"/>
      <point x="470" y="79" type="curve" smooth="yes"/>
      <point x="271" y="79"/>
      <point x="173" y="189"/>
      <point x="173" y="348" type="curve" smooth="yes"/>
      <point x="173" y="509"/>
      <point x="272" y="614"/>
    </contour>
  </outline>
</glyph>
<glyph name="uni278C" format="2">
  <advance width="917"/>
  <unicode hex="278C"/>
  <outline>
    <contour>
      <point x="470" y="-10" type="curve" smooth="yes"/>
      <point x="726" y="-10"/>
      <point x="873" y="139"/>
      <point x="873" y="348" type="curve" smooth="yes"/>
      <point x="873" y="559"/>
      <point x="723" y="710"/>
      <point x="470" y="710" type="curve" smooth="yes"/>
      <point x="217" y="710"/>
      <point x="67" y="559"/>
      <point x="67" y="348" type="curve" smooth="yes"/>
      <point x="67" y="139"/>
      <point x="214" y="-10"/>
    </contour>
    <contour>
      <point x="453" y="171" type="curve" smooth="yes"/>
      <point x="360" y="171"/>
      <point x="294" y="178"/>
      <point x="240" y="195" type="curve"/>
      <point x="268" y="290" type="line"/>
      <point x="303" y="278"/>
      <point x="369" y="273"/>
      <point x="436" y="273" type="curve" smooth="yes"/>
      <point x="502" y="273"/>
      <point x="524" y="276"/>
      <point x="524" y="287" type="curve" smooth="yes"/>
      <point x="524" y="294"/>
      <point x="516" y="297"/>
      <point x="503" y="297" type="curve" smooth="yes"/>
      <point x="342" y="297" type="line"/>
      <point x="342" y="395" type="line"/>
      <point x="499" y="395" type="line" smooth="yes"/>
      <point x="518" y="395"/>
      <point x="523" y="398"/>
      <point x="523" y="403" type="curve" smooth="yes"/>
      <point x="523" y="411"/>
      <point x="501" y="417"/>
      <point x="416" y="417" type="curve" smooth="yes"/>
      <point x="354" y="417"/>
      <point x="293" y="410"/>
      <point x="270" y="400" type="curve"/>
      <point x="247" y="505" type="line"/>
      <point x="289" y="517"/>
      <point x="373" y="525"/>
      <point x="464" y="525" type="curve" smooth="yes"/>
      <point x="620" y="525"/>
      <point x="697" y="497"/>
      <point x="697" y="436" type="curve" smooth="yes"/>
      <point x="697" y="399"/>
      <point x="672" y="372"/>
      <point x="628" y="364" type="curve"/>
      <point x="678" y="348"/>
      <point x="702" y="325"/>
      <point x="702" y="283" type="curve" smooth="yes"/>
      <point x="702" y="211"/>
      <point x="619" y="171"/>
    </contour>
  </outline>
</glyph>
<glyph name="uni278D" format="2">
  <advance width="917"/>
  <unicode hex="278D"/>
  <outline>
    <contour>
      <point x="470" y="-10" type="curve" smooth="yes"/>
      <point x="726" y="-10"/>
      <point x="873" y="139"/>
      <point x="873" y="348" type="curve" smooth="yes"/>
      <point x="873" y="559"/>
      <point x="723" y="710"/>
      <point x="470" y="710" type="curve" smooth="yes"/>
      <point x="217" y="710"/>
      <point x="67" y="559"/>
      <point x="67" y="348" type="curve" smooth="yes"/>
      <point x="67" y="139"/>
      <point x="214" y="-10"/>
    </contour>
    <contour>
      <point x="391" y="319" type="line"/>
      <point x="476" y="319" type="line"/>
      <point x="476" y="373" type="line"/>
    </contour>
    <contour>
      <point x="476" y="184" type="line"/>
      <point x="476" y="224" type="line"/>
      <point x="207" y="224" type="line"/>
      <point x="207" y="299" type="line"/>
      <point x="550" y="519" type="line"/>
      <point x="669" y="519" type="line"/>
      <point x="669" y="319" type="line"/>
      <point x="723" y="319" type="line"/>
      <point x="723" y="224" type="line"/>
      <point x="669" y="224" type="line"/>
      <point x="669" y="184" type="line"/>
    </contour>
  </outline>
</glyph>
<glyph name="uni2791" format="2">
  <advance width="917"/>
  <unicode hex="2791"/>
  <outline>
    <contour>
      <point x="470" y="-10" type="curve" smooth="yes"/>
      <point x="726" y="-10"/>
      <point x="873" y="139"/>
      <point x="873" y="348" type="curve" smooth="yes"/>
      <point x="873" y="559"/>
      <point x="723" y="710"/>
      <point x="470" y="710" type="curve" smooth="yes"/>
      <point x="217" y="710"/>
      <point x="67" y="559"/>
      <point x="67" y="348" type="curve" smooth="yes"/>
      <point x="67" y="139"/>
      <point x="214" y="-10"/>
    </contour>
    <contour>
      <point x="476" y="257" type="curve" smooth="yes"/>
      <point x="533" y="257"/>
      <point x="549" y="262"/>
      <point x="549" y="270" type="curve" smooth="yes"/>
      <point x="549" y="286"/>
      <point x="470" y="282"/>
      <point x="391" y="293" type="curve"/>
      <point x="390" y="291"/>
      <point x="390" y="288"/>
      <point x="390" y="285" type="curve" smooth="yes"/>
      <point x="390" y="267"/>
      <point x="419" y="257"/>
    </contour>
    <contour>
      <point x="461" y="171" type="curve" smooth="yes"/>
      <point x="288" y="171"/>
      <point x="204" y="207"/>
      <point x="204" y="282" type="curve" smooth="yes"/>
      <point x="204" y="309"/>
      <point x="218" y="328"/>
      <point x="255" y="350" type="curve"/>
      <point x="242" y="364"/>
      <point x="235" y="383"/>
      <point x="235" y="406" type="curve" smooth="yes"/>
      <point x="235" y="484"/>
      <point x="315" y="525"/>
      <point x="467" y="525" type="curve" smooth="yes"/>
      <point x="615" y="525"/>
      <point x="702" y="488"/>
      <point x="702" y="426" type="curve" smooth="yes"/>
      <point x="702" y="402"/>
      <point x="687" y="383"/>
      <point x="665" y="369" type="curve"/>
      <point x="706" y="353"/>
      <point x="735" y="327"/>
      <point x="735" y="286" type="curve" smooth="yes"/>
      <point x="735" y="205"/>
      <point x="653" y="171"/>
    </contour>
    <contour>
      <point x="527" y="397" type="curve"/>
      <point x="529" y="400"/>
      <point x="531" y="405"/>
      <point x="531" y="410" type="curve" smooth="yes"/>
      <point x="531" y="426"/>
      <point x="508" y="430"/>
      <point x="457" y="430" type="curve" smooth="yes"/>
      <point x="418" y="430"/>
      <point x="404" y="426"/>
      <point x="404" y="415" type="curve" smooth="yes"/>
      <point x="404" y="403"/>
      <point x="461" y="403"/>
    </contour>
  </outline>
</glyph>
<glyph name="uni2792" format="2">
  <advance width="917"/>
  <unicode hex="2792"/>
  <outline>
    <contour>
      <point x="470" y="-10" type="curve" smooth="yes"/>
      <point x="726" y="-10"/>
      <point x="873" y="139"/>
      <point x="873" y="348" type="curve" smooth="yes"/>
      <point x="873" y="559"/>
      <point x="723" y="710"/>
      <point x="470" y="710" type="curve" smooth="yes"/>
      <point x="217" y="710"/>
      <point x="67" y="559"/>
      <point x="67" y="348" type="curve" smooth="yes"/>
      <point x="67" y="139"/>
      <point x="214" y="-10"/>
    </contour>
    <contour>
      <point x="457" y="171" type="curve" smooth="yes"/>
      <point x="349" y="171"/>
      <point x="286" y="179"/>
      <point x="241" y="192" type="curve"/>
      <point x="268" y="301" type="line"/>
      <point x="325" y="291"/>
      <point x="362" y="281"/>
      <point x="423" y="281" type="curve" smooth="yes"/>
      <point x="504" y="281"/>
      <point x="529" y="292"/>
      <point x="547" y="311" type="curve"/>
      <point x="505" y="297"/>
      <point x="460" y="296"/>
      <point x="410" y="296" type="curve" smooth="yes"/>
      <point x="280" y="296"/>
      <point x="219" y="334"/>
      <point x="219" y="409" type="curve" smooth="yes"/>
      <point x="219" y="476"/>
      <point x="280" y="525"/>
      <point x="471" y="525" type="curve" smooth="yes"/>
      <point x="637" y="525"/>
      <point x="736" y="475"/>
      <point x="736" y="360" type="curve" smooth="yes"/>
      <point x="736" y="236"/>
      <point x="631" y="171"/>
    </contour>
    <contour>
      <point x="490" y="398" type="curve" smooth="yes"/>
      <point x="511" y="398"/>
      <point x="532" y="398"/>
      <point x="555" y="400" type="curve"/>
      <point x="541" y="415"/>
      <point x="513" y="422"/>
      <point x="469" y="422" type="curve" smooth="yes"/>
      <point x="418" y="422"/>
      <point x="409" y="417"/>
      <point x="409" y="410" type="curve" smooth="yes"/>
      <point x="409" y="403"/>
      <point x="421" y="398"/>
    </contour>
  </outline>
</glyph>
<glyph name="uni27E8" format="2">
  <advance width="415"/>
  <unicode hex="27E8"/>
  <outline>
    <contour>
      <point x="32" y="248" type="line"/>
      <point x="332" y="-15" type="line"/>
      <point x="368" y="218" type="line"/>
      <point x="210" y="348" type="line"/>
      <point x="410" y="471" type="line"/>
      <point x="448" y="715" type="line"/>
      <point x="66" y="463" type="line"/>
    </contour>
  </outline>
</glyph>
<glyph name="Euro.tosf" format="2">
  <advance width="1050"/>
  <outline>
    <contour>
      <point x="146" y="224" type="curve" smooth="yes"/>
      <point x="146" y="70"/>
      <point x="292" y="-10"/>
      <point x="572" y="-10" type="curve" smooth="yes"/>
      <point x="697" y="-10"/>
      <point x="797" y="-3"/>
      <point x="894" y="12" type="curve"/>
      <point x="900" y="147" type="line"/>
      <point x="819" y="135"/>
      <point x="737" y="128"/>
      <point x="668" y="128" type="curve" smooth="yes"/>
      <point x="505" y="128"/>
      <point x="436" y="165"/>
      <point x="436" y="254" type="curve" smooth="yes"/>
      <point x="436" y="360"/>
      <point x="525" y="415"/>
      <point x="694" y="415" type="curve" smooth="yes"/>
      <point x="803" y="415"/>
      <point x="864" y="407"/>
      <point x="921" y="402" type="curve"/>
      <point x="946" y="537" type="line"/>
      <point x="864" y="553"/>
      <point x="791" y="559"/>
      <point x="681" y="559" type="curve" smooth="yes"/>
      <point x="337" y="559"/>
      <point x="146" y="440"/>
    </contour>
    <contour>
      <point x="813" y="291" type="line"/>
      <point x="832" y="377" type="line"/>
      <point x="114" y="377" type="line"/>
      <point x="95" y="291" type="line"/>
    </contour>
    <contour>
      <point x="791" y="167" type="line"/>
      <point x="810" y="253" type="line"/>
      <point x="93" y="253" type="line"/>
      <point x="74" y="167" type="line"/>
    </contour>
  </outline>
</glyph>
<glyph name="T_h.liga" format="2">
  <advance width="1838"/>
  <outline>
    <contour>
      <point x="1495" y="296" type="curve" smooth="yes"/>
      <point x="1495" y="269"/>
      <point x="1472" y="156"/>
      <point x="1472" y="130" type="curve" smooth="yes"/>
      <point x="1472" y="35"/>
      <point x="1557" y="-10"/>
      <point x="1665" y="-10" type="curve" smooth="yes"/>
      <point x="1713" y="-10"/>
      <point x="1771" y="-6"/>
      <point x="1806" y="0" type="curve"/>
      <point x="1806" y="196" type="line"/>
      <point x="1800" y="195"/>
      <point x="1790" y="194"/>
      <point x="1784" y="194" type="curve" smooth="yes"/>
      <point x="1771" y="194"/>
      <point x="1767" y="203"/>
      <point x="1767" y="214" type="curve" smooth="yes"/>
      <point x="1767" y="251"/>
      <point x="1792" y="354"/>
      <point x="1792" y="396" type="curve" smooth="yes"/>
      <point x="1792" y="482"/>
      <point x="1732" y="560"/>
      <point x="1583" y="560" type="curve" smooth="yes"/>
      <point x="1507" y="560"/>
      <point x="1454" y="544"/>
      <point x="1363" y="500" type="curve"/>
      <point x="1401" y="740" type="line"/>
      <point x="105" y="740" type="line"/>
      <point x="65" y="531" type="line"/>
      <point x="391" y="531" type="line"/>
      <point x="307" y="0" type="line"/>
      <point x="607" y="0" type="line"/>
      <point x="690" y="531" type="line"/>
      <point x="1083" y="531" type="line"/>
      <point x="998" y="0" type="line"/>
      <point x="1283" y="0" type="line"/>
      <point x="1335" y="327" type="line"/>
      <point x="1374" y="340"/>
      <point x="1411" y="349"/>
      <point x="1439" y="349" type="curve" smooth="yes"/>
      <point x="1477" y="349"/>
      <point x="1495" y="326"/>
    </contour>
  </outline>
</glyph>
<glyph name="ampersand.sc" format="2">
  <advance width="1000"/>
  <outline>
    <contour>
      <point x="415" y="-10" type="curve" smooth="yes"/>
      <point x="674" y="-10"/>
      <point x="820" y="84"/>
      <point x="895" y="289" type="curve"/>
      <point x="706" y="290" type="line"/>
      <point x="683" y="194"/>
      <point x="584" y="137"/>
      <point x="436" y="137" type="curve" smooth="yes"/>
      <point x="331" y="137"/>
      <point x="266" y="164"/>
      <point x="266" y="209" type="curve" smooth="yes"/>
      <point x="266" y="243"/>
      <point x="296" y="260"/>
      <point x="357" y="260" type="curve" smooth="yes"/>
      <point x="443" y="260" type="line"/>
      <point x="472" y="365" type="line"/>
      <point x="449" y="367" type="line" smooth="yes"/>
      <point x="384" y="373"/>
      <point x="353" y="394"/>
      <point x="353" y="426" type="curve" smooth="yes"/>
      <point x="353" y="460"/>
      <point x="393" y="483"/>
      <point x="450" y="483" type="curve" smooth="yes"/>
      <point x="490" y="483"/>
      <point x="527" y="471"/>
      <point x="570" y="444" type="curve"/>
      <point x="702" y="550" type="line"/>
      <point x="623" y="608"/>
      <point x="535" y="634"/>
      <point x="422" y="634" type="curve" smooth="yes"/>
      <point x="232" y="634"/>
      <point x="103" y="567"/>
      <point x="103" y="467" type="curve" smooth="yes"/>
      <point x="103" y="418"/>
      <point x="149" y="371"/>
      <point x="215" y="354" type="curve"/>
      <point x="86" y="346"/>
      <point x="2" y="288"/>
      <point x="2" y="196" type="curve" smooth="yes"/>
      <point x="2" y="62"/>
      <point x="148" y="-10"/>
    </contour>
    <contour>
      <point x="628" y="202" type="line"/>
      <point x="633" y="228"/>
      <point x="652" y="252"/>
      <point x="679" y="252" type="curve" smooth="yes"/>
      <point x="740" y="252"/>
      <point x="831" y="237"/>
      <point x="875" y="237" type="curve" smooth="yes"/>
      <point x="962" y="237"/>
      <point x="1021" y="310"/>
      <point x="1021" y="424" type="curve"/>
      <point x="868" y="424" type="line"/>
      <point x="867" y="384"/>
      <point x="857" y="369"/>
      <point x="813" y="369" type="curve" smooth="yes"/>
      <point x="765" y="369"/>
      <point x="708" y="385"/>
      <point x="661" y="385" type="curve" smooth="yes"/>
      <point x="567" y="385"/>
      <point x="504" y="332"/>
      <point x="492" y="244" type="curve"/>
    </contour>
  </outline>
</glyph>
<glyph name="b.sc" format="2">
  <advance width="1022"/>
  <outline>
    <contour>
      <point x="31" y="5" type="line"/>
      <point x="213" y="-3"/>
      <point x="322" y="-10"/>
      <point x="474" y="-10" type="curve" smooth="yes"/>
      <point x="864" y="-10"/>
      <point x="998" y="52"/>
      <point x="998" y="202" type="curve" smooth="yes"/>
      <point x="998" y="284"/>
      <point x="937" y="331"/>
      <point x="807" y="352" type="curve"/>
      <point x="916" y="371"/>
      <point x="994" y="394"/>
      <point x="994" y="492" type="curve" smooth="yes"/>
      <point x="994" y="577"/>
      <point x="886" y="635"/>
      <point x="572" y="635" type="curve" smooth="yes"/>
      <point x="463" y="635"/>
      <point x="342" y="632"/>
      <point x="132" y="622" type="curve"/>
    </contour>
    <contour>
      <point x="384" y="395" type="line"/>
      <point x="395" y="458" type="line"/>
      <point x="463" y="460"/>
      <point x="473" y="461"/>
      <point x="529" y="461" type="curve" smooth="yes"/>
      <point x="641" y="461"/>
      <point x="668" y="455"/>
      <point x="668" y="429" type="curve" smooth="yes"/>
      <point x="668" y="404"/>
      <point x="637" y="395"/>
      <point x="584" y="395" type="curve" smooth="yes"/>
    </contour>
    <contour>
      <point x="357" y="227" type="line"/>
      <point x="558" y="227" type="line" smooth="yes"/>
      <point x="643" y="227"/>
      <point x="665" y="221"/>
      <point x="665" y="199" type="curve" smooth="yes"/>
      <point x="665" y="170"/>
      <point x="637" y="163"/>
      <point x="531" y="163" type="curve" smooth="yes"/>
      <point x="428" y="163"/>
      <point x="379" y="165"/>
      <point x="345" y="166" type="curve"/>
    </contour>
  </outline>
</glyph>
<glyph name="b.superior" format="2">
  <advance width="602"/>
  <outline>
    <contour>
      <point x="76" y="384" type="line"/>
      <point x="139" y="375"/>
      <point x="218" y="364"/>
      <point x="314" y="364" type="curve" smooth="yes"/>
      <point x="488" y="364"/>
      <point x="617" y="411"/>
      <point x="617" y="566" type="curve" smooth="yes"/>
      <point x="617" y="642"/>
      <point x="572" y="690"/>
      <point x="474" y="690" type="curve" smooth="yes"/>
      <point x="417" y="690"/>
      <point x="383" y="677"/>
      <point x="321" y="649" type="curve"/>
      <point x="342" y="792" type="line"/>
      <point x="139" y="792" type="line"/>
    </contour>
    <contour>
      <point x="305" y="550" type="line"/>
      <point x="332" y="561"/>
      <point x="351" y="565"/>
      <point x="372" y="565" type="curve" smooth="yes"/>
      <point x="402" y="565"/>
      <point x="425" y="564"/>
      <point x="425" y="535" type="curve" smooth="yes"/>
      <point x="425" y="491"/>
      <point x="398" y="470"/>
      <point x="347" y="470" type="curve" smooth="yes"/>
      <point x="328" y="470"/>
      <point x="306" y="472"/>
      <point x="293" y="477" type="curve"/>
    </contour>
  </outline>
</glyph>
<glyph name="blacktriangle" format="2">
  <advance width="694"/>
  <outline>
    <contour>
      <point x="178" y="94" type="line"/>
      <point x="584" y="328" type="line"/>
      <point x="178" y="563" type="line"/>
    </contour>
  </outline>
</glyph>
<glyph name="bracketleft.sc" format="2">
  <advance width="500"/>
  <outline>
    <contour>
      <point x="-2" y="-126" type="line"/>
      <point x="379" y="-126" type="line"/>
      <point x="404" y="32" type="line"/>
      <point x="229" y="32" type="line"/>
      <point x="318" y="592" type="line"/>
      <point x="493" y="592" type="line"/>
      <point x="518" y="750" type="line"/>
      <point x="136" y="750" type="line"/>
    </contour>
  </outline>
</glyph>
<glyph name="c.sc" format="2">
  <advance width="1021"/>
  <anchor x="567" y="0" name="bottom"/>
  <anchor x="663" y="625" name="top"/>
  <outline>
    <contour>
      <point x="53" y="282" type="curve" smooth="yes"/>
      <point x="53" y="70"/>
      <point x="224" y="-10"/>
      <point x="519" y="-10" type="curve" smooth="yes"/>
      <point x="762" y="-10"/>
      <point x="853" y="13"/>
      <point x="957" y="38" type="curve"/>
      <point x="937" y="217" type="line"/>
      <point x="826" y="202"/>
      <point x="708" y="187"/>
      <point x="602" y="187" type="curve" smooth="yes"/>
      <point x="437" y="187"/>
      <point x="373" y="217"/>
      <point x="373" y="300" type="curve" smooth="yes"/>
      <point x="373" y="388"/>
      <point x="461" y="435"/>
      <point x="655" y="435" type="curve" smooth="yes"/>
      <point x="741" y="435"/>
      <point x="832" y="425"/>
      <point x="944" y="410" type="curve"/>
      <point x="997" y="607" type="line"/>
      <point x="899" y="627"/>
      <point x="814" y="634"/>
      <point x="670" y="634" type="curve" smooth="yes"/>
      <point x="268" y="634"/>
      <point x="53" y="521"/>
    </contour>
  </outline>
</glyph>
<glyph name="c.superior" format="2">
  <advance width="536"/>
  <outline>
    <contour>
      <point x="65" y="516" type="curve" smooth="yes"/>
      <point x="65" y="414"/>
      <point x="167" y="364"/>
      <point x="322" y="364" type="curve" smooth="yes"/>
      <point x="404" y="364"/>
      <point x="458" y="370"/>
      <point x="515" y="386" type="curve"/>
      <point x="515" y="488" type="line"/>
      <point x="434" y="478"/>
      <point x="413" y="476"/>
      <point x="362" y="476" type="curve" smooth="yes"/>
      <point x="296" y="476"/>
      <point x="267" y="490"/>
      <point x="267" y="528" type="curve" smooth="yes"/>
      <point x="267" y="561"/>
      <point x="298" y="578"/>
      <point x="370" y="578" type="curve" smooth="yes"/>
      <point x="419" y="578"/>
      <point x="460" y="575"/>
      <point x="521" y="566" type="curve"/>
      <point x="559" y="673" type="line"/>
      <point x="503" y="684"/>
      <point x="443" y="690"/>
      <point x="377" y="690" type="curve" smooth="yes"/>
      <point x="160" y="690"/>
      <point x="65" y="640"/>
    </contour>
  </outline>
</glyph>
<glyph name="centsuperior" format="2">
  <advance width="466"/>
  <outline>
    <contour>
      <point x="187" y="311" type="line"/>
      <point x="294" y="311" type="line"/>
      <point x="303" y="365" type="line"/>
      <point x="356" y="366"/>
      <point x="401" y="371"/>
      <point x="446" y="382" type="curve"/>
      <point x="446" y="485" type="line"/>
      <point x="393" y="477"/>
      <point x="365" y="474"/>
      <point x="324" y="474" type="curve" smooth="yes"/>
      <point x="267" y="474"/>
      <point x="238" y="487"/>
      <point x="238" y="523" type="curve" smooth="yes"/>
      <point x="238" y="553"/>
      <point x="272" y="577"/>
      <point x="330" y="577" type="curve" smooth="yes"/>
      <point x="365" y="577"/>
      <point x="384" y="574"/>
      <point x="450" y="561" type="curve"/>
      <point x="486" y="670" type="line"/>
      <point x="430" y="684"/>
      <point x="401" y="688"/>
      <point x="355" y="689" type="curve"/>
      <point x="365" y="743" type="line"/>
      <point x="258" y="743" type="line"/>
      <point x="247" y="678" type="line"/>
      <point x="135" y="654"/>
      <point x="72" y="584"/>
      <point x="72" y="505" type="curve" smooth="yes"/>
      <point x="72" y="420"/>
      <point x="113" y="383"/>
      <point x="197" y="370" type="curve"/>
    </contour>
  </outline>
</glyph>
<glyph name="d.sc" format="2">
  <advance width="1105"/>
  <anchor x="479" y="0" name="bottom"/>
  <anchor x="553" y="275" name="center"/>
  <anchor x="537" y="625" name="top"/>
  <outline>
    <contour>
      <point x="30" y="0" type="line"/>
      <point x="174" y="-3"/>
      <point x="269" y="-9"/>
      <point x="485" y="-9" type="curve" smooth="yes"/>
      <point x="802" y="-9"/>
      <point x="1063" y="70"/>
      <point x="1063" y="340" type="curve" smooth="yes"/>
      <point x="1063" y="504"/>
      <point x="938" y="634"/>
      <point x="580" y="634" type="curve" smooth="yes"/>
      <point x="381" y="634"/>
      <point x="271" y="629"/>
      <point x="133" y="623" type="curve"/>
    </contour>
    <contour>
      <point x="394" y="453" type="line"/>
      <point x="431" y="454"/>
      <point x="490" y="456"/>
      <point x="584" y="456" type="curve" smooth="yes"/>
      <point x="680" y="456"/>
      <point x="749" y="418"/>
      <point x="749" y="318" type="curve" smooth="yes"/>
      <point x="749" y="230"/>
      <point x="683" y="169"/>
      <point x="539" y="169" type="curve" smooth="yes"/>
      <point x="450" y="169"/>
      <point x="417" y="171"/>
      <point x="347" y="173" type="curve"/>
    </contour>
  </outline>
</glyph>
<glyph name="d.superior" format="2">
  <advance width="601"/>
  <outline>
    <contour>
      <point x="507" y="364" type="curve" smooth="yes"/>
      <point x="539" y="364"/>
      <point x="583" y="369"/>
      <point x="610" y="375" type="curve"/>
      <point x="610" y="488" type="line"/>
      <point x="602" y="487"/>
      <point x="600" y="487"/>
      <point x="597" y="487" type="curve" smooth="yes"/>
      <point x="588" y="487"/>
      <point x="586" y="491"/>
      <point x="586" y="496" type="curve" smooth="yes"/>
      <point x="586" y="502"/>
      <point x="607" y="638"/>
      <point x="631" y="792" type="curve"/>
      <point x="429" y="792" type="line"/>
      <point x="411" y="680" type="line"/>
      <point x="392" y="685"/>
      <point x="362" y="690"/>
      <point x="330" y="690" type="curve" smooth="yes"/>
      <point x="193" y="690"/>
      <point x="65" y="653"/>
      <point x="65" y="488" type="curve" smooth="yes"/>
      <point x="65" y="403"/>
      <point x="125" y="364"/>
      <point x="209" y="364" type="curve" smooth="yes"/>
      <point x="267" y="364"/>
      <point x="316" y="378"/>
      <point x="378" y="407" type="curve"/>
      <point x="409" y="372"/>
      <point x="459" y="364"/>
    </contour>
    <contour>
      <point x="259" y="527" type="curve" smooth="yes"/>
      <point x="259" y="566"/>
      <point x="287" y="586"/>
      <point x="339" y="586" type="curve" smooth="yes"/>
      <point x="363" y="586"/>
      <point x="373" y="583"/>
      <point x="394" y="576" type="curve"/>
      <point x="383" y="503" type="line"/>
      <point x="357" y="495"/>
      <point x="336" y="489"/>
      <point x="307" y="489" type="curve" smooth="yes"/>
      <point x="276" y="489"/>
      <point x="259" y="498"/>
    </contour>
  </outline>
</glyph>
<glyph name="dcroat.sc" format="2">
  <advance width="1105"/>
  <outline>
    <contour>
      <point x="12" y="220" type="line"/>
      <point x="534" y="220" type="line"/>
      <point x="567" y="408" type="line"/>
      <point x="40" y="408" type="line"/>
    </contour>
    <contour>
      <point x="30" y="0" type="line"/>
      <point x="174" y="-3"/>
      <point x="269" y="-9"/>
      <point x="485" y="-9" type="curve" smooth="yes"/>
      <point x="802" y="-9"/>
      <point x="1063" y="70"/>
      <point x="1063" y="340" type="curve" smooth="yes"/>
      <point x="1063" y="504"/>
      <point x="938" y="634"/>
      <point x="580" y="634" type="curve" smooth="yes"/>
      <point x="381" y="634"/>
      <point x="271" y="629"/>
      <point x="133" y="623" type="curve"/>
    </contour>
    <contour>
      <point x="394" y="453" type="line"/>
      <point x="431" y="454"/>
      <point x="490" y="456"/>
      <point x="584" y="456" type="curve" smooth="yes"/>
      <point x="680" y="456"/>
      <point x="749" y="418"/>
      <point x="749" y="318" type="curve" smooth="yes"/>
      <point x="749" y="230"/>
      <point x="683" y="169"/>
      <point x="539" y="169" type="curve" smooth="yes"/>
      <point x="450" y="169"/>
      <point x="417" y="171"/>
      <point x="347" y="173" type="curve"/>
    </contour>
  </outline>
</glyph>
<glyph name="eng.sc" format="2">
  <advance width="969"/>
  <outline>
    <contour>
      <point x="599" y="-9" type="line"/>
      <point x="582" y="-45"/>
      <point x="533" y="-51"/>
      <point x="503" y="-51" type="curve" smooth="yes"/>
      <point x="450" y="-51"/>
      <point x="417" y="-43"/>
      <point x="388" y="-35" type="curve"/>
      <point x="343" y="-200" type="line"/>
      <point x="379" y="-211"/>
      <point x="441" y="-220"/>
      <point x="492" y="-220" type="curve" smooth="yes"/>
      <point x="722" y="-220"/>
      <point x="822" y="-150"/>
      <point x="845" y="-10" type="curve" smooth="yes"/>
      <point x="950" y="625" type="line"/>
      <point x="690" y="625" type="line"/>
      <point x="638" y="311" type="line"/>
      <point x="396" y="625" type="line"/>
      <point x="134" y="625" type="line"/>
      <point x="30" y="0" type="line"/>
      <point x="292" y="0" type="line"/>
      <point x="343" y="304" type="line"/>
    </contour>
  </outline>
</glyph>
<glyph name="eurosuperior" format="2">
  <advance width="559"/>
  <outline>
    <contour>
      <point x="397" y="479" type="curve" smooth="yes"/>
      <point x="306" y="479"/>
      <point x="282" y="511"/>
      <point x="282" y="557" type="curve" smooth="yes"/>
      <point x="282" y="624"/>
      <point x="331" y="660"/>
      <point x="436" y="660" type="curve" smooth="yes"/>
      <point x="467" y="660"/>
      <point x="500" y="656"/>
      <point x="539" y="647" type="curve"/>
      <point x="578" y="756" type="line"/>
      <point x="548" y="765"/>
      <point x="510" y="775"/>
      <point x="437" y="775" type="curve" smooth="yes"/>
      <point x="226" y="775"/>
      <point x="118" y="701"/>
      <point x="118" y="552" type="curve" smooth="yes"/>
      <point x="118" y="416"/>
      <point x="227" y="364"/>
      <point x="349" y="364" type="curve" smooth="yes"/>
      <point x="422" y="364"/>
      <point x="477" y="372"/>
      <point x="529" y="385" type="curve"/>
      <point x="522" y="493" type="line"/>
      <point x="486" y="487"/>
      <point x="454" y="479"/>
    </contour>
    <contour>
      <point x="486" y="578" type="line"/>
      <point x="495" y="629" type="line"/>
      <point x="101" y="629" type="line"/>
      <point x="91" y="578" type="line"/>
    </contour>
    <contour>
      <point x="475" y="510" type="line"/>
      <point x="484" y="561" type="line"/>
      <point x="89" y="561" type="line"/>
      <point x="81" y="510" type="line"/>
    </contour>
  </outline>
</glyph>
<glyph name="f.sc" format="2">
  <advance width="898"/>
  <outline>
    <contour>
      <point x="30" y="0" type="line"/>
      <point x="320" y="0" type="line"/>
      <point x="344" y="159" type="line"/>
      <point x="772" y="159" type="line"/>
      <point x="808" y="346" type="line"/>
      <point x="377" y="346" type="line"/>
      <point x="389" y="430" type="line"/>
      <point x="896" y="430" type="line"/>
      <point x="934" y="625" type="line"/>
      <point x="131" y="625" type="line"/>
    </contour>
  </outline>
</glyph>
<glyph name="f_b.liga" format="2">
  <advance width="1511"/>
  <outline>
    <contour>
      <point x="88" y="-220" type="curve" smooth="yes"/>
      <point x="219" y="-220"/>
      <point x="327" y="-141"/>
      <point x="350" y="3" type="curve" smooth="yes"/>
      <point x="400" y="305" type="line"/>
      <point x="589" y="305" type="line"/>
      <point x="618" y="484" type="line"/>
      <point x="428" y="484" type="line"/>
      <point x="437" y="539"/>
      <point x="484" y="559"/>
      <point x="568" y="559" type="curve" smooth="yes"/>
      <point x="622" y="559"/>
      <point x="675" y="555"/>
      <point x="733" y="548" type="curve"/>
      <point x="648" y="23" type="line"/>
      <point x="743" y="9"/>
      <point x="884" y="-10"/>
      <point x="1030" y="-10" type="curve" smooth="yes"/>
      <point x="1291" y="-10"/>
      <point x="1486" y="70"/>
      <point x="1486" y="336" type="curve" smooth="yes"/>
      <point x="1486" y="465"/>
      <point x="1415" y="560"/>
      <point x="1262" y="560" type="curve" smooth="yes"/>
      <point x="1175" y="560"/>
      <point x="1096" y="538"/>
      <point x="1005" y="489" type="curve"/>
      <point x="1042" y="716" type="line"/>
      <point x="953" y="730"/>
      <point x="704" y="750"/>
      <point x="546" y="750" type="curve" smooth="yes"/>
      <point x="339" y="750"/>
      <point x="186" y="682"/>
      <point x="153" y="484" type="curve"/>
      <point x="53" y="464" type="line"/>
      <point x="27" y="305" type="line"/>
      <point x="122" y="305" type="line"/>
      <point x="75" y="19" type="line" smooth="yes"/>
      <point x="71" y="-6"/>
      <point x="43" y="-12"/>
      <point x="23" y="-12" type="curve" smooth="yes"/>
      <point x="10" y="-12"/>
      <point x="-2" y="-9"/>
      <point x="-6" y="-7" type="curve"/>
      <point x="-56" y="-190" type="line"/>
      <point x="-7" y="-210"/>
      <point x="42" y="-220"/>
    </contour>
    <contour>
      <point x="1063" y="164" type="curve" smooth="yes"/>
      <point x="1025" y="164"/>
      <point x="988" y="170"/>
      <point x="957" y="179" type="curve"/>
      <point x="980" y="327" type="line"/>
      <point x="1021" y="340"/>
      <point x="1073" y="355"/>
      <point x="1118" y="355" type="curve" smooth="yes"/>
      <point x="1165" y="355"/>
      <point x="1200" y="335"/>
      <point x="1200" y="280" type="curve" smooth="yes"/>
      <point x="1200" y="204"/>
      <point x="1133" y="164"/>
    </contour>
  </outline>
</glyph>
<glyph name="f_f.liga" format="2">
  <advance width="1128"/>
  <outline>
    <contour>
      <point x="88" y="-220" type="curve" smooth="yes"/>
      <point x="219" y="-220"/>
      <point x="327" y="-141"/>
      <point x="350" y="3" type="curve" smooth="yes"/>
      <point x="402" y="325" type="line"/>
      <point x="626" y="325" type="line"/>
      <point x="577" y="19" type="line" smooth="yes"/>
      <point x="573" y="-6"/>
      <point x="545" y="-12"/>
      <point x="525" y="-12" type="curve" smooth="yes"/>
      <point x="512" y="-12"/>
      <point x="500" y="-9"/>
      <point x="496" y="-7" type="curve"/>
      <point x="446" y="-190" type="line"/>
      <point x="495" y="-210"/>
      <point x="544" y="-220"/>
      <point x="590" y="-220" type="curve" smooth="yes"/>
      <point x="721" y="-220"/>
      <point x="829" y="-141"/>
      <point x="852" y="3" type="curve" smooth="yes"/>
      <point x="904" y="325" type="line"/>
      <point x="1093" y="325" type="line"/>
      <point x="1119" y="484" type="line"/>
      <point x="929" y="484" type="line"/>
      <point x="938" y="539"/>
      <point x="999" y="543"/>
      <point x="1029" y="543" type="curve" smooth="yes"/>
      <point x="1079" y="543"/>
      <point x="1141" y="532"/>
      <point x="1163" y="525" type="curve"/>
      <point x="1225" y="716" type="line"/>
      <point x="1168" y="736"/>
      <point x="1084" y="750"/>
      <point x="1006" y="750" type="curve" smooth="yes"/>
      <point x="944" y="750"/>
      <point x="886" y="739"/>
      <point x="835" y="716" type="curve"/>
      <point x="721" y="741"/>
      <point x="628" y="750"/>
      <point x="541" y="750" type="curve" smooth="yes"/>
      <point x="335" y="750"/>
      <point x="188" y="679"/>
      <point x="152" y="484" type="curve"/>
      <point x="52" y="464" type="line"/>
      <point x="29" y="325" type="line"/>
      <point x="124" y="325" type="line"/>
      <point x="75" y="19" type="line" smooth="yes"/>
      <point x="71" y="-6"/>
      <point x="43" y="-12"/>
      <point x="23" y="-12" type="curve" smooth="yes"/>
      <point x="10" y="-12"/>
      <point x="-2" y="-9"/>
      <point x="-6" y="-7" type="curve"/>
      <point x="-56" y="-190" type="line"/>
      <point x="-7" y="-210"/>
      <point x="42" y="-220"/>
    </contour>
    <contour>
      <point x="427" y="484" type="line"/>
      <point x="436" y="546"/>
      <point x="497" y="570"/>
      <point x="557" y="570" type="curve" smooth="yes"/>
      <point x="591" y="570"/>
      <point x="631" y="568"/>
      <point x="676" y="561" type="curve"/>
      <point x="667" y="538"/>
      <point x="660" y="512"/>
      <point x="654" y="484" type="curve"/>
    </contour>
  </outline>
</glyph>
<glyph name="f_f_b.liga" format="2">
  <advance width="2008"/>
  <outline>
    <contour>
      <point x="88" y="-220" type="curve" smooth="yes"/>
      <point x="219" y="-220"/>
      <point x="326" y="-141"/>
      <point x="350" y="3" type="curve" smooth="yes"/>
      <point x="404" y="325" type="line"/>
      <point x="627" y="325" type="line"/>
      <point x="576" y="19" type="line" smooth="yes"/>
      <point x="572" y="-6"/>
      <point x="544" y="-12"/>
      <point x="524" y="-12" type="curve" smooth="yes"/>
      <point x="511" y="-12"/>
      <point x="499" y="-9"/>
      <point x="495" y="-7" type="curve"/>
      <point x="445" y="-190" type="line"/>
      <point x="494" y="-210"/>
      <point x="543" y="-220"/>
      <point x="589" y="-220" type="curve" smooth="yes"/>
      <point x="720" y="-220"/>
      <point x="827" y="-141"/>
      <point x="851" y="3" type="curve" smooth="yes"/>
      <point x="905" y="325" type="line"/>
      <point x="1094" y="325" type="line"/>
      <point x="1119" y="484" type="line"/>
      <point x="929" y="484" type="line"/>
      <point x="938" y="539"/>
      <point x="985" y="558"/>
      <point x="1069" y="558" type="curve" smooth="yes"/>
      <point x="1112" y="558"/>
      <point x="1170" y="556"/>
      <point x="1230" y="548" type="curve"/>
      <point x="1145" y="23" type="line"/>
      <point x="1240" y="9"/>
      <point x="1381" y="-10"/>
      <point x="1527" y="-10" type="curve" smooth="yes"/>
      <point x="1788" y="-10"/>
      <point x="1983" y="70"/>
      <point x="1983" y="336" type="curve" smooth="yes"/>
      <point x="1983" y="465"/>
      <point x="1912" y="560"/>
      <point x="1759" y="560" type="curve" smooth="yes"/>
      <point x="1672" y="560"/>
      <point x="1593" y="538"/>
      <point x="1502" y="489" type="curve"/>
      <point x="1539" y="716" type="line"/>
      <point x="1452" y="732"/>
      <point x="1205" y="750"/>
      <point x="1047" y="750" type="curve" smooth="yes"/>
      <point x="970" y="750"/>
      <point x="901" y="740"/>
      <point x="842" y="719" type="curve"/>
      <point x="728" y="740"/>
      <point x="626" y="750"/>
      <point x="533" y="750" type="curve" smooth="yes"/>
      <point x="336" y="750"/>
      <point x="189" y="679"/>
      <point x="153" y="484" type="curve"/>
      <point x="53" y="464" type="line"/>
      <point x="31" y="325" type="line"/>
      <point x="126" y="325" type="line"/>
      <point x="75" y="19" type="line" smooth="yes"/>
      <point x="71" y="-6"/>
      <point x="43" y="-12"/>
      <point x="23" y="-12" type="curve" smooth="yes"/>
      <point x="10" y="-12"/>
      <point x="-2" y="-9"/>
      <point x="-6" y="-7" type="curve"/>
      <point x="-56" y="-190" type="line"/>
      <point x="-7" y="-210"/>
      <point x="42" y="-220"/>
    </contour>
    <contour>
      <point x="428" y="484" type="line"/>
      <point x="437" y="546"/>
      <point x="498" y="570"/>
      <point x="558" y="570" type="curve" smooth="yes"/>
      <point x="592" y="570"/>
      <point x="632" y="568"/>
      <point x="677" y="561" type="curve"/>
      <point x="668" y="538"/>
      <point x="661" y="512"/>
      <point x="655" y="484" type="curve"/>
    </contour>
    <contour>
      <point x="1560" y="164" type="curve" smooth="yes"/>
      <point x="1522" y="164"/>
      <point x="1485" y="170"/>
      <point x="1454" y="179" type="curve"/>
      <point x="1477" y="327" type="line"/>
      <point x="1518" y="340"/>
      <point x="1570" y="355"/>
      <point x="1615" y="355" type="curve" smooth="yes"/>
      <point x="1662" y="355"/>
      <point x="1697" y="335"/>
      <point x="1697" y="280" type="curve" smooth="yes"/>
      <point x="1697" y="204"/>
      <point x="1630" y="164"/>
    </contour>
  </outline>
</glyph>
<glyph name="f_f_h.liga" format="2">
  <advance width="1964"/>
  <outline>
    <contour>
      <point x="88" y="-220" type="curve" smooth="yes"/>
      <point x="219" y="-220"/>
      <point x="326" y="-141"/>
      <point x="350" y="3" type="curve" smooth="yes"/>
      <point x="403" y="325" type="line"/>
      <point x="626" y="325" type="line"/>
      <point x="576" y="19" type="line" smooth="yes"/>
      <point x="572" y="-6"/>
      <point x="544" y="-12"/>
      <point x="524" y="-12" type="curve" smooth="yes"/>
      <point x="511" y="-12"/>
      <point x="499" y="-9"/>
      <point x="495" y="-7" type="curve"/>
      <point x="445" y="-190" type="line"/>
      <point x="494" y="-210"/>
      <point x="543" y="-220"/>
      <point x="589" y="-220" type="curve" smooth="yes"/>
      <point x="720" y="-220"/>
      <point x="827" y="-141"/>
      <point x="851" y="3" type="curve" smooth="yes"/>
      <point x="904" y="325" type="line"/>
      <point x="1093" y="325" type="line"/>
      <point x="1119" y="484" type="line"/>
      <point x="929" y="484" type="line"/>
      <point x="938" y="539"/>
      <point x="985" y="558"/>
      <point x="1069" y="558" type="curve" smooth="yes"/>
      <point x="1109" y="558"/>
      <point x="1163" y="553"/>
      <point x="1218" y="547" type="curve"/>
      <point x="1127" y="0" type="line"/>
      <point x="1409" y="0" type="line"/>
      <point x="1464" y="334" type="line"/>
      <point x="1503" y="347"/>
      <point x="1540" y="359"/>
      <point x="1568" y="359" type="curve" smooth="yes"/>
      <point x="1599" y="359"/>
      <point x="1625" y="352"/>
      <point x="1625" y="306" type="curve" smooth="yes"/>
      <point x="1625" y="254"/>
      <point x="1600" y="186"/>
      <point x="1600" y="129" type="curve" smooth="yes"/>
      <point x="1600" y="38"/>
      <point x="1681" y="-10"/>
      <point x="1791" y="-10" type="curve" smooth="yes"/>
      <point x="1839" y="-10"/>
      <point x="1897" y="-6"/>
      <point x="1932" y="0" type="curve"/>
      <point x="1932" y="191" type="line"/>
      <point x="1926" y="190"/>
      <point x="1916" y="189"/>
      <point x="1910" y="189" type="curve" smooth="yes"/>
      <point x="1897" y="189"/>
      <point x="1894" y="198"/>
      <point x="1894" y="209" type="curve" smooth="yes"/>
      <point x="1894" y="268"/>
      <point x="1918" y="330"/>
      <point x="1918" y="389" type="curve" smooth="yes"/>
      <point x="1918" y="482"/>
      <point x="1858" y="560"/>
      <point x="1709" y="560" type="curve" smooth="yes"/>
      <point x="1624" y="560"/>
      <point x="1581" y="544"/>
      <point x="1490" y="500" type="curve"/>
      <point x="1528" y="716" type="line"/>
      <point x="1439" y="731"/>
      <point x="1205" y="750"/>
      <point x="1047" y="750" type="curve" smooth="yes"/>
      <point x="970" y="750"/>
      <point x="901" y="740"/>
      <point x="842" y="719" type="curve"/>
      <point x="728" y="740"/>
      <point x="626" y="750"/>
      <point x="533" y="750" type="curve" smooth="yes"/>
      <point x="336" y="750"/>
      <point x="189" y="679"/>
      <point x="153" y="484" type="curve"/>
      <point x="53" y="464" type="line"/>
      <point x="30" y="325" type="line"/>
      <point x="125" y="325" type="line"/>
      <point x="75" y="19" type="line" smooth="yes"/>
      <point x="71" y="-6"/>
      <point x="43" y="-12"/>
      <point x="23" y="-12" type="curve" smooth="yes"/>
      <point x="10" y="-12"/>
      <point x="-2" y="-9"/>
      <point x="-6" y="-7" type="curve"/>
      <point x="-56" y="-190" type="line"/>
      <point x="-7" y="-210"/>
      <point x="42" y="-220"/>
    </contour>
    <contour>
      <point x="428" y="484" type="line"/>
      <point x="437" y="546"/>
      <point x="498" y="570"/>
      <point x="558" y="570" type="curve" smooth="yes"/>
      <point x="592" y="570"/>
      <point x="632" y="568"/>
      <point x="677" y="561" type="curve"/>
      <point x="668" y="538"/>
      <point x="661" y="512"/>
      <point x="655" y="484" type="curve"/>
    </contour>
  </outline>
</glyph>
<glyph name="f_f_j.liga" format="2">
  <advance width="1452"/>
  <outline>
    <contour>
      <point x="88" y="-220" type="curve" smooth="yes"/>
      <point x="219" y="-220"/>
      <point x="326" y="-141"/>
      <point x="350" y="3" type="curve" smooth="yes"/>
      <point x="403" y="325" type="line"/>
      <point x="626" y="325" type="line"/>
      <point x="576" y="19" type="line" smooth="yes"/>
      <point x="572" y="-6"/>
      <point x="544" y="-12"/>
      <point x="524" y="-12" type="curve" smooth="yes"/>
      <point x="511" y="-12"/>
      <point x="499" y="-9"/>
      <point x="495" y="-7" type="curve"/>
      <point x="445" y="-190" type="line"/>
      <point x="494" y="-210"/>
      <point x="543" y="-220"/>
      <point x="589" y="-220" type="curve" smooth="yes"/>
      <point x="720" y="-220"/>
      <point x="827" y="-141"/>
      <point x="851" y="3" type="curve" smooth="yes"/>
      <point x="904" y="325" type="line"/>
      <point x="1122" y="325" type="line"/>
      <point x="1084" y="85" type="line" smooth="yes"/>
      <point x="1073" y="13"/>
      <point x="1038" y="-9"/>
      <point x="978" y="-9" type="curve" smooth="yes"/>
      <point x="973" y="-9"/>
      <point x="968" y="-9"/>
      <point x="963" y="-9" type="curve"/>
      <point x="920" y="-215" type="line"/>
      <point x="948" y="-217"/>
      <point x="1008" y="-220"/>
      <point x="1035" y="-220" type="curve" smooth="yes"/>
      <point x="1248" y="-220"/>
      <point x="1332" y="-114"/>
      <point x="1363" y="78" type="curve" smooth="yes"/>
      <point x="1428" y="484" type="line"/>
      <point x="929" y="484" type="line"/>
      <point x="938" y="539"/>
      <point x="985" y="560"/>
      <point x="1085" y="560" type="curve" smooth="yes"/>
      <point x="1143" y="560"/>
      <point x="1219" y="547"/>
      <point x="1388" y="514" type="curve"/>
      <point x="1441" y="696" type="line"/>
      <point x="1225" y="745"/>
      <point x="1157" y="750"/>
      <point x="1051" y="750" type="curve" smooth="yes"/>
      <point x="969" y="750"/>
      <point x="896" y="739"/>
      <point x="835" y="716" type="curve"/>
      <point x="721" y="741"/>
      <point x="629" y="750"/>
      <point x="542" y="750" type="curve" smooth="yes"/>
      <point x="336" y="750"/>
      <point x="189" y="679"/>
      <point x="153" y="484" type="curve"/>
      <point x="53" y="464" type="line"/>
      <point x="30" y="325" type="line"/>
      <point x="125" y="325" type="line"/>
      <point x="75" y="19" type="line" smooth="yes"/>
      <point x="71" y="-6"/>
      <point x="43" y="-12"/>
      <point x="23" y="-12" type="curve" smooth="yes"/>
      <point x="10" y="-12"/>
      <point x="-2" y="-9"/>
      <point x="-6" y="-7" type="curve"/>
      <point x="-56" y="-190" type="line"/>
      <point x="-7" y="-210"/>
      <point x="42" y="-220"/>
    </contour>
    <contour>
      <point x="428" y="484" type="line"/>
      <point x="437" y="546"/>
      <point x="498" y="570"/>
      <point x="558" y="570" type="curve" smooth="yes"/>
      <point x="592" y="570"/>
      <point x="632" y="568"/>
      <point x="677" y="561" type="curve"/>
      <point x="668" y="538"/>
      <point x="661" y="512"/>
      <point x="655" y="484" type="curve"/>
    </contour>
  </outline>
</glyph>
<glyph name="f_h.liga" format="2">
  <advance width="1471"/>
  <outline>
    <contour>
      <point x="88" y="-220" type="curve" smooth="yes"/>
      <point x="219" y="-220"/>
      <point x="326" y="-141"/>
      <point x="350" y="3" type="curve" smooth="yes"/>
      <point x="400" y="305" type="line"/>
      <point x="589" y="305" type="line"/>
      <point x="618" y="484" type="line"/>
      <point x="428" y="484" type="line"/>
      <point x="437" y="539"/>
      <point x="484" y="558"/>
      <point x="568" y="558" type="curve" smooth="yes"/>
      <point x="610" y="558"/>
      <point x="667" y="553"/>
      <point x="725" y="546" type="curve"/>
      <point x="634" y="0" type="line"/>
      <point x="916" y="0" type="line"/>
      <point x="971" y="334" type="line"/>
      <point x="1010" y="347"/>
      <point x="1047" y="359"/>
      <point x="1075" y="359" type="curve" smooth="yes"/>
      <point x="1106" y="359"/>
      <point x="1132" y="352"/>
      <point x="1132" y="306" type="curve" smooth="yes"/>
      <point x="1132" y="254"/>
      <point x="1107" y="186"/>
      <point x="1107" y="129" type="curve" smooth="yes"/>
      <point x="1107" y="38"/>
      <point x="1188" y="-10"/>
      <point x="1298" y="-10" type="curve" smooth="yes"/>
      <point x="1346" y="-10"/>
      <point x="1404" y="-6"/>
      <point x="1439" y="0" type="curve"/>
      <point x="1439" y="191" type="line"/>
      <point x="1433" y="190"/>
      <point x="1423" y="189"/>
      <point x="1417" y="189" type="curve" smooth="yes"/>
      <point x="1404" y="189"/>
      <point x="1401" y="198"/>
      <point x="1401" y="209" type="curve" smooth="yes"/>
      <point x="1401" y="268"/>
      <point x="1425" y="330"/>
      <point x="1425" y="389" type="curve" smooth="yes"/>
      <point x="1425" y="482"/>
      <point x="1365" y="560"/>
      <point x="1216" y="560" type="curve" smooth="yes"/>
      <point x="1131" y="560"/>
      <point x="1088" y="544"/>
      <point x="997" y="500" type="curve"/>
      <point x="1033" y="714" type="line"/>
      <point x="944" y="728"/>
      <point x="704" y="750"/>
      <point x="546" y="750" type="curve" smooth="yes"/>
      <point x="339" y="750"/>
      <point x="186" y="682"/>
      <point x="153" y="484" type="curve"/>
      <point x="53" y="464" type="line"/>
      <point x="27" y="305" type="line"/>
      <point x="122" y="305" type="line"/>
      <point x="75" y="19" type="line" smooth="yes"/>
      <point x="71" y="-6"/>
      <point x="43" y="-12"/>
      <point x="23" y="-12" type="curve" smooth="yes"/>
      <point x="10" y="-12"/>
      <point x="-2" y="-9"/>
      <point x="-6" y="-7" type="curve"/>
      <point x="-56" y="-190" type="line"/>
      <point x="-7" y="-210"/>
      <point x="42" y="-220"/>
    </contour>
  </outline>
</glyph>
<glyph name="f_t.liga" format="2">
  <advance width="1119"/>
  <outline>
    <contour>
      <point x="88" y="-220" type="curve" smooth="yes"/>
      <point x="219" y="-220"/>
      <point x="327" y="-141"/>
      <point x="350" y="3" type="curve" smooth="yes"/>
      <point x="403" y="325" type="line"/>
      <point x="624" y="325" type="line"/>
      <point x="613" y="247" type="line" smooth="yes"/>
      <point x="609" y="217"/>
      <point x="606" y="191"/>
      <point x="606" y="167" type="curve" smooth="yes"/>
      <point x="606" y="32"/>
      <point x="684" y="-10"/>
      <point x="810" y="-10" type="curve" smooth="yes"/>
      <point x="896" y="-10"/>
      <point x="967" y="3"/>
      <point x="1054" y="22" type="curve"/>
      <point x="1061" y="227" type="line"/>
      <point x="1004" y="217"/>
      <point x="969" y="210"/>
      <point x="941" y="210" type="curve" smooth="yes"/>
      <point x="909" y="210"/>
      <point x="894" y="220"/>
      <point x="894" y="245" type="curve" smooth="yes"/>
      <point x="894" y="250"/>
      <point x="894" y="255"/>
      <point x="895" y="261" type="curve" smooth="yes"/>
      <point x="907" y="325" type="line"/>
      <point x="1075" y="325" type="line"/>
      <point x="1103" y="484" type="line"/>
      <point x="932" y="484" type="line"/>
      <point x="970" y="700" type="line"/>
      <point x="755" y="741"/>
      <point x="656" y="750"/>
      <point x="550" y="750" type="curve" smooth="yes"/>
      <point x="339" y="750"/>
      <point x="186" y="682"/>
      <point x="153" y="484" type="curve"/>
      <point x="53" y="464" type="line"/>
      <point x="30" y="325" type="line"/>
      <point x="125" y="325" type="line"/>
      <point x="75" y="19" type="line" smooth="yes"/>
      <point x="71" y="-6"/>
      <point x="43" y="-12"/>
      <point x="23" y="-12" type="curve" smooth="yes"/>
      <point x="10" y="-12"/>
      <point x="-2" y="-9"/>
      <point x="-6" y="-7" type="curve"/>
      <point x="-56" y="-190" type="line"/>
      <point x="-7" y="-210"/>
      <point x="42" y="-220"/>
    </contour>
    <contour>
      <point x="428" y="484" type="line"/>
      <point x="437" y="548"/>
      <point x="484" y="569"/>
      <point x="584" y="569" type="curve" smooth="yes"/>
      <point x="604" y="569"/>
      <point x="639" y="568"/>
      <point x="673" y="562" type="curve"/>
      <point x="652" y="484" type="line"/>
    </contour>
  </outline>
</glyph>
<glyph name="g.superior" format="2">
  <advance width="564"/>
  <outline>
    <contour>
      <point x="225" y="355" type="curve" smooth="yes"/>
      <point x="175" y="355"/>
      <point x="134" y="365"/>
      <point x="82" y="380" type="curve"/>
      <point x="45" y="278" type="line"/>
      <point x="96" y="260"/>
      <point x="167" y="244"/>
      <point x="271" y="244" type="curve" smooth="yes"/>
      <point x="429" y="244"/>
      <point x="522" y="304"/>
      <point x="542" y="432" type="curve" smooth="yes"/>
      <point x="579" y="669" type="line"/>
      <point x="482" y="686"/>
      <point x="406" y="690"/>
      <point x="339" y="690" type="curve" smooth="yes"/>
      <point x="145" y="690"/>
      <point x="67" y="609"/>
      <point x="67" y="506" type="curve" smooth="yes"/>
      <point x="67" y="421"/>
      <point x="123" y="389"/>
      <point x="209" y="389" type="curve" smooth="yes"/>
      <point x="241" y="389"/>
      <point x="310" y="401"/>
      <point x="352" y="427" type="curve"/>
      <point x="348" y="413" type="line" smooth="yes"/>
      <point x="334" y="365"/>
      <point x="294" y="355"/>
    </contour>
    <contour>
      <point x="379" y="593" type="curve"/>
      <point x="364" y="500" type="line"/>
      <point x="341" y="493"/>
      <point x="318" y="489"/>
      <point x="304" y="489" type="curve" smooth="yes"/>
      <point x="267" y="489"/>
      <point x="246" y="502"/>
      <point x="246" y="535" type="curve" smooth="yes"/>
      <point x="246" y="580"/>
      <point x="281" y="602"/>
      <point x="320" y="602" type="curve" smooth="yes"/>
      <point x="342" y="602"/>
      <point x="368" y="598"/>
    </contour>
  </outline>
</glyph>
<glyph name="gravecomb.case" format="2">
  <anchor x="-486" y="700" name="_top"/>
  <anchor x="-508" y="940" name="top"/>
  <outline>
    <contour>
      <point x="-566" y="746" type="line"/>
      <point x="-356" y="746" type="line"/>
      <point x="-441" y="940" type="line"/>
      <point x="-690" y="940" type="line"/>
    </contour>
  </outline>
</glyph>
<glyph name="h.superior" format="2">
  <advance width="587"/>
  <outline>
    <contour>
      <point x="386" y="534" type="curve" smooth="yes"/>
      <point x="386" y="510"/>
      <point x="373" y="478"/>
      <point x="373" y="449" type="curve" smooth="yes"/>
      <point x="373" y="386"/>
      <point x="422" y="364"/>
      <point x="498" y="364" type="curve" smooth="yes"/>
      <point x="530" y="364"/>
      <point x="578" y="369"/>
      <point x="601" y="372" type="curve"/>
      <point x="601" y="481" type="line"/>
      <point x="597" y="480"/>
      <point x="590" y="480"/>
      <point x="587" y="480" type="curve" smooth="yes"/>
      <point x="578" y="480"/>
      <point x="574" y="486"/>
      <point x="574" y="492" type="curve" smooth="yes"/>
      <point x="574" y="514"/>
      <point x="591" y="552"/>
      <point x="591" y="592" type="curve" smooth="yes"/>
      <point x="591" y="645"/>
      <point x="542" y="690"/>
      <point x="450" y="690" type="curve" smooth="yes"/>
      <point x="405" y="690"/>
      <point x="367" y="677"/>
      <point x="321" y="655" type="curve"/>
      <point x="342" y="792" type="line"/>
      <point x="139" y="792" type="line"/>
      <point x="74" y="370" type="line"/>
      <point x="276" y="370" type="line"/>
      <point x="305" y="556" type="line"/>
      <point x="323" y="566"/>
      <point x="335" y="569"/>
      <point x="348" y="569" type="curve" smooth="yes"/>
      <point x="373" y="569"/>
      <point x="386" y="560"/>
    </contour>
  </outline>
</glyph>
<glyph name="hbar.sc" format="2">
  <advance width="1043"/>
  <outline>
    <contour>
      <point x="61" y="590" type="line"/>
      <point x="37" y="445" type="line"/>
      <point x="103" y="445" type="line"/>
      <point x="31" y="0" type="line"/>
      <point x="320" y="0" type="line"/>
      <point x="350" y="189" type="line"/>
      <point x="673" y="189" type="line"/>
      <point x="644" y="0" type="line"/>
      <point x="923" y="0" type="line"/>
      <point x="995" y="445" type="line"/>
      <point x="1059" y="445" type="line"/>
      <point x="1083" y="590" type="line"/>
      <point x="1019" y="590" type="line"/>
      <point x="1025" y="625" type="line"/>
      <point x="745" y="625" type="line"/>
      <point x="739" y="590" type="line"/>
      <point x="417" y="590" type="line"/>
      <point x="423" y="625" type="line"/>
      <point x="133" y="625" type="line"/>
      <point x="127" y="590" type="line"/>
    </contour>
    <contour>
      <point x="386" y="403" type="line"/>
      <point x="393" y="445" type="line"/>
      <point x="715" y="445" type="line"/>
      <point x="708" y="403" type="line"/>
    </contour>
  </outline>
</glyph>
<glyph name="i.sc" format="2">
  <advance width="442"/>
  <anchor x="177.444" y="0" name="bottom"/>
  <anchor x="320" y="0" name="ogonek"/>
  <anchor x="265" y="625" name="top"/>
  <outline>
    <contour>
      <point x="30" y="0" type="line"/>
      <point x="320" y="0" type="line"/>
      <point x="423" y="625" type="line"/>
      <point x="133" y="625" type="line"/>
    </contour>
  </outline>
</glyph>
<glyph name="i.sc.loclTRK" format="2">
  <advance width="442"/>
  <outline>
    <contour>
      <point x="314" y="865" type="curve" smooth="yes"/>
      <point x="187" y="865"/>
      <point x="125" y="824"/>
      <point x="125" y="738" type="curve" smooth="yes"/>
      <point x="125" y="680"/>
      <point x="170" y="645"/>
      <point x="277" y="645" type="curve" smooth="yes"/>
      <point x="376" y="645"/>
      <point x="465" y="672"/>
      <point x="465" y="773" type="curve" smooth="yes"/>
      <point x="465" y="830"/>
      <point x="420" y="865"/>
    </contour>
    <contour>
      <point x="30" y="0" type="line"/>
      <point x="320" y="0" type="line"/>
      <point x="423" y="625" type="line"/>
      <point x="133" y="625" type="line"/>
    </contour>
  </outline>
</glyph>
<glyph name="j.sc" format="2">
  <advance width="873"/>
  <anchor x="393.444" y="0" name="bottom"/>
  <anchor x="501" y="625" name="top"/>
  <outline>
    <contour>
      <point x="-7" y="39" type="line"/>
      <point x="145" y="6"/>
      <point x="255" y="-10"/>
      <point x="377" y="-10" type="curve" smooth="yes"/>
      <point x="653" y="-10"/>
      <point x="767" y="89"/>
      <point x="800" y="283" type="curve" smooth="yes"/>
      <point x="859" y="625" type="line"/>
      <point x="173" y="625" type="line"/>
      <point x="131" y="427" type="line"/>
      <point x="536" y="427" type="line"/>
      <point x="516" y="305" type="line" smooth="yes"/>
      <point x="502" y="225"/>
      <point x="451" y="198"/>
      <point x="347" y="198" type="curve" smooth="yes"/>
      <point x="275" y="198"/>
      <point x="195" y="210"/>
      <point x="80" y="241" type="curve"/>
    </contour>
  </outline>
</glyph>
<glyph name="j.short" format="2">
  <advance width="432"/>
  <note>
idem /i
12
</note>
  <outline>
    <contour>
      <point x="311" y="790" type="curve" smooth="yes"/>
      <point x="183" y="790"/>
      <point x="122" y="749"/>
      <point x="122" y="663" type="curve" smooth="yes"/>
      <point x="122" y="605"/>
      <point x="168" y="570"/>
      <point x="275" y="570" type="curve" smooth="yes"/>
      <point x="374" y="570"/>
      <point x="462" y="597"/>
      <point x="462" y="698" type="curve" smooth="yes"/>
      <point x="462" y="755"/>
      <point x="417" y="790"/>
    </contour>
    <contour>
      <point x="418" y="550" type="line"/>
      <point x="134" y="550" type="line"/>
      <point x="55" y="46" type="line" smooth="yes"/>
      <point x="49" y="5"/>
      <point x="38" y="-15"/>
      <point x="2" y="-15" type="curve" smooth="yes"/>
      <point x="-6" y="-15"/>
      <point x="-20" y="-14"/>
      <point x="-28" y="-12" type="curve"/>
      <point x="-79" y="-209" type="line"/>
      <point x="-31" y="-216"/>
      <point x="20" y="-220"/>
      <point x="48" y="-220" type="curve" smooth="yes"/>
      <point x="236" y="-220"/>
      <point x="313" y="-113"/>
      <point x="343" y="78" type="curve" smooth="yes"/>
    </contour>
  </outline>
</glyph>
<glyph name="j.superior" format="2">
  <advance width="304"/>
  <outline>
    <contour>
      <point x="324" y="683" type="line"/>
      <point x="121" y="683" type="line"/>
      <point x="82" y="423" type="line" smooth="yes"/>
      <point x="76" y="381"/>
      <point x="59" y="369"/>
      <point x="20" y="369" type="curve" smooth="yes"/>
      <point x="16" y="369"/>
      <point x="13" y="369"/>
      <point x="9" y="369" type="curve"/>
      <point x="-17" y="247" type="line"/>
      <point x="2" y="246"/>
      <point x="41" y="245"/>
      <point x="59" y="245" type="curve" smooth="yes"/>
      <point x="200" y="245"/>
      <point x="269" y="306"/>
      <point x="285" y="419" type="curve" smooth="yes"/>
    </contour>
    <contour>
      <point x="349" y="780" type="curve" smooth="yes"/>
      <point x="349" y="813"/>
      <point x="320" y="833"/>
      <point x="247" y="833" type="curve" smooth="yes"/>
      <point x="162" y="833"/>
      <point x="122" y="810"/>
      <point x="122" y="759" type="curve" smooth="yes"/>
      <point x="122" y="725"/>
      <point x="150" y="705"/>
      <point x="224" y="705" type="curve" smooth="yes"/>
      <point x="290" y="705"/>
      <point x="349" y="720"/>
    </contour>
  </outline>
</glyph>
<glyph name="k.sc" format="2">
  <advance width="987"/>
  <anchor x="470" y="0" name="bottom"/>
  <anchor x="538" y="625" name="top"/>
  <outline>
    <contour>
      <point x="30" y="0" type="line"/>
      <point x="320" y="0" type="line"/>
      <point x="423" y="625" type="line"/>
      <point x="134" y="625" type="line"/>
    </contour>
    <contour>
      <point x="832" y="-10" type="curve" smooth="yes"/>
      <point x="868" y="-10"/>
      <point x="894" y="-7"/>
      <point x="906" y="-4" type="curve"/>
      <point x="947" y="217" type="line"/>
      <point x="934" y="216"/>
      <point x="923" y="215"/>
      <point x="912" y="215" type="curve" smooth="yes"/>
      <point x="850" y="215"/>
      <point x="774" y="243"/>
      <point x="701" y="275" type="curve" smooth="yes"/>
      <point x="359" y="426" type="line"/>
      <point x="324" y="202" type="line"/>
      <point x="581" y="57" type="line" smooth="yes"/>
      <point x="658" y="13"/>
      <point x="773" y="-10"/>
    </contour>
    <contour>
      <point x="560" y="286" type="line"/>
      <point x="760" y="333"/>
      <point x="897" y="407"/>
      <point x="995" y="492" type="curve"/>
      <point x="795" y="642" type="line"/>
      <point x="649" y="521"/>
      <point x="546" y="433"/>
      <point x="380" y="374" type="curve"/>
    </contour>
  </outline>
</glyph>
